<?xml version="1.0" encoding="utf-8"?>
<!-- Generator: Adobe Illustrator 16.1.0, SVG Export Plug-In . SVG Version: 6.00 Build 0)  -->
<!DOCTYPE svg PUBLIC "-//W3C//DTD SVG 1.1//EN" "http://www.w3.org/Graphics/SVG/1.1/DTD/svg11.dtd">
<svg version="1.1" id="Layer_1" xmlns="http://www.w3.org/2000/svg" xmlns:xlink="http://www.w3.org/1999/xlink" x="0px" y="0px"
	 width="48px" height="48px" viewBox="0 0 48 48" enable-background="new 0 0 48 48" xml:space="preserve">
<g>
	<path fill="#333333" d="M9.692,10.801c-1.883,0.446-3.045,2.336-2.596,4.216c0.45,1.88,2.336,3.042,4.216,2.591
		c1.877-0.444,3.04-2.331,2.591-4.211C13.458,11.514,11.569,10.352,9.692,10.801z"/>
	<path fill="#333333" d="M28.692,10.801c-1.882,0.447-3.044,2.336-2.596,4.216c0.449,1.88,2.336,3.041,4.216,2.591
		c1.877-0.445,3.04-2.332,2.591-4.211C32.459,11.515,30.57,10.353,28.692,10.801z"/>
	<path fill="#333333" d="M36.692,10.801c-1.882,0.447-3.044,2.336-2.596,4.216c0.449,1.88,2.336,3.041,4.216,2.591
		c1.877-0.445,3.04-2.332,2.591-4.211C40.459,11.515,38.57,10.353,36.692,10.801z"/>
	<polygon fill="#666666" points="25,14.204 20,10.704 20,13.204 15,13.204 15,15.204 20,15.204 20,17.704 	"/>
	<path fill="#333333" d="M31.329,24.775c0.44-0.614,0.802-1.263,0.976-1.939c0.143-0.557-0.124-1.096-0.717-1.244
		c-1.207-0.303-13.909-0.477-15.502,0c-1.555,0.465-0.081,2.492,0.406,3.181c1.177,1.661,2.613,3.124,4.082,4.525
		c0.331,0.316,0.661,0.631,0.984,0.953c0.519,0.519,0.921,0.747,0.909,1.552c-0.011,0.775,0.009,1.596,0.012,2.373
		c0.002,0.869-0.001,1.738,0.001,2.606c0,0.042,0.042,0.489,0.001,0.514c0.001-0.001,2.711-1.53,2.711-1.53
		c0-0.6,0.006-1.198,0-1.798c-0.006-0.596,0-1.244,0.006-1.858c0.004-0.405,0.001-0.795,0.231-1.152
		c0.214-0.335,0.461-0.486,0.743-0.754c0.083-0.079,0.167-0.157,0.25-0.236c0.654,0.688,1.573,1.123,2.596,1.123
		c1.982,0,3.589-1.608,3.589-3.59C32.608,26.402,32.105,25.434,31.329,24.775z M29.019,29.743c-0.643,0-1.219-0.274-1.628-0.708
		c0.612-0.587,1.215-1.184,1.795-1.804c0.406-0.435,0.865-0.907,1.307-1.411c0.468,0.411,0.769,1.008,0.769,1.68
		C31.262,28.739,30.258,29.743,29.019,29.743z"/>
</g>
</svg>
