<?xml version="1.0" encoding="utf-8"?>
<!-- Generator: Adobe Illustrator 16.1.0, SVG Export Plug-In . SVG Version: 6.00 Build 0)  -->
<!DOCTYPE svg PUBLIC "-//W3C//DTD SVG 1.1//EN" "http://www.w3.org/Graphics/SVG/1.1/DTD/svg11.dtd">
<svg version="1.1" id="Layer_1" xmlns="http://www.w3.org/2000/svg" xmlns:xlink="http://www.w3.org/1999/xlink" x="0px" y="0px"
	 width="48px" height="48px" viewBox="0 0 48 48" enable-background="new 0 0 48 48" xml:space="preserve">
<g>
	<g>
		<path fill="#333333" d="M12.192,20.596c-1.883,0.446-3.045,2.336-2.596,4.216c0.45,1.88,2.336,3.042,4.216,2.591
			c1.877-0.444,3.04-2.331,2.591-4.211C15.959,21.309,14.07,20.147,12.192,20.596z"/>
	</g>
	<g>
		<path fill="#989898" d="M23.192,20.596c-1.882,0.447-3.044,2.336-2.596,4.216c0.449,1.88,2.336,3.042,4.216,2.591
			c1.877-0.445,3.04-2.332,2.591-4.211C26.959,21.31,25.07,20.148,23.192,20.596z"/>
	</g>
	<g>
		<path fill="#666666" d="M34.192,20.596c-1.882,0.447-3.044,2.336-2.596,4.216c0.449,1.88,2.336,3.042,4.216,2.591
			c1.877-0.445,3.04-2.332,2.591-4.211C37.959,21.31,36.07,20.148,34.192,20.596z"/>
	</g>
</g>
</svg>
