<?xml version="1.0" encoding="utf-8"?>
<!-- Generator: Adobe Illustrator 16.0.0, SVG Export Plug-In . SVG Version: 6.00 Build 0)  -->
<!DOCTYPE svg PUBLIC "-//W3C//DTD SVG 1.1//EN" "http://www.w3.org/Graphics/SVG/1.1/DTD/svg11.dtd">
<svg version="1.1" id="Layer_1" xmlns="http://www.w3.org/2000/svg" xmlns:xlink="http://www.w3.org/1999/xlink" x="0px" y="0px"
	 width="48px" height="48px" viewBox="0 0 48 48" enable-background="new 0 0 48 48" xml:space="preserve">
<g>
	<g>
		<rect x="20.231" y="24.662" fill="#B2B2B2" width="25" height="2"/>
		
			<rect x="6.994" y="14.755" transform="matrix(-0.2976 -0.9547 0.9547 -0.2976 8.2487 37.5785)" fill="#B2B2B2" width="21.909" height="1.999"/>
		
			<rect x="-0.299" y="32.567" transform="matrix(0.7645 -0.6446 0.6446 0.7645 -18.766 15.7684)" fill="#B2B2B2" width="24.993" height="2"/>
	</g>
	<circle fill="#989898" cx="19.231" cy="8.002" r="2.999"/>
	<circle fill="#989898" cx="10.231" cy="9.002" r="2.999"/>
	<circle fill="#989898" cx="15.231" cy="14.002" r="2.999"/>
	<circle fill="#666666" cx="28.231" cy="23.002" r="2.999"/>
	<circle fill="#666666" cx="34.231" cy="19.002" r="2.999"/>
	<circle fill="#666666" cx="37.231" cy="26.002" r="2.999"/>
	<circle fill="#666666" cx="43.231" cy="19.002" r="2.999"/>
	<circle fill="#333333" cx="16.231" cy="33" r="2.999"/>
	<circle fill="#333333" cx="8.231" cy="32" r="2.999"/>
	<circle fill="#333333" cx="9.231" cy="39.998" r="2.999"/>
	<circle fill="#333333" cx="18.231" cy="40" r="2.999"/>
</g>
</svg>
