<?xml version="1.0" encoding="utf-8"?>
<!-- Generator: Adobe Illustrator 16.0.0, SVG Export Plug-In . SVG Version: 6.00 Build 0)  -->
<!DOCTYPE svg PUBLIC "-//W3C//DTD SVG 1.1//EN" "http://www.w3.org/Graphics/SVG/1.1/DTD/svg11.dtd">
<svg version="1.1" id="Layer_1" xmlns="http://www.w3.org/2000/svg" xmlns:xlink="http://www.w3.org/1999/xlink" x="0px" y="0px"
	 width="48px" height="48px" viewBox="0 0 48 48" enable-background="new 0 0 48 48" xml:space="preserve">
<g>
	<rect x="5" y="5" fill="#B2B2B2" width="2" height="38"/>
	<rect x="17" y="5" fill="#B2B2B2" width="2" height="38"/>
	<rect x="29" y="5" fill="#B2B2B2" width="2" height="38"/>
	<rect x="41" y="5" fill="#B2B2B2" width="2" height="38"/>
	<polyline fill="none" stroke="#666666" stroke-linecap="square" stroke-miterlimit="10" points="6,8 18,25 30,8 42,13 	"/>
	<polyline fill="none" stroke="#666666" stroke-linecap="square" stroke-miterlimit="10" points="6,11 18,28 30,12 42,10 	"/>
	<polyline fill="none" stroke="#989898" stroke-linecap="square" stroke-miterlimit="10" points="6,27 18,39 30,22 42,26 	"/>
	<polyline fill="none" stroke="#989898" stroke-linecap="square" stroke-miterlimit="10" points="6,25 18,37 30,20 42,24 	"/>
	<polyline fill="none" stroke="#333333" stroke-linecap="square" stroke-miterlimit="10" points="6,30 18,8 30,38 42,35 	"/>
	<polyline fill="none" stroke="#333333" stroke-linecap="square" stroke-miterlimit="10" points="6,33 18,14 30,40 42,38 	"/>
</g>
</svg>
