<?xml version="1.0" encoding="utf-8"?>
<!-- Generator: Adobe Illustrator 16.0.0, SVG Export Plug-In . SVG Version: 6.00 Build 0)  -->
<!DOCTYPE svg PUBLIC "-//W3C//DTD SVG 1.1//EN" "http://www.w3.org/Graphics/SVG/1.1/DTD/svg11.dtd">
<svg version="1.1" id="Layer_1" xmlns="http://www.w3.org/2000/svg" xmlns:xlink="http://www.w3.org/1999/xlink" x="0px" y="0px"
	 width="48px" height="48px" viewBox="0 0 48 48" enable-background="new 0 0 48 48" xml:space="preserve">
<g>
	<circle fill="#666666" cx="24.999" cy="30.103" r="2.999"/>
	<circle fill="#666666" cx="32.069" cy="30.111" r="2.999"/>
	<circle fill="#666666" cx="27.534" cy="36.573" r="3"/>
	<path fill="#B2B2B2" d="M28.341,4.176l14.423,19.853L28.341,43.881L5,36.299V11.758L28.341,4.176 M28.723,3L4,11.031v25.994
		l24.723,8.031L44,24.028L28.723,3L28.723,3z"/>
	<circle fill="#333333" cx="14" cy="24.102" r="2.998"/>
	<circle fill="#333333" cx="10" cy="17.103" r="2.999"/>
	<circle fill="#333333" cx="10.999" cy="31.102" r="3"/>
	<circle fill="#989898" cx="23.999" cy="19.102" r="2.999"/>
	<path fill="#989898" d="M27.304,16.573c1.366,0.94,3.233,0.592,4.171-0.775c0.937-1.367,0.588-3.232-0.777-4.17
		c-1.367-0.936-3.233-0.59-4.17,0.775C25.589,13.771,25.938,15.64,27.304,16.573z"/>
	<path fill="#989898" d="M21.075,13.576c1.366,0.938,3.234,0.589,4.171-0.776c0.938-1.366,0.588-3.233-0.779-4.17
		c-1.363-0.938-3.232-0.592-4.168,0.775C19.361,10.772,19.709,12.64,21.075,13.576z"/>
</g>
</svg>
