<?xml version="1.0" encoding="utf-8"?>
<!-- Generator: Adobe Illustrator 16.1.0, SVG Export Plug-In . SVG Version: 6.00 Build 0)  -->
<!DOCTYPE svg PUBLIC "-//W3C//DTD SVG 1.1//EN" "http://www.w3.org/Graphics/SVG/1.1/DTD/svg11.dtd">
<svg version="1.1" id="Layer_1" xmlns="http://www.w3.org/2000/svg" xmlns:xlink="http://www.w3.org/1999/xlink" x="0px" y="0px"
	 width="48px" height="48px" viewBox="0 0 48 48" enable-background="new 0 0 48 48" xml:space="preserve">
<g>
	<circle fill="#666666" cx="24.999" cy="30.074" r="2.999"/>
</g>
<g>
	<circle fill="#666666" cx="32.069" cy="30.083" r="2.999"/>
</g>
<g>
	<circle fill="#666666" cx="27.534" cy="36.544" r="3"/>
</g>
<path fill="#B2B2B2" d="M28.722,2.972L4,11.003v25.994l24.722,8.031L44,24L28.722,2.972z M28.34,43.853L5,36.271V11.729l23.34-7.582
	L42.764,24L28.34,43.853z"/>
<g>
	<circle fill="#333333" cx="14" cy="24.074" r="2.998"/>
</g>
<g>
	<circle fill="#333333" cx="10" cy="17.074" r="2.999"/>
</g>
<g>
	<circle fill="#333333" cx="10.999" cy="31.074" r="2.999"/>
</g>
<g>
	<circle fill="#989898" cx="23.999" cy="19.073" r="2.999"/>
</g>
<g>
	<path fill="#989898" d="M27.304,16.545c1.366,0.94,3.234,0.592,4.171-0.775c0.937-1.367,0.588-3.232-0.778-4.17
		c-1.367-0.936-3.233-0.59-4.169,0.775C25.589,13.742,25.937,15.611,27.304,16.545z"/>
</g>
<g>
	<path fill="#989898" d="M21.075,13.548c1.366,0.938,3.234,0.589,4.171-0.776c0.938-1.366,0.588-3.233-0.779-4.17
		c-1.363-0.938-3.232-0.592-4.168,0.775C19.361,10.744,19.709,12.611,21.075,13.548z"/>
</g>
</svg>
