<?xml version="1.0" encoding="utf-8"?>
<!-- Generator: Adobe Illustrator 16.0.0, SVG Export Plug-In . SVG Version: 6.00 Build 0)  -->
<!DOCTYPE svg PUBLIC "-//W3C//DTD SVG 1.1//EN" "http://www.w3.org/Graphics/SVG/1.1/DTD/svg11.dtd">
<svg version="1.1" id="Layer_1" xmlns="http://www.w3.org/2000/svg" xmlns:xlink="http://www.w3.org/1999/xlink" x="0px" y="0px"
	 width="48px" height="48px" viewBox="0 0 48 48" enable-background="new 0 0 48 48" xml:space="preserve">
<g>
	<g>
		<path fill="#B2B2B2" d="M24,5c10.477,0,19,8.523,19,19s-8.523,19-19,19S5,34.477,5,24S13.523,5,24,5 M24,4C12.954,4,4,12.954,4,24
			s8.954,20,20,20s20-8.954,20-20S35.046,4,24,4L24,4z"/>
	</g>
	<circle fill="#989898" cx="24" cy="15" r="2.999"/>
	<circle fill="#989898" cx="31" cy="13.002" r="2.999"/>
	<circle fill="#989898" cx="17" cy="12.002" r="2.999"/>
	<circle fill="#333333" cx="16" cy="35" r="2.999"/>
	<circle fill="#333333" cx="18.998" cy="27" r="2.999"/>
	<path fill="#333333" d="M12.656,31.926c1.617-0.362,2.633-1.969,2.27-3.584c-0.363-1.617-1.969-2.632-3.586-2.268
		c-1.613,0.362-2.633,1.966-2.268,3.582C9.436,31.274,11.041,32.29,12.656,31.926z"/>
	<circle fill="#666666" cx="36.001" cy="32.001" r="2.999"/>
	<circle fill="#666666" cx="29.002" cy="33.001" r="2.999"/>
	<circle fill="#666666" cx="35.002" cy="25" r="3"/>
	<rect x="23" y="2" fill="#B2B2B2" width="2" height="5"/>
	<rect x="2" y="23" fill="#B2B2B2" width="5" height="2"/>
	<rect x="41" y="23" fill="#B2B2B2" width="5" height="2"/>
	<rect x="23" y="41" fill="#B2B2B2" width="2" height="5"/>
</g>
</svg>
