<?xml version="1.0" encoding="utf-8"?>
<!-- Generator: Adobe Illustrator 16.1.0, SVG Export Plug-In . SVG Version: 6.00 Build 0)  -->
<!DOCTYPE svg PUBLIC "-//W3C//DTD SVG 1.1//EN" "http://www.w3.org/Graphics/SVG/1.1/DTD/svg11.dtd">
<svg version="1.1" id="Layer_1" xmlns="http://www.w3.org/2000/svg" xmlns:xlink="http://www.w3.org/1999/xlink" x="0px" y="0px"
	 width="48px" height="48px" viewBox="0 0 48 48" enable-background="new 0 0 48 48" xml:space="preserve">
<g>
	<polygon fill="none" points="7.748,42.225 16.316,37.811 7.748,35.24 	"/>
	<polygon fill="none" points="9.531,33.687 16.523,35.784 15.741,31.247 	"/>
	<polygon fill="none" points="34.328,22.87 29.814,19.998 25.619,26.292 	"/>
	<polygon fill="none" points="12.463,12.23 8.462,33.031 15.568,30.24 	"/>
	<polygon fill="none" points="22.363,27.57 28.127,18.925 20.615,14.145 18.76,28.986 	"/>
	<polygon fill="none" points="16.519,29.867 17.7,29.402 19.682,13.55 13.023,9.313 12.997,9.45 	"/>
	<polygon fill="none" points="17.17,33.645 17.559,30.533 16.691,30.873 	"/>
	<polygon fill="none" points="7.748,5.957 7.748,26.153 11.209,8.159 	"/>
	<polygon fill="none" points="32.551,24.643 24.648,27.747 19.427,35.579 	"/>
	<polygon fill="none" points="39.246,26 35.412,23.561 21.539,35.121 	"/>
	<polygon fill="none" points="18.618,30.117 18.146,33.897 21.393,29.026 	"/>
	<polygon fill="#666666" points="24.648,27.747 32.551,24.643 19.427,35.579 18.787,36.538 21.539,35.121 35.412,23.561 
		34.328,22.87 25.619,26.292 	"/>
	<polygon fill="#666666" points="21.393,29.026 22.363,27.57 18.76,28.986 18.618,30.117 	"/>
	<polygon fill="#666666" points="17.559,30.533 17.7,29.402 16.519,29.867 16.691,30.873 	"/>
	<polygon fill="#666666" points="15.568,30.24 8.462,33.031 8.401,33.348 9.531,33.687 15.741,31.247 	"/>
	<polygon fill="#333333" points="12.997,9.45 13.023,9.313 12.968,9.278 	"/>
	<path fill="#333333" d="M28.127,18.925l-5.764,8.646l-0.971,1.456l-3.247,4.871l0.473-3.78l0.142-1.131l1.855-14.842l-0.934-0.595
		L17.7,29.402l-0.142,1.131l-0.389,3.111l-0.479-2.771l-0.173-1.006L12.997,9.45l-0.029-0.172l-1.14-0.725l-0.619-0.395
		L7.748,26.153v7.159v1.075v0.853l8.568,2.57l1.133-0.583l0.23-0.118l0.068-0.036l1.039-0.535l0.64-0.959l5.222-7.832l0.971-1.455
		l4.195-6.294L28.127,18.925z M9.531,33.687l-1.13-0.339l0.061-0.316l4.001-20.801l3.105,18.01l0.173,1.007l0.782,4.537
		L9.531,33.687z"/>
	<path fill="#B2B2B2" d="M6.748,4.135v39.73l34.504-17.773L6.748,4.135z M18.787,36.538l-1.039,0.535l-0.068,0.036l-0.23,0.118
		l-1.133,0.583l-8.568,4.414V35.24v-0.853v-1.075v-7.159V5.957l3.461,2.202l0.619,0.395l1.14,0.725l0.056,0.035l6.658,4.236
		l0.934,0.595l7.512,4.78l1.688,1.073l4.514,2.872l1.084,0.69L39.246,26l-17.707,9.121L18.787,36.538z"/>
</g>
</svg>
