<?xml version="1.0" encoding="utf-8"?>
<!-- Generator: Adobe Illustrator 16.0.0, SVG Export Plug-In . SVG Version: 6.00 Build 0)  -->
<!DOCTYPE svg PUBLIC "-//W3C//DTD SVG 1.1//EN" "http://www.w3.org/Graphics/SVG/1.1/DTD/svg11.dtd">
<svg version="1.1" id="Layer_1" xmlns="http://www.w3.org/2000/svg" xmlns:xlink="http://www.w3.org/1999/xlink" x="0px" y="0px"
	 width="48px" height="48px" viewBox="0 0 48 48" enable-background="new 0 0 48 48" xml:space="preserve">
<g>
	<rect x="7" y="28" fill="#666666" width="14" height="13"/>
	<rect x="22" y="12" fill="#333333" width="19" height="9"/>
	<rect x="22" y="23" fill="#666666" width="19" height="18"/>
	<rect x="22" y="7" fill="#333333" width="19" height="3"/>
	<rect x="7" y="7" fill="#333333" width="14" height="19"/>
	<rect x="11" y="28" fill="#989898" width="1" height="13"/>
	<rect x="16" y="28" fill="#989898" width="1" height="13"/>
	<rect x="11" y="7" fill="#666666" width="1" height="19"/>
	<rect x="16" y="7" fill="#666666" width="1" height="19"/>
	<rect x="26" y="7" fill="#666666" width="1" height="3"/>
	<rect x="31" y="7" fill="#666666" width="1" height="3"/>
	<rect x="36" y="7" fill="#666666" width="1" height="3"/>
	<rect x="26" y="12" fill="#666666" width="1" height="9"/>
	<rect x="31" y="12" fill="#666666" width="1" height="9"/>
	<rect x="36" y="12" fill="#666666" width="1" height="9"/>
	<rect x="26" y="23" fill="#989898" width="1" height="18"/>
	<rect x="31" y="23" fill="#989898" width="1" height="18"/>
	<rect x="36" y="23" fill="#989898" width="1" height="18"/>
	<rect x="7" y="37" fill="#989898" width="14" height="1"/>
	<rect x="7" y="32" fill="#989898" width="14" height="1"/>
	<rect x="22" y="37" fill="#989898" width="19" height="1"/>
	<rect x="22" y="32" fill="#989898" width="19" height="1"/>
	<rect x="22" y="27" fill="#989898" width="19" height="1"/>
	<rect x="22" y="16" fill="#666666" width="19" height="1"/>
	<rect x="7" y="21" fill="#666666" width="14" height="1"/>
	<rect x="7" y="16" fill="#666666" width="14" height="1"/>
	<rect x="7" y="11" fill="#666666" width="14" height="1"/>
</g>
</svg>
