<?xml version="1.0" encoding="utf-8"?>
<!-- Generator: Adobe Illustrator 16.0.0, SVG Export Plug-In . SVG Version: 6.00 Build 0)  -->
<!DOCTYPE svg PUBLIC "-//W3C//DTD SVG 1.1//EN" "http://www.w3.org/Graphics/SVG/1.1/DTD/svg11.dtd">
<svg version="1.1" id="Layer_1" xmlns="http://www.w3.org/2000/svg" xmlns:xlink="http://www.w3.org/1999/xlink" x="0px" y="0px"
	 width="48px" height="48px" viewBox="0 0 48 48" enable-background="new 0 0 48 48" xml:space="preserve">
<g>
	<g>
		<polygon fill="#666666" points="17.507,37.92 17.18,37.527 32.803,24.508 7.683,34.377 7.317,33.445 35.317,22.445 35.82,23.295 
			18.85,37.438 		"/>
	</g>
	<g>
		<polygon fill="#333333" points="17.213,37.869 7.617,34.99 7.486,28.689 11.518,7.723 13.199,8.045 13.36,8.733 8.653,33.213 
			17.079,35.74 28.668,18.356 30.332,19.466 18.332,37.466 		"/>
	</g>
	<g>
		<polygon fill="#333333" points="17.007,36.996 12.007,7.996 12.5,7.911 13.061,8.227 17.421,33.511 20.004,12.849 20.996,12.974 
			17.996,36.974 		"/>
	</g>
	<g>
		<path fill="#B2B2B2" d="M7,43.731V4l34.503,21.957L7,43.731z M8,5.822v36.269l31.497-16.226L8,5.822z"/>
	</g>
</g>
</svg>
