<?xml version="1.0" encoding="utf-8"?>
<!-- Generator: Adobe Illustrator 16.1.0, SVG Export Plug-In . SVG Version: 6.00 Build 0)  -->
<!DOCTYPE svg PUBLIC "-//W3C//DTD SVG 1.1//EN" "http://www.w3.org/Graphics/SVG/1.1/DTD/svg11.dtd">
<svg version="1.1" id="Layer_1" xmlns="http://www.w3.org/2000/svg" xmlns:xlink="http://www.w3.org/1999/xlink" x="0px" y="0px"
	 width="48px" height="48px" viewBox="0 0 48 48" enable-background="new 0 0 48 48" xml:space="preserve">
<polygon fill="#989898" points="33,6 33,8 33,10 34,10 34,12 33,12 33,14 33,16 34,16 34,18 42,18 42,16 43,16 43,14 43,12 42,12 
	42,10 43,10 43,8 43,6 "/>
<polygon fill="#333333" points="34,18 34,20 34,22 35,22 35,24 34,24 34,26 34,28 34,30 42,30 42,28 42,26 42,24 41,24 41,22 42,22 
	42,20 42,18 "/>
<polygon fill="#989898" points="27,10 27,8 27,6 21,6 21,8 21,10 20,10 20,12 21,12 21,14 21,16 21,18 27,18 27,16 27,14 27,12 
	28,12 28,10 "/>
<polygon fill="#333333" points="28,24 28,22 27,22 27,20 27,18 21,18 21,20 21,22 20,22 20,24 22,24 22,26 21,26 21,28 22,28 22,30 
	26,30 26,28 27,28 27,26 26,26 26,24 "/>
<polygon fill="#666666" points="27,32 28,32 28,30 20,30 20,32 21,32 21,34 21,36 20,36 20,38 20,40 21,40 21,42 27,42 27,40 28,40 
	28,38 28,36 27,36 27,34 "/>
<polygon fill="#666666" points="40,32 40,30 36,30 36,32 35,32 35,34 36,34 36,36 36,38 36,40 36,42 40,42 40,40 40,38 40,36 40,34 
	41,34 41,32 "/>
<polygon fill="#666666" points="12,32 12,30 8,30 8,32 7,32 7,34 7,36 8,36 8,38 8,40 7,40 7,42 13,42 13,40 12,40 12,38 12,36 
	13,36 13,34 13,32 "/>
<polygon fill="#333333" points="14,24 14,22 13,22 13,20 13,18 7,18 7,20 7,22 6,22 6,24 7,24 7,26 6,26 6,28 7,28 7,30 13,30 
	13,28 14,28 14,26 13,26 13,24 "/>
<polygon fill="#989898" points="15,8 15,6 5,6 5,8 7,8 7,10 5,10 5,12 6,12 6,14 6,16 5,16 5,18 15,18 15,16 14,16 14,14 14,12 
	15,12 15,10 13,10 13,8 "/>
</svg>
