<?xml version="1.0" encoding="utf-8"?>
<!-- Generator: Adobe Illustrator 16.0.0, SVG Export Plug-In . SVG Version: 6.00 Build 0)  -->
<!DOCTYPE svg PUBLIC "-//W3C//DTD SVG 1.1//EN" "http://www.w3.org/Graphics/SVG/1.1/DTD/svg11.dtd">
<svg version="1.1" id="Layer_1" xmlns="http://www.w3.org/2000/svg" xmlns:xlink="http://www.w3.org/1999/xlink" x="0px" y="0px"
	 width="48px" height="48px" viewBox="0 0 48 48" enable-background="new 0 0 48 48" xml:space="preserve">
<g>
	<rect x="5" y="6" fill="#989898" width="10" height="2"/>
	<rect x="5" y="10" fill="#989898" width="10" height="2"/>
	<rect x="33" y="6" fill="#989898" width="10" height="2"/>
	<rect x="33" y="8" fill="#989898" width="10" height="2"/>
	<rect x="33" y="12" fill="#989898" width="10" height="2"/>
	<rect x="33" y="14" fill="#989898" width="10" height="2"/>
	<rect x="34" y="10" fill="#989898" width="8" height="2"/>
	<rect x="34" y="16" fill="#989898" width="8" height="2"/>
	<rect x="34" y="18" fill="#333333" width="8" height="2"/>
	<rect x="34" y="20" fill="#333333" width="8" height="2"/>
	<rect x="35" y="22" fill="#333333" width="6" height="2"/>
	<rect x="34" y="24" fill="#333333" width="8" height="2"/>
	<rect x="34" y="26" fill="#333333" width="8" height="2"/>
	<rect x="34" y="28" fill="#333333" width="8" height="2"/>
	<rect x="7" y="8" fill="#989898" width="6" height="2"/>
	<rect x="6" y="12" fill="#989898" width="8" height="2"/>
	<rect x="6" y="14" fill="#989898" width="8" height="2"/>
	<rect x="20" y="10" fill="#989898" width="8" height="2"/>
	<rect x="21" y="8" fill="#989898" width="6" height="2"/>
	<rect x="21" y="6" fill="#989898" width="6" height="2"/>
	<rect x="21" y="12" fill="#989898" width="6" height="2"/>
	<rect x="21" y="14" fill="#989898" width="6" height="2"/>
	<rect x="21" y="32" fill="#666666" width="6" height="2"/>
	<rect x="21" y="34" fill="#666666" width="6" height="2"/>
	<rect x="21" y="40" fill="#666666" width="6" height="2"/>
	<rect x="21" y="16" fill="#989898" width="6" height="2"/>
	<rect x="21" y="18" fill="#333333" width="6" height="2"/>
	<rect x="7" y="18" fill="#333333" width="6" height="2"/>
	<rect x="7" y="20" fill="#333333" width="6" height="2"/>
	<rect x="21" y="20" fill="#333333" width="6" height="2"/>
	<rect x="21" y="26" fill="#333333" width="6" height="2"/>
	<rect x="22" y="24" fill="#333333" width="4" height="2"/>
	<rect x="22" y="28" fill="#333333" width="4" height="2"/>
	<rect x="20" y="22" fill="#333333" width="8" height="2"/>
	<rect x="20" y="30" fill="#666666" width="8" height="2"/>
	<rect x="20" y="38" fill="#666666" width="8" height="2"/>
	<rect x="20" y="36" fill="#666666" width="8" height="2"/>
	<rect x="6" y="22" fill="#333333" width="8" height="2"/>
	<rect x="7" y="24" fill="#333333" width="6" height="2"/>
	<rect x="7" y="28" fill="#333333" width="6" height="2"/>
	<rect x="8" y="30" fill="#666666" width="4" height="2"/>
	<rect x="7" y="32" fill="#666666" width="6" height="2"/>
	<rect x="7" y="34" fill="#666666" width="6" height="2"/>
	<rect x="8" y="36" fill="#666666" width="4" height="2"/>
	<rect x="8" y="38" fill="#666666" width="4" height="2"/>
	<rect x="36" y="30" fill="#666666" width="4" height="2"/>
	<rect x="36" y="36" fill="#666666" width="4" height="2"/>
	<rect x="36" y="34" fill="#666666" width="4" height="2"/>
	<rect x="35" y="32" fill="#666666" width="6" height="2"/>
	<rect x="36" y="38" fill="#666666" width="4" height="2"/>
	<rect x="36" y="40" fill="#666666" width="4" height="2"/>
	<rect x="7" y="40" fill="#666666" width="6" height="2"/>
	<rect x="6" y="26" fill="#333333" width="8" height="2"/>
	<rect x="5" y="16" fill="#989898" width="10" height="2"/>
</g>
</svg>
