<?xml version="1.0" encoding="utf-8"?>
<!-- Generator: Adobe Illustrator 16.0.0, SVG Export Plug-In . SVG Version: 6.00 Build 0)  -->
<!DOCTYPE svg PUBLIC "-//W3C//DTD SVG 1.1//EN" "http://www.w3.org/Graphics/SVG/1.1/DTD/svg11.dtd">
<svg version="1.1" id="Layer_1" xmlns="http://www.w3.org/2000/svg" xmlns:xlink="http://www.w3.org/1999/xlink" x="0px" y="0px"
	 width="48px" height="48px" viewBox="0 0 48 48" enable-background="new 0 0 48 48" xml:space="preserve">
<g>
	<line fill="none" stroke="#989898" stroke-width="2" stroke-miterlimit="10" x1="28.981" y1="27.222" x2="19.298" y2="29.24"/>
	<line fill="none" stroke="#989898" stroke-width="2" stroke-miterlimit="10" x1="28.981" y1="27.222" x2="34.155" y2="33.373"/>
	<line fill="none" stroke="#666666" stroke-width="2" stroke-miterlimit="10" x1="28.981" y1="27.222" x2="28.606" y2="20.534"/>
	<linearGradient id="SVGID_1_" gradientUnits="userSpaceOnUse" x1="24" y1="43.001" x2="24" y2="37">
		<stop  offset="0" style="stop-color:#999999"/>
		<stop  offset="1" style="stop-color:#666666"/>
	</linearGradient>
	<circle fill="url(#SVGID_1_)" cx="24" cy="40.002" r="2.999"/>
	<linearGradient id="SVGID_2_" gradientUnits="userSpaceOnUse" x1="10" y1="25.001" x2="10" y2="19.001">
		<stop  offset="0" style="stop-color:#999999"/>
		<stop  offset="1" style="stop-color:#666666"/>
	</linearGradient>
	<path fill="url(#SVGID_2_)" d="M12.917,21.308c-0.383-1.612-2.001-2.608-3.613-2.225c-1.611,0.385-2.606,2.002-2.222,3.615
		c0.383,1.608,2,2.604,3.611,2.221C12.306,24.536,13.302,22.917,12.917,21.308z"/>
	<linearGradient id="SVGID_3_" gradientUnits="userSpaceOnUse" x1="40.0005" y1="25.002" x2="40.0005" y2="19.001">
		<stop  offset="0" style="stop-color:#666666"/>
		<stop  offset="1" style="stop-color:#333333"/>
	</linearGradient>
	<circle fill="url(#SVGID_3_)" cx="40" cy="22.003" r="2.999"/>
	<linearGradient id="SVGID_4_" gradientUnits="userSpaceOnUse" x1="28" y1="21.002" x2="28" y2="15.001">
		<stop  offset="0" style="stop-color:#666666"/>
		<stop  offset="1" style="stop-color:#333333"/>
	</linearGradient>
	<circle fill="url(#SVGID_4_)" cx="28" cy="18.003" r="2.999"/>
	<linearGradient id="SVGID_5_" gradientUnits="userSpaceOnUse" x1="7" y1="36.001" x2="7" y2="30.001">
		<stop  offset="0" style="stop-color:#999999"/>
		<stop  offset="1" style="stop-color:#666666"/>
	</linearGradient>
	<circle fill="url(#SVGID_5_)" cx="7" cy="33.003" r="2.999"/>
	<linearGradient id="SVGID_6_" gradientUnits="userSpaceOnUse" x1="36" y1="13.002" x2="36" y2="7.001">
		<stop  offset="0" style="stop-color:#666666"/>
		<stop  offset="1" style="stop-color:#333333"/>
	</linearGradient>
	<circle fill="url(#SVGID_6_)" cx="36" cy="10.003" r="2.999"/>
	<linearGradient id="SVGID_7_" gradientUnits="userSpaceOnUse" x1="12.0005" y1="12.001" x2="12.0005" y2="6">
		<stop  offset="0" style="stop-color:#666666"/>
		<stop  offset="1" style="stop-color:#333333"/>
	</linearGradient>
	<circle fill="url(#SVGID_7_)" cx="12" cy="9.001" r="2.999"/>
	<linearGradient id="SVGID_8_" gradientUnits="userSpaceOnUse" x1="24" y1="11.001" x2="24" y2="4.999">
		<stop  offset="0" style="stop-color:#666666"/>
		<stop  offset="1" style="stop-color:#333333"/>
	</linearGradient>
	<circle fill="url(#SVGID_8_)" cx="24" cy="8.001" r="2.999"/>
	<linearGradient id="SVGID_9_" gradientUnits="userSpaceOnUse" x1="35" y1="37.002" x2="35" y2="31.001">
		<stop  offset="0" style="stop-color:#999999"/>
		<stop  offset="1" style="stop-color:#666666"/>
	</linearGradient>
	<circle fill="url(#SVGID_9_)" cx="35" cy="34.003" r="2.999"/>
	<linearGradient id="SVGID_10_" gradientUnits="userSpaceOnUse" x1="18" y1="32.002" x2="18" y2="26.001">
		<stop  offset="0" style="stop-color:#999999"/>
		<stop  offset="1" style="stop-color:#666666"/>
	</linearGradient>
	<circle fill="url(#SVGID_10_)" cx="18" cy="29.003" r="2.999"/>
	<circle fill="#333333" cx="29" cy="27.002" r="2.999"/>
</g>
</svg>
