<?xml version="1.0" encoding="utf-8"?>
<!-- Generator: Adobe Illustrator 16.0.0, SVG Export Plug-In . SVG Version: 6.00 Build 0)  -->
<!DOCTYPE svg PUBLIC "-//W3C//DTD SVG 1.1//EN" "http://www.w3.org/Graphics/SVG/1.1/DTD/svg11.dtd">
<svg version="1.1" id="Layer_1" xmlns="http://www.w3.org/2000/svg" xmlns:xlink="http://www.w3.org/1999/xlink" x="0px" y="0px"
	 width="48px" height="48px" viewBox="0 0 48 48" enable-background="new 0 0 48 48" xml:space="preserve">
<g>
	<rect x="23" y="14.52" fill="#666666" width="2" height="18"/>
	<g>
		<path fill="#333333" d="M9.411,32.52c-1.736,0-0.411,0-3.411,0v-2c11.109,0.562,11.457-5.511,13.695-11.479
			C21.01,15.533,21.959,13,24,13c2.043,0,3.111,2.593,4.59,6.181C31.57,26.416,34,30.52,42,30.507v2.013
			c-11,0-12.812-6.641-15.26-12.577C25.93,17.975,25.125,15.011,24,15c-1.266-0.012-1.725,2.854-2.433,4.742
			C19.607,24.971,18.226,32.05,9.411,32.52z"/>
	</g>
	<rect x="6" y="32.52" fill="#B2B2B2" width="36" height="2"/>
</g>
</svg>
