<?xml version="1.0" encoding="utf-8"?>
<!-- Generator: Adobe Illustrator 16.1.0, SVG Export Plug-In . SVG Version: 6.00 Build 0)  -->
<!DOCTYPE svg PUBLIC "-//W3C//DTD SVG 1.1//EN" "http://www.w3.org/Graphics/SVG/1.1/DTD/svg11.dtd">
<svg version="1.1" id="Layer_1" xmlns="http://www.w3.org/2000/svg" xmlns:xlink="http://www.w3.org/1999/xlink" x="0px" y="0px"
	 width="48px" height="48px" viewBox="0 0 48 48" enable-background="new 0 0 48 48" xml:space="preserve">
<path fill="none" d="M8.684,40H19V27.706C13.517,32.328,10.11,37.54,8.684,40z"/>
<path fill="none" d="M22.793,22.492L8,31.193v6.104C10.461,33.473,15.339,27.085,22.793,22.492z"/>
<path fill="none" d="M21,40h5V22.969c-1.803,0.949-3.473,2.012-5,3.147V40z"/>
<path fill="#333333" d="M19,27.706V40h2V26.116C20.303,26.635,19.64,27.167,19,27.706z"/>
<path fill="#333333" d="M26,22.969V40h2V21.996C27.315,22.303,26.648,22.628,26,22.969z"/>
<path fill="#666666" d="M23.655,21.984l-0.862,0.508C15.339,27.085,10.461,33.473,8,37.298V40h0.684
	C10.11,37.54,13.517,32.328,19,27.706c0.64-0.539,1.303-1.071,2-1.59c1.527-1.135,3.197-2.198,5-3.147
	c0.648-0.341,1.315-0.667,2-0.974C32.037,20.183,36.693,19,42,19v-2C34.752,17,28.657,19.074,23.655,21.984z"/>
<path fill="#333333" d="M22.793,22.492c0.281-0.174,0.573-0.339,0.862-0.508l17.869-10.511L40.511,9.75L8,28.873v2.32L22.793,22.492
	z"/>
<polygon fill="#B2B2B2" points="28,40 26,40 21,40 19,40 8.684,40 8,40 8,37.298 8,31.193 8,28.873 8,6 6,6 6,40 6,42 8,42 42,42 
	42,40 "/>
</svg>
