<?xml version="1.0" encoding="utf-8"?>
<!-- Generator: Adobe Illustrator 16.0.0, SVG Export Plug-In . SVG Version: 6.00 Build 0)  -->
<!DOCTYPE svg PUBLIC "-//W3C//DTD SVG 1.1//EN" "http://www.w3.org/Graphics/SVG/1.1/DTD/svg11.dtd">
<svg version="1.1" id="Layer_1" xmlns="http://www.w3.org/2000/svg" xmlns:xlink="http://www.w3.org/1999/xlink" x="0px" y="0px"
	 width="48px" height="48px" viewBox="0 0 48 48" enable-background="new 0 0 48 48" xml:space="preserve">
<g>
	<g>
		<line fill="none" stroke="#666666" stroke-miterlimit="10" x1="24" y1="41" x2="24" y2="31"/>
		<polyline fill="none" stroke="#666666" stroke-miterlimit="10" points="17,39 17,35 24,34 31,35 31,39 		"/>
		<linearGradient id="SVGID_1_" gradientUnits="userSpaceOnUse" x1="17" y1="41" x2="17" y2="37">
			<stop  offset="0" style="stop-color:#333333"/>
			<stop  offset="1" style="stop-color:#000000"/>
		</linearGradient>
		<rect x="15" y="37" fill="url(#SVGID_1_)" width="4" height="4"/>
		<linearGradient id="SVGID_2_" gradientUnits="userSpaceOnUse" x1="24" y1="42" x2="24" y2="38">
			<stop  offset="0" style="stop-color:#333333"/>
			<stop  offset="1" style="stop-color:#000000"/>
		</linearGradient>
		<rect x="22" y="38" fill="url(#SVGID_2_)" width="4" height="4"/>
		<linearGradient id="SVGID_3_" gradientUnits="userSpaceOnUse" x1="31" y1="41" x2="31" y2="37">
			<stop  offset="0" style="stop-color:#333333"/>
			<stop  offset="1" style="stop-color:#000000"/>
		</linearGradient>
		<rect x="29" y="37" fill="url(#SVGID_3_)" width="4" height="4"/>
		<linearGradient id="SVGID_4_" gradientUnits="userSpaceOnUse" x1="24" y1="32" x2="24" y2="28">
			<stop  offset="0" style="stop-color:#333333"/>
			<stop  offset="1" style="stop-color:#000000"/>
		</linearGradient>
		<circle fill="url(#SVGID_4_)" cx="24" cy="30" r="2"/>
	</g>
	<g>
		<line fill="none" stroke="#666666" stroke-miterlimit="10" x1="36" y1="21" x2="36" y2="18"/>
		<polyline fill="none" stroke="#666666" stroke-miterlimit="10" points="32,26 32,22 36,21 40,22 40,26 		"/>
		<linearGradient id="SVGID_5_" gradientUnits="userSpaceOnUse" x1="32" y1="28" x2="32" y2="24">
			<stop  offset="0" style="stop-color:#333333"/>
			<stop  offset="1" style="stop-color:#000000"/>
		</linearGradient>
		<rect x="30" y="24" fill="url(#SVGID_5_)" width="4" height="4"/>
		<linearGradient id="SVGID_6_" gradientUnits="userSpaceOnUse" x1="40" y1="28" x2="40" y2="24">
			<stop  offset="0" style="stop-color:#333333"/>
			<stop  offset="1" style="stop-color:#000000"/>
		</linearGradient>
		<rect x="38" y="24" fill="url(#SVGID_6_)" width="4" height="4"/>
		<linearGradient id="SVGID_7_" gradientUnits="userSpaceOnUse" x1="36" y1="19" x2="36" y2="15">
			<stop  offset="0" style="stop-color:#333333"/>
			<stop  offset="1" style="stop-color:#000000"/>
		</linearGradient>
		<circle fill="url(#SVGID_7_)" cx="36" cy="17" r="2"/>
	</g>
	<g>
		<line fill="none" stroke="#666666" stroke-miterlimit="10" x1="19" y1="19" x2="19" y2="9"/>
		<polyline fill="none" stroke="#666666" stroke-miterlimit="10" points="12,17 12,13 19,12 26,13 26,17 		"/>
		<linearGradient id="SVGID_8_" gradientUnits="userSpaceOnUse" x1="26" y1="19" x2="26" y2="15">
			<stop  offset="0" style="stop-color:#333333"/>
			<stop  offset="1" style="stop-color:#000000"/>
		</linearGradient>
		<rect x="24" y="15" fill="url(#SVGID_8_)" width="4" height="4"/>
		<linearGradient id="SVGID_9_" gradientUnits="userSpaceOnUse" x1="19" y1="20" x2="19" y2="16">
			<stop  offset="0" style="stop-color:#333333"/>
			<stop  offset="1" style="stop-color:#000000"/>
		</linearGradient>
		<rect x="17" y="16" fill="url(#SVGID_9_)" width="4" height="4"/>
		<linearGradient id="SVGID_10_" gradientUnits="userSpaceOnUse" x1="19" y1="10" x2="19" y2="6">
			<stop  offset="0" style="stop-color:#333333"/>
			<stop  offset="1" style="stop-color:#000000"/>
		</linearGradient>
		<circle fill="url(#SVGID_10_)" cx="19" cy="8" r="2"/>
		<g>
			<line fill="none" stroke="#666666" stroke-miterlimit="10" x1="12" y1="21" x2="12" y2="18"/>
			<polyline fill="none" stroke="#666666" stroke-miterlimit="10" points="8,26 8,22 12,21 16,22 16,26 			"/>
			<linearGradient id="SVGID_11_" gradientUnits="userSpaceOnUse" x1="8" y1="28" x2="8" y2="24">
				<stop  offset="0" style="stop-color:#333333"/>
				<stop  offset="1" style="stop-color:#000000"/>
			</linearGradient>
			<rect x="6" y="24" fill="url(#SVGID_11_)" width="4" height="4"/>
			<linearGradient id="SVGID_12_" gradientUnits="userSpaceOnUse" x1="16" y1="28" x2="16" y2="24">
				<stop  offset="0" style="stop-color:#333333"/>
				<stop  offset="1" style="stop-color:#000000"/>
			</linearGradient>
			<rect x="14" y="24" fill="url(#SVGID_12_)" width="4" height="4"/>
			<linearGradient id="SVGID_13_" gradientUnits="userSpaceOnUse" x1="12" y1="19" x2="12" y2="15">
				<stop  offset="0" style="stop-color:#333333"/>
				<stop  offset="1" style="stop-color:#000000"/>
			</linearGradient>
			<circle fill="url(#SVGID_13_)" cx="12" cy="17" r="2"/>
		</g>
	</g>
</g>
</svg>
