<?xml version="1.0" encoding="utf-8"?>
<!-- Generator: Adobe Illustrator 16.0.0, SVG Export Plug-In . SVG Version: 6.00 Build 0)  -->
<!DOCTYPE svg PUBLIC "-//W3C//DTD SVG 1.1//EN" "http://www.w3.org/Graphics/SVG/1.1/DTD/svg11.dtd">
<svg version="1.1" id="Layer_1" xmlns="http://www.w3.org/2000/svg" xmlns:xlink="http://www.w3.org/1999/xlink" x="0px" y="0px"
	 width="48px" height="48px" viewBox="0 0 48 48" enable-background="new 0 0 48 48" xml:space="preserve">
<g>
	<polygon fill="#666666" points="38,16 36,16 36,11.858 24,10.012 12,11.858 12,16 10,16 10,10.142 24,7.988 38,10.142 	"/>
</g>
<g>
	<polygon fill="#666666" points="36,27.166 36,34 38,34 38,27.166 37,27.012 	"/>
	<polygon fill="#666666" points="36,21 36,25.143 37,24.988 38,25.143 38,21 	"/>
	<polygon fill="#666666" points="23,27.142 23,33 25,33 25,28.858 36,27.166 36,25.143 	"/>
	<polygon fill="#666666" points="38,25.143 38,27.166 42,27.781 42,25.758 	"/>
	<polygon fill="#666666" points="36,25.143 36,27.166 37,27.012 38,27.166 38,25.143 37,24.988 	"/>
	<rect x="23" y="6" fill="#666666" width="2" height="11"/>
	<rect x="23" y="35" fill="#666666" width="2" height="7"/>
</g>
<linearGradient id="SVGID_1_" gradientUnits="userSpaceOnUse" x1="11" y1="22" x2="11" y2="14">
	<stop  offset="0" style="stop-color:#333333"/>
	<stop  offset="1" style="stop-color:#000000"/>
</linearGradient>
<rect x="7" y="14" fill="url(#SVGID_1_)" width="8" height="8"/>
<linearGradient id="SVGID_2_" gradientUnits="userSpaceOnUse" x1="24" y1="24" x2="24" y2="16">
	<stop  offset="0" style="stop-color:#333333"/>
	<stop  offset="1" style="stop-color:#000000"/>
</linearGradient>
<rect x="20" y="16" fill="url(#SVGID_2_)" width="8" height="8"/>
<linearGradient id="SVGID_3_" gradientUnits="userSpaceOnUse" x1="37" y1="41" x2="37" y2="33">
	<stop  offset="0" style="stop-color:#333333"/>
	<stop  offset="1" style="stop-color:#000000"/>
</linearGradient>
<rect x="33" y="33" fill="url(#SVGID_3_)" width="8" height="8"/>
<linearGradient id="SVGID_4_" gradientUnits="userSpaceOnUse" x1="24" y1="39" x2="24" y2="31">
	<stop  offset="0" style="stop-color:#333333"/>
	<stop  offset="1" style="stop-color:#000000"/>
</linearGradient>
<circle fill="url(#SVGID_4_)" cx="24" cy="35" r="4"/>
<linearGradient id="SVGID_5_" gradientUnits="userSpaceOnUse" x1="37" y1="22" x2="37" y2="14">
	<stop  offset="0" style="stop-color:#333333"/>
	<stop  offset="1" style="stop-color:#000000"/>
</linearGradient>
<circle fill="url(#SVGID_5_)" cx="37" cy="18" r="4"/>
</svg>
