<?xml version="1.0" encoding="utf-8"?>
<!-- Generator: Adobe Illustrator 16.1.0, SVG Export Plug-In . SVG Version: 6.00 Build 0)  -->
<!DOCTYPE svg PUBLIC "-//W3C//DTD SVG 1.1//EN" "http://www.w3.org/Graphics/SVG/1.1/DTD/svg11.dtd">
<svg version="1.1" id="Layer_1" xmlns="http://www.w3.org/2000/svg" xmlns:xlink="http://www.w3.org/1999/xlink" x="0px" y="0px"
	 width="48px" height="48px" viewBox="0 0 48 48" enable-background="new 0 0 48 48" xml:space="preserve">
<path fill="#666666" d="M38,25.143v-3.284C37.679,21.942,37.348,22,37,22s-0.679-0.058-1-0.142v3.284l-13,1.999v4
	C23.321,31.059,23.652,31,24,31s0.679,0.059,1,0.142v-2.283l11-1.692V33h2v-5.834l4,0.615v-2.023L38,25.143z"/>
<path fill="#666666" d="M24,39c-0.348,0-0.679-0.059-1-0.142V42h2v-3.142C24.679,38.941,24.348,39,24,39z"/>
<path fill="#666666" d="M25,8.142V6h-2v2.142l-13,2V14h2v-2.142l11-1.692V16h2v-5.834l11,1.692v2.284C36.321,14.058,36.652,14,37,14
	s0.679,0.058,1,0.142v-4L25,8.142z"/>
<linearGradient id="SVGID_1_" gradientUnits="userSpaceOnUse" x1="11" y1="22" x2="11" y2="14">
	<stop  offset="0" style="stop-color:#333333"/>
	<stop  offset="1" style="stop-color:#000000"/>
</linearGradient>
<polygon fill="url(#SVGID_1_)" points="12,14 10,14 7,14 7,22 15,22 15,14 "/>
<linearGradient id="SVGID_2_" gradientUnits="userSpaceOnUse" x1="24" y1="24" x2="24" y2="16">
	<stop  offset="0" style="stop-color:#333333"/>
	<stop  offset="1" style="stop-color:#000000"/>
</linearGradient>
<polygon fill="url(#SVGID_2_)" points="25,16 23,16 20,16 20,24 28,24 28,16 "/>
<linearGradient id="SVGID_3_" gradientUnits="userSpaceOnUse" x1="37" y1="41" x2="37" y2="33">
	<stop  offset="0" style="stop-color:#333333"/>
	<stop  offset="1" style="stop-color:#000000"/>
</linearGradient>
<polygon fill="url(#SVGID_3_)" points="38,33 36,33 33,33 33,41 41,41 41,33 "/>
<linearGradient id="SVGID_4_" gradientUnits="userSpaceOnUse" x1="24" y1="39" x2="24" y2="31">
	<stop  offset="0" style="stop-color:#333333"/>
	<stop  offset="1" style="stop-color:#000000"/>
</linearGradient>
<path fill="url(#SVGID_4_)" d="M25,31.142C24.679,31.059,24.348,31,24,31s-0.679,0.059-1,0.142c-1.722,0.445-3,1.996-3,3.858
	s1.278,3.413,3,3.858C23.321,38.941,23.652,39,24,39s0.679-0.059,1-0.142c1.722-0.445,3-1.996,3-3.858S26.722,31.587,25,31.142z"/>
<linearGradient id="SVGID_5_" gradientUnits="userSpaceOnUse" x1="37" y1="22" x2="37" y2="14">
	<stop  offset="0" style="stop-color:#333333"/>
	<stop  offset="1" style="stop-color:#000000"/>
</linearGradient>
<path fill="url(#SVGID_5_)" d="M38,14.142C37.679,14.058,37.348,14,37,14s-0.679,0.058-1,0.142c-1.722,0.446-3,1.996-3,3.858
	s1.278,3.413,3,3.858C36.321,21.942,36.652,22,37,22s0.679-0.058,1-0.142c1.722-0.446,3-1.996,3-3.858S39.722,14.587,38,14.142z"/>
</svg>
