<?xml version="1.0" encoding="utf-8"?>
<!-- Generator: Adobe Illustrator 16.0.0, SVG Export Plug-In . SVG Version: 6.00 Build 0)  -->
<!DOCTYPE svg PUBLIC "-//W3C//DTD SVG 1.1//EN" "http://www.w3.org/Graphics/SVG/1.1/DTD/svg11.dtd">
<svg version="1.1" id="Layer_1" xmlns="http://www.w3.org/2000/svg" xmlns:xlink="http://www.w3.org/1999/xlink" x="0px" y="0px"
	 width="48px" height="48px" viewBox="0 0 48 48" enable-background="new 0 0 48 48" xml:space="preserve">
<g>
	<g>
		<rect x="9" y="7" fill="#333333" width="30" height="14"/>
		<rect x="11" y="9" fill="#666666" width="26" height="11"/>
		<rect x="11" y="15" fill="#FFFFFF" width="8" height="5"/>
		<rect x="11" y="9" fill="#FFFFFF" width="8" height="5"/>
		<rect x="20" y="15" fill="#FFFFFF" width="8" height="5"/>
		<rect x="20" y="9" fill="#FFFFFF" width="8" height="5"/>
		<rect x="29" y="15" fill="#FFFFFF" width="8" height="5"/>
		<rect x="29" y="9" fill="#FFFFFF" width="8" height="5"/>
	</g>
	<g>
		<rect x="9" y="27" fill="#333333" width="30" height="14"/>
		<rect x="11" y="28" fill="#666666" width="26" height="11"/>
		<rect x="11" y="34" fill="#FFFFFF" width="8" height="5"/>
		<rect x="11" y="28" fill="#FFFFFF" width="8" height="5"/>
		<rect x="20" y="34" fill="#FFFFFF" width="8" height="5"/>
		<rect x="20" y="28" fill="#FFFFFF" width="8" height="5"/>
		<rect x="29" y="34" fill="#FFFFFF" width="8" height="5"/>
		<rect x="29" y="28" fill="#FFFFFF" width="8" height="5"/>
	</g>
	<rect x="9" y="21" fill="#333333" width="5" height="2"/>
	<rect x="34" y="21" fill="#333333" width="5" height="2"/>
	<rect x="30" y="25" fill="#333333" width="4" height="2"/>
	<rect x="22" y="25" fill="#333333" width="4" height="2"/>
	<rect x="14" y="25" fill="#333333" width="4" height="2"/>
	<rect x="18" y="21.009" fill="#333333" width="4" height="1.991"/>
	<rect x="26" y="21.009" fill="#333333" width="4" height="1.991"/>
</g>
</svg>
