<?xml version="1.0" encoding="utf-8"?>
<!-- Generator: Adobe Illustrator 16.0.0, SVG Export Plug-In . SVG Version: 6.00 Build 0)  -->
<!DOCTYPE svg PUBLIC "-//W3C//DTD SVG 1.1//EN" "http://www.w3.org/Graphics/SVG/1.1/DTD/svg11.dtd">
<svg version="1.1" id="Layer_1" xmlns="http://www.w3.org/2000/svg" xmlns:xlink="http://www.w3.org/1999/xlink" x="0px" y="0px"
	 width="48px" height="48px" viewBox="0 0 48 48" enable-background="new 0 0 48 48" xml:space="preserve">
<g>
	<path fill="#333333" d="M13.635,22c0.637,0,1.271,0.034,1.903,0.092V18H5.537v5.57c0.469-0.179,0.952-0.351,1.456-0.514
		C9.165,22.355,11.399,22,13.635,22z"/>
	<path fill="#333333" d="M8.223,26.863c-0.97,0.313-1.863,0.667-2.686,1.05V34h10.001v-7.889c-0.633-0.073-1.268-0.123-1.901-0.123
		C11.843,25.988,10.021,26.282,8.223,26.863z"/>
	<path fill="#333333" d="M24.61,24.89c0.505,0.249,0.998,0.509,1.489,0.769c1.16,0.613,2.268,1.183,3.438,1.527V13h-11v9.59
		c0.681,0.163,1.358,0.349,2.025,0.579C21.818,23.604,23.104,24.149,24.61,24.89z"/>
	<path fill="#333333" d="M24.199,29.178c-0.445-0.235-0.894-0.473-1.354-0.698c-1.352-0.665-2.493-1.151-3.589-1.529
		c-0.238-0.082-0.479-0.145-0.719-0.217V34h11v-2.693c-0.151-0.03-0.306-0.057-0.455-0.091
		C27.236,30.784,25.708,29.976,24.199,29.178z"/>
	<path fill="#333333" d="M33.027,31.63c-0.168,0-0.326-0.008-0.489-0.012V34h11v-3.709c-2.348,0.617-4.944,1.012-8.168,1.244
		C34.803,31.576,33.944,31.63,33.027,31.63z"/>
	<path fill="#333333" d="M35.083,27.545c3.459-0.248,6.096-0.689,8.456-1.411V21h-11v6.618c0.163,0.004,0.322,0.011,0.492,0.011
		C33.636,27.629,34.269,27.604,35.083,27.545z"/>
	<path fill="#666666" d="M45.031,28.812c0.2-0.065,0.399-0.137,0.599-0.207c0.379-0.134,0.759-0.271,1.149-0.366l-0.481-1.941
		c-0.469,0.115-0.909,0.271-1.334,0.422c-0.186,0.066-0.372,0.132-0.559,0.193c-0.284,0.094-0.574,0.182-0.866,0.268v2.075
		C44.045,29.117,44.544,28.973,45.031,28.812z"/>
	<path fill="#666666" d="M35.154,28.543c-0.67,0.047-1.386,0.086-2.125,0.086c-0.163,0-0.328-0.006-0.492-0.01
		c-0.916-0.023-1.854-0.109-2.771-0.324c-0.078-0.019-0.151-0.047-0.229-0.067c-1.374-0.359-2.608-1-3.906-1.687
		c-0.481-0.254-0.966-0.51-1.462-0.754c-1.468-0.721-2.718-1.253-3.933-1.673c-0.562-0.194-1.128-0.36-1.699-0.503
		c-0.99-0.249-1.992-0.416-3-0.513C14.905,23.039,14.271,23,13.635,23c-2.122,0-4.252,0.336-6.334,1.009
		c-0.62,0.2-1.201,0.415-1.764,0.639C4.226,25.169,3.052,25.753,2,26.424l1.075,1.687c0.734-0.468,1.562-0.897,2.462-1.294
		c0.743-0.326,1.532-0.631,2.378-0.904c1.907-0.616,3.819-0.924,5.722-0.924c0.635,0,1.269,0.047,1.901,0.115
		c1.004,0.108,2.004,0.305,3,0.586c0.349,0.099,0.698,0.195,1.045,0.315c1.135,0.392,2.312,0.894,3.704,1.577
		c0.479,0.235,0.946,0.482,1.41,0.728c1.423,0.753,2.894,1.53,4.614,1.933c0.076,0.018,0.151,0.028,0.227,0.045
		c1.013,0.217,2.023,0.311,3,0.332c0.163,0.004,0.328,0.011,0.489,0.011c0.794,0,1.558-0.041,2.271-0.093
		c3.279-0.235,5.888-0.642,8.24-1.282V27.18C41.179,27.872,38.548,28.298,35.154,28.543z"/>
</g>
</svg>
