<?xml version="1.0" encoding="utf-8"?>
<!-- Generator: Adobe Illustrator 16.0.0, SVG Export Plug-In . SVG Version: 6.00 Build 0)  -->
<!DOCTYPE svg PUBLIC "-//W3C//DTD SVG 1.1//EN" "http://www.w3.org/Graphics/SVG/1.1/DTD/svg11.dtd">
<svg version="1.1" id="Layer_1" xmlns="http://www.w3.org/2000/svg" xmlns:xlink="http://www.w3.org/1999/xlink" x="0px" y="0px"
	 width="48px" height="48px" viewBox="0 0 48 48" enable-background="new 0 0 48 48" xml:space="preserve">
<g>
	<g>
		<rect x="5" y="5" fill="#333333" width="36" height="36"/>
		<rect x="7" y="13" fill="#666666" width="32" height="26"/>
		<rect x="7" y="31" fill="#FFFFFF" width="10" height="8"/>
		<rect x="7" y="22" fill="#FFFFFF" width="10" height="8"/>
		<rect x="7" y="13" fill="#FFFFFF" width="10" height="8"/>
		<rect x="18" y="31" fill="#FFFFFF" width="10" height="8"/>
		<rect x="18" y="22" fill="#FFFFFF" width="10" height="8"/>
		<rect x="18" y="13" fill="#FFFFFF" width="10" height="8"/>
		<rect x="29" y="31" fill="#FFFFFF" width="10" height="8"/>
		<rect x="29" y="22" fill="#FFFFFF" width="10" height="8"/>
		<rect x="29" y="13" fill="#FFFFFF" width="10" height="8"/>
	</g>
	<g>
		<g>
			<path fill="#FFFFFF" d="M31.877,44.5c-0.479,0-0.949-0.098-1.293-0.269l-7.537-3.751c-0.649-0.323-1.138-1.114-1.137-1.839
				l0.02-10.319c0.003-0.74,0.551-1.507,1.247-1.747l8.493-2.946c0.248-0.084,0.546-0.128,0.864-0.128
				c0.479,0,0.949,0.098,1.291,0.269l7.538,3.751c0.64,0.317,1.14,1.125,1.137,1.838l-0.016,10.318c0,0.738-0.547,1.506-1.245,1.747
				l-8.499,2.949C32.492,44.456,32.194,44.5,31.877,44.5z"/>
			<path d="M32.534,24c0.383,0,0.783,0.074,1.067,0.216l7.539,3.751c0.473,0.234,0.861,0.859,0.859,1.388l-0.016,10.319
				c0,0.528-0.41,1.104-0.908,1.275l-8.5,2.949C32.377,43.967,32.131,44,31.877,44c-0.384,0-0.785-0.075-1.07-0.217l-7.537-3.751
				c-0.475-0.236-0.86-0.861-0.859-1.391l0.02-10.319c0.002-0.529,0.41-1.103,0.91-1.275l8.494-2.947
				C32.033,24.033,32.28,24,32.534,24 M32.534,23c-0.372,0-0.726,0.053-1.022,0.154l-8.5,2.949c-0.897,0.31-1.578,1.263-1.582,2.216
				L21.41,38.64c-0.002,0.917,0.593,1.879,1.414,2.288l7.537,3.751c0.562,0.28,1.19,0.322,1.516,0.322
				c0.372,0,0.725-0.053,1.021-0.154l8.506-2.951c0.9-0.311,1.58-1.266,1.58-2.22L43,29.357c0.003-0.9-0.605-1.884-1.415-2.286
				l-7.538-3.751C33.488,23.042,32.859,23,32.534,23L32.534,23z"/>
		</g>
		<path d="M41.578,28.33l-9.939,3.37l-8.727-4.403c-0.123,0.108-0.227,0.238-0.311,0.382l8.814,4.448l-0.071,11.832
			c0.159,0.025,0.318,0.04,0.481,0.04l0.07-11.848l9.954-3.394C41.779,28.601,41.689,28.456,41.578,28.33z"/>
		<path d="M25.723,32.099c0.076-0.938-0.393-1.953-1.047-2.272c-0.648-0.32-1.24,0.181-1.314,1.115
			c-0.074,0.94,0.393,1.957,1.045,2.275C25.059,33.533,25.648,33.032,25.723,32.099z"/>
		<path d="M30.325,34.433c0.075-0.934-0.394-1.95-1.046-2.27c-0.651-0.319-1.242,0.179-1.316,1.115
			c-0.075,0.938,0.394,1.955,1.045,2.274C29.662,35.873,30.251,35.37,30.325,34.433z"/>
		<path d="M30.326,40.941c0.074-0.938-0.395-1.954-1.047-2.272c-0.649-0.318-1.242,0.181-1.316,1.115
			c-0.074,0.938,0.394,1.956,1.045,2.272C29.662,42.376,30.251,41.875,30.326,40.941z"/>
		<path d="M34.196,27.929c0.222-0.584-0.419-1.222-1.431-1.429c-1.009-0.208-2.008,0.097-2.229,0.678
			c-0.221,0.584,0.42,1.225,1.43,1.432C32.977,28.817,33.977,28.511,34.196,27.929z"/>
		<path d="M25.723,38.454c0.076-0.937-0.393-1.952-1.047-2.27c-0.648-0.321-1.24,0.179-1.314,1.114
			c-0.076,0.938,0.393,1.956,1.045,2.273C25.059,39.891,25.648,39.39,25.723,38.454z"/>
		<path d="M35.725,33.861c-0.006-0.877-0.599-1.367-1.321-1.099c-0.72,0.264-1.3,1.196-1.292,2.07c0.008,0.878,0.6,1.372,1.321,1.1
			C35.154,35.665,35.732,34.739,35.725,33.861z"/>
		<path d="M38.367,36.099c-0.01-0.876-0.601-1.366-1.323-1.099c-0.72,0.268-1.3,1.196-1.293,2.069
			c0.009,0.879,0.602,1.371,1.321,1.102C37.795,37.904,38.374,36.975,38.367,36.099z"/>
		<path d="M40.91,32.116c-0.007-0.876-0.6-1.366-1.322-1.098c-0.721,0.265-1.299,1.194-1.291,2.069c0.006,0.876,0.6,1.37,1.32,1.102
			C40.34,33.92,40.918,32.991,40.91,32.116z"/>
		<path d="M41.008,38.139c-0.008-0.878-0.6-1.367-1.322-1.1c-0.721,0.266-1.301,1.197-1.293,2.069c0.008,0.879,0.6,1.373,1.32,1.102
			C40.436,39.941,41.016,39.017,41.008,38.139z"/>
		<path d="M35.78,40.084c-0.007-0.877-0.599-1.367-1.319-1.101c-0.722,0.268-1.301,1.199-1.293,2.07
			c0.008,0.879,0.6,1.371,1.321,1.102C35.211,41.888,35.789,40.959,35.78,40.084z"/>
	</g>
</g>
</svg>
