<?xml version="1.0" encoding="utf-8"?>
<!-- Generator: Adobe Illustrator 16.0.0, SVG Export Plug-In . SVG Version: 6.00 Build 0)  -->
<!DOCTYPE svg PUBLIC "-//W3C//DTD SVG 1.1//EN" "http://www.w3.org/Graphics/SVG/1.1/DTD/svg11.dtd">
<svg version="1.1" id="Layer_1" xmlns="http://www.w3.org/2000/svg" xmlns:xlink="http://www.w3.org/1999/xlink" x="0px" y="0px"
	 width="48px" height="48px" viewBox="0 0 48 48" enable-background="new 0 0 48 48" xml:space="preserve">
<g>
	<g>
		<path fill="#333333" d="M18.003,32.628c0.787,0.05,1.853,0.203,2.513,0.354c0.178,0.559,0.229,1.802,0.127,2.336h-9.266
			c0.051-0.635,0.381-1.752,0.609-2.26c0.481-0.152,1.523-0.355,2.106-0.431V19.705h-2.817c-0.051,0.533-0.203,1.549-0.33,2.056
			C10.031,22.066,8.863,22.117,8,22.117v-4.798h16.121v4.875c-0.965,0-2.107-0.101-2.971-0.355
			c-0.152-0.559-0.304-1.523-0.354-2.133h-2.793V32.628z"/>
	</g>
	<g>
		<g>
			<path fill="#666666" d="M25.928,26.935c0.094,0.323,0.242,0.638,0.422,0.941c0.354,0.602,0.855,1.158,1.512,1.586
				c0.654,0.428,1.361,0.666,2.057,0.749c0.352,0.042,0.697,0.052,1.031,0.009l6.682-10.211c-0.98-0.069-1.998-0.399-2.926-1.007
				c-0.93-0.608-1.637-1.409-2.094-2.279L25.928,26.935z"/>
		</g>
		<g>
			<path fill="#666666" d="M35.652,17.572c0.984,0.644,2.096,0.884,3.09,0.758l1.336-2.045L35.059,13l-1.338,2.044
				C34.002,16.006,34.668,16.927,35.652,17.572z"/>
		</g>
		<path fill="#666666" d="M24.801,28.656l-0.773,6.662l5.795-3.377c-0.846-0.124-2.262-0.286-3.057-0.806
			S25.254,29.381,24.801,28.656z"/>
	</g>
</g>
</svg>
