<?xml version="1.0" encoding="utf-8"?>
<!-- Generator: Adobe Illustrator 16.0.0, SVG Export Plug-In . SVG Version: 6.00 Build 0)  -->
<!DOCTYPE svg PUBLIC "-//W3C//DTD SVG 1.1//EN" "http://www.w3.org/Graphics/SVG/1.1/DTD/svg11.dtd">
<svg version="1.1" id="Layer_1" xmlns="http://www.w3.org/2000/svg" xmlns:xlink="http://www.w3.org/1999/xlink" x="0px" y="0px"
	 width="48px" height="48px" viewBox="0 0 48 48" enable-background="new 0 0 48 48" xml:space="preserve">
<g>
	<rect x="6" y="6" fill="#333333" width="36" height="36"/>
	<rect x="8" y="14" fill="#666666" width="32" height="26"/>
	<rect x="8" y="32" fill="#FFFFFF" width="10" height="8"/>
	<rect x="8" y="23" fill="#FFFFFF" width="10" height="8"/>
	<rect x="8" y="14" fill="#FFFFFF" width="10" height="8"/>
	<rect x="19" y="32" fill="#B2B2B2" width="10" height="8"/>
	<rect x="19" y="23" fill="#B2B2B2" width="10" height="8"/>
	<rect x="19" y="14" fill="#B2B2B2" width="10" height="8"/>
	<rect x="30" y="32" fill="#FFFFFF" width="10" height="8"/>
	<rect x="30" y="23" fill="#FFFFFF" width="10" height="8"/>
	<rect x="30" y="14" fill="#FFFFFF" width="10" height="8"/>
	<rect x="19" y="22" fill="#989898" width="10" height="1"/>
	<rect x="19" y="31" fill="#989898" width="10" height="1"/>
	<g>
		<path fill="#333333" d="M24.811,24.012l-1.865,8.748c-0.332,1.567-1.029,2.849-2.096,3.844c-1.063,0.997-2.16,1.494-3.289,1.494
			c-0.619,0-1.076-0.118-1.369-0.355c-0.293-0.236-0.439-0.534-0.439-0.894c0-0.304,0.092-0.572,0.275-0.806
			c0.185-0.232,0.449-0.35,0.795-0.35c0.22,0,0.412,0.05,0.577,0.15c0.167,0.097,0.312,0.221,0.438,0.37
			c0.1,0.121,0.211,0.282,0.334,0.487c0.125,0.206,0.232,0.381,0.324,0.529c0.543-0.041,1.008-0.409,1.392-1.101
			c0.386-0.692,0.72-1.68,1.001-2.965l1.953-9.15h-2.07l0.223-0.964h2.04l0.152-0.718c0.169-0.817,0.438-1.554,0.806-2.21
			c0.366-0.655,0.783-1.212,1.248-1.67c0.46-0.451,0.98-0.805,1.564-1.062C27.387,17.129,27.945,17,28.482,17
			c0.62,0,1.078,0.119,1.371,0.354c0.293,0.237,0.439,0.535,0.439,0.896c0,0.303-0.087,0.572-0.261,0.805
			c-0.173,0.233-0.444,0.349-0.812,0.349c-0.22,0-0.41-0.047-0.573-0.143c-0.164-0.095-0.309-0.221-0.438-0.376
			c-0.141-0.175-0.254-0.343-0.339-0.498c-0.085-0.154-0.191-0.328-0.319-0.519c-0.489,0.021-0.92,0.342-1.297,0.962
			c-0.375,0.619-0.711,1.652-1.012,3.097l-0.238,1.12h2.674l-0.223,0.964H24.811z"/>
		<path fill="#333333" d="M26.865,33.395l2.463-3.654l-2.357-3.548h2.311l1.205,2.091l1.178-2.091h2.242l-2.369,3.514L34,33.395
			h-2.35l-1.24-2.17l-1.256,2.17H26.865z"/>
	</g>
</g>
</svg>
