<?xml version="1.0" encoding="utf-8"?>
<!-- Generator: Adobe Illustrator 16.0.0, SVG Export Plug-In . SVG Version: 6.00 Build 0)  -->
<!DOCTYPE svg PUBLIC "-//W3C//DTD SVG 1.1//EN" "http://www.w3.org/Graphics/SVG/1.1/DTD/svg11.dtd">
<svg version="1.1" id="Layer_1" xmlns="http://www.w3.org/2000/svg" xmlns:xlink="http://www.w3.org/1999/xlink" x="0px" y="0px"
	 width="48px" height="48px" viewBox="0 0 48 48" enable-background="new 0 0 48 48" xml:space="preserve">
<g>
	<rect x="6" y="10" fill="#333333" width="36" height="28"/>
	<rect x="8" y="12" fill="#FFFFFF" width="32" height="24"/>
	<g>
		<g>
			<path fill="#333333" d="M18.09,31.927c1.941,0,3.883-1.554,5.824-1.554c1.94,0,3.882,1.554,5.825,1.554
				c1.94,0,3.881-1.554,5.825-1.554c0.893,0,1.704,0.274,2.436,0.683l-6.887-9.875l-3.063,3.063l-4.008-8.171l-4.163,8.171
				l-3.064-3.063L10,30.963c0.688-0.354,1.442-0.59,2.269-0.59C14.208,30.373,16.149,31.927,18.09,31.927z"/>
		</g>
		<polygon fill="#FFFFFF" points="30.965,23.223 30.092,24.33 32.369,25.074 		"/>
		<polygon fill="#FFFFFF" points="23.964,19.138 21.921,23.223 22.942,24.244 23.964,22.201 26.007,23.223 		"/>
	</g>
</g>
</svg>
