<?xml version="1.0" encoding="utf-8"?>
<!-- Generator: Adobe Illustrator 16.0.0, SVG Export Plug-In . SVG Version: 6.00 Build 0)  -->
<!DOCTYPE svg PUBLIC "-//W3C//DTD SVG 1.1//EN" "http://www.w3.org/Graphics/SVG/1.1/DTD/svg11.dtd">
<svg version="1.1" id="Layer_1" xmlns="http://www.w3.org/2000/svg" xmlns:xlink="http://www.w3.org/1999/xlink" x="0px" y="0px"
	 width="48px" height="48px" viewBox="0 0 48 48" enable-background="new 0 0 48 48" xml:space="preserve">
<g>
	<g>
		<polygon fill="#666666" points="5.116,13.493 10.451,15.29 10.451,23.189 13.873,24.331 13.873,16.442 19.578,18.364 
			19.461,36.006 5,31.135 		"/>
		<polygon fill="#666666" points="37.239,14.244 37.123,31.902 21.461,36.075 21.578,18.417 		"/>
		<polygon fill="#666666" points="29.288,10.467 35.552,12.624 20.616,16.604 15.773,14.972 		"/>
		<polygon fill="#666666" points="6.888,11.979 22.123,8 26.177,9.396 12.627,13.913 		"/>
		<polygon fill="#FFFFFF" points="10.451,23.189 10.451,15.29 11.123,15.517 13.123,16.19 13.873,16.442 13.873,24.331 		"/>
		<polygon fill="#FFFFFF" points="12.627,13.913 26.177,9.396 29.288,10.467 15.773,14.972 		"/>
	</g>
	<g>
		<g>
			<polygon fill="#333333" points="32.98,39.5 32.98,32.732 29.152,32.732 37.076,22.167 45,32.732 40.904,32.732 40.904,39.5 			
				"/>
			<path fill="#FFFFFF" d="M37.076,23L44,32.232h-3.596V39H33.48v-6.768h-3.328L37.076,23 M37.076,21.333l-0.8,1.066l-6.924,9.232
				l-1.2,1.6h2h2.328V39v1h1h6.924h1v-1v-5.768H44h2l-1.2-1.6L37.876,22.4L37.076,21.333L37.076,21.333z"/>
		</g>
	</g>
</g>
</svg>
