<?xml version="1.0" encoding="utf-8"?>
<!-- Generator: Adobe Illustrator 16.0.0, SVG Export Plug-In . SVG Version: 6.00 Build 0)  -->
<!DOCTYPE svg PUBLIC "-//W3C//DTD SVG 1.1//EN" "http://www.w3.org/Graphics/SVG/1.1/DTD/svg11.dtd">
<svg version="1.1" id="Layer_1" xmlns="http://www.w3.org/2000/svg" xmlns:xlink="http://www.w3.org/1999/xlink" x="0px" y="0px"
	 width="48px" height="48px" viewBox="0 0 48 48" enable-background="new 0 0 48 48" xml:space="preserve">
<g>
	<rect x="7" y="18" fill="#333333" width="14" height="21"/>
	<rect x="9" y="20" fill="#666666" width="11" height="17"/>
	<rect x="15" y="29" fill="#FFFFFF" width="5" height="8"/>
	<rect x="9" y="29" fill="#FFFFFF" width="5" height="8"/>
	<rect x="15" y="20" fill="#FFFFFF" width="5" height="8"/>
	<rect x="9" y="20" fill="#FFFFFF" width="5" height="8"/>
	<g>
		<rect x="27" y="9" fill="#333333" width="14" height="30"/>
		<rect x="28" y="11" fill="#666666" width="11" height="26"/>
		<rect x="34" y="29" fill="#FFFFFF" width="5" height="8"/>
		<rect x="28" y="29" fill="#FFFFFF" width="5" height="8"/>
		<rect x="34" y="20" fill="#FFFFFF" width="5" height="8"/>
		<rect x="28" y="20" fill="#FFFFFF" width="5" height="8"/>
		<rect x="34" y="11" fill="#FFFFFF" width="5" height="8"/>
		<rect x="28" y="11" fill="#FFFFFF" width="5" height="8"/>
	</g>
	<rect x="21" y="34" fill="#333333" width="2" height="5"/>
	<rect x="26" y="9" fill="#333333" width="1" height="9"/>
	<rect x="25" y="22" fill="#333333" width="2" height="4"/>
	<rect x="25" y="30" fill="#333333" width="2" height="4"/>
	<rect x="21.009" y="26" fill="#333333" width="1.991" height="4"/>
	<rect x="21.009" y="18" fill="#333333" width="1.991" height="4"/>
</g>
</svg>
