<?xml version="1.0" encoding="utf-8"?>
<!-- Generator: Adobe Illustrator 16.0.0, SVG Export Plug-In . SVG Version: 6.00 Build 0)  -->
<!DOCTYPE svg PUBLIC "-//W3C//DTD SVG 1.1//EN" "http://www.w3.org/Graphics/SVG/1.1/DTD/svg11.dtd">
<svg version="1.1" id="Layer_1" xmlns="http://www.w3.org/2000/svg" xmlns:xlink="http://www.w3.org/1999/xlink" x="0px" y="0px"
	 width="48px" height="48px" viewBox="0 0 48 48" enable-background="new 0 0 48 48" xml:space="preserve">
<g>
	<rect x="6" y="6" fill="#333333" width="36" height="36"/>
	<rect x="8" y="14" fill="#666666" width="32" height="26"/>
	<rect x="8" y="32" fill="#FFFFFF" width="10" height="8"/>
	<rect x="8" y="23" fill="#B2B2B2" width="10" height="8"/>
	<rect x="8" y="14" fill="#FFFFFF" width="10" height="8"/>
	<rect x="19" y="32" fill="#FFFFFF" width="10" height="8"/>
	<rect x="19" y="23" fill="#B2B2B2" width="10" height="8"/>
	<rect x="19" y="14" fill="#FFFFFF" width="10" height="8"/>
	<rect x="30" y="32" fill="#FFFFFF" width="10" height="8"/>
	<rect x="30" y="23" fill="#B2B2B2" width="10" height="8"/>
	<rect x="30" y="14" fill="#FFFFFF" width="10" height="8"/>
	<rect x="18" y="23" fill="#989898" width="1" height="8"/>
	<rect x="29" y="23" fill="#989898" width="1" height="8"/>
</g>
<g>
	<g>
		<path fill="#333333" d="M28.199,27.595c-0.075,0-0.15-0.017-0.219-0.051l-3.809-1.859c-0.119-0.058-0.21-0.161-0.253-0.287
			c-0.043-0.125-0.035-0.263,0.023-0.382l7.438-15.236c0.058-0.119,0.161-0.21,0.287-0.253C31.719,9.509,31.774,9.5,31.829,9.5
			c0.075,0,0.15,0.017,0.219,0.051l3.808,1.859c0.248,0.121,0.351,0.42,0.23,0.668l-7.438,15.236
			c-0.058,0.119-0.161,0.21-0.287,0.253C28.309,27.586,28.253,27.595,28.199,27.595z"/>
		<path fill="#FFFFFF" d="M31.829,10l3.808,1.859l-7.438,15.236l-3.809-1.859L31.829,10 M31.829,9c-0.11,0-0.22,0.018-0.325,0.054
			c-0.251,0.086-0.457,0.269-0.573,0.507l-7.438,15.236c-0.117,0.239-0.133,0.513-0.047,0.764c0.086,0.251,0.269,0.457,0.507,0.573
			l3.809,1.859c0.138,0.067,0.288,0.102,0.438,0.102c0.11,0,0.22-0.018,0.325-0.054c0.251-0.086,0.457-0.269,0.573-0.507
			l7.438-15.236c0.243-0.496,0.037-1.095-0.459-1.337l-3.808-1.859C32.129,9.034,31.979,9,31.829,9L31.829,9z"/>
	</g>
	<g>
		<path fill="#333333" d="M19.585,38.5c-2.167,0-4.661-0.569-7.411-1.691c-0.219-0.089-0.346-0.32-0.303-0.553
			s0.243-0.404,0.48-0.41c0.214-0.005,0.407-0.008,0.619-0.052c1.285-0.275,2.34-0.693,3.132-1.243
			c0.572-0.399,1.058-0.959,1.442-1.664c0.251-0.459,0.417-0.956,0.593-1.482c0.155-0.465,0.316-0.947,0.542-1.409
			c0.779-1.598,2.351-2.606,4.125-2.656l0.392-0.801c0.087-0.177,0.265-0.28,0.45-0.28c0.074,0,0.148,0.016,0.219,0.051l3.809,1.859
			c0.119,0.058,0.21,0.161,0.253,0.287c0.043,0.125,0.035,0.263-0.023,0.382l-0.646,1.322c0.574,1.291,0.555,2.73-0.062,3.994
			C27.155,34.282,25.577,38.5,19.585,38.5z"/>
		<path fill="#FFFFFF" d="M23.647,26.759l3.809,1.859l-0.744,1.523l-0.021-0.011c0.593,1.151,0.668,2.551,0.057,3.803
			c0,0-1.454,4.066-7.163,4.066c-1.901,0-4.274-0.452-7.222-1.654c0.246-0.006,0.466-0.012,0.709-0.062
			c1.141-0.244,2.353-0.654,3.315-1.321c0.679-0.474,1.201-1.111,1.596-1.835c0.506-0.927,0.688-1.977,1.146-2.911
			c0.734-1.506,2.243-2.378,3.812-2.377c0.058,0,0.117,0.001,0.175,0.003L23.647,26.759 M23.647,25.759
			c-0.37,0-0.725,0.206-0.898,0.56l-0.264,0.539c-1.834,0.156-3.438,1.245-4.254,2.92c-0.24,0.49-0.406,0.987-0.567,1.468
			c-0.168,0.505-0.328,0.981-0.557,1.401c-0.348,0.636-0.782,1.139-1.291,1.495c-0.725,0.502-1.747,0.905-2.952,1.163
			c-0.146,0.03-0.294,0.035-0.524,0.041c-0.473,0.011-0.874,0.353-0.959,0.819c-0.086,0.466,0.167,0.928,0.605,1.106
			c2.811,1.147,5.367,1.729,7.6,1.729c6.022,0,7.854-4.093,8.081-4.669c0.628-1.316,0.674-2.802,0.141-4.156l0.546-1.119
			c0.117-0.238,0.133-0.513,0.047-0.764c-0.086-0.251-0.269-0.457-0.507-0.573l-3.809-1.859
			C23.944,25.791,23.795,25.759,23.647,25.759L23.647,25.759z"/>
	</g>
</g>
</svg>
