<?xml version="1.0" encoding="utf-8"?>
<!-- Generator: Adobe Illustrator 16.0.0, SVG Export Plug-In . SVG Version: 6.00 Build 0)  -->
<!DOCTYPE svg PUBLIC "-//W3C//DTD SVG 1.1//EN" "http://www.w3.org/Graphics/SVG/1.1/DTD/svg11.dtd">
<svg version="1.1" id="Layer_1" xmlns="http://www.w3.org/2000/svg" xmlns:xlink="http://www.w3.org/1999/xlink" x="0px" y="0px"
	 width="48px" height="48px" viewBox="0 0 48 48" enable-background="new 0 0 48 48" xml:space="preserve">
<g>
	<g>
		<path fill="#333333" d="M29.449,19.796v-2.145l-3.217-1.072l-0.58-1.614l1.518-3.033l-1.517-1.515l-3.034,1.516l-1.75-0.716
			L19.798,8h-2.145l-1.073,3.217l-1.608,0.547l-3.034-1.518l-1.516,1.516l1.516,3.034l-0.719,1.784L8,17.652v2.144l3.218,1.074
			l0.721,1.776l-1.518,3.034l1.517,1.515l3.033-1.516l1.608,0.553l1.073,3.219h2.144l1.073-3.218l1.75-0.722l3.034,1.518
			l1.516-1.516l-1.516-3.034l0.578-1.609L29.449,19.796z M18.725,21.941c-1.776,0-3.217-1.44-3.217-3.217s1.441-3.218,3.217-3.218
			c1.777,0,3.217,1.441,3.217,3.218S20.502,21.941,18.725,21.941z"/>
	</g>
	<g>
		<path fill="#333333" d="M39.32,35.884l0.678-1.575l-2.026-1.807l0.083-1.369l2.073-1.75l-0.636-1.592l-2.708,0.157l-1.059-1.078
			l0.227-2.704l-1.577-0.676l-1.804,2.024l-1.354-0.106l-1.751-2.073l-1.594,0.637l0.158,2.707l-1.092,1.083l-2.704-0.226
			l-0.678,1.577l2.028,1.803L25.55,32.45l-2.074,1.751l0.638,1.591l2.706-0.157l1.008,0.916L27.6,39.257l1.577,0.675l1.805-2.027
			l1.515,0.021L34.248,40l1.594-0.637l-0.158-2.706l0.934-0.999L39.32,35.884z M30.76,34.074c-1.307-0.561-1.911-2.074-1.349-3.38
			c0.561-1.305,2.073-1.91,3.38-1.348c1.307,0.56,1.91,2.074,1.35,3.38C33.58,34.033,32.066,34.635,30.76,34.074z"/>
	</g>
</g>
</svg>
