<?xml version="1.0" encoding="utf-8"?>
<!-- Generator: Adobe Illustrator 16.0.0, SVG Export Plug-In . SVG Version: 6.00 Build 0)  -->
<!DOCTYPE svg PUBLIC "-//W3C//DTD SVG 1.1//EN" "http://www.w3.org/Graphics/SVG/1.1/DTD/svg11.dtd">
<svg version="1.1" id="Layer_1" xmlns="http://www.w3.org/2000/svg" xmlns:xlink="http://www.w3.org/1999/xlink" x="0px" y="0px"
	 width="48px" height="48px" viewBox="0 0 48 48" enable-background="new 0 0 48 48" xml:space="preserve">
<g>
	<path id="path1948" fill="#333333" d="M23.591,6c-1.468,0.007-2.87,0.132-4.104,0.351c-3.634,0.642-4.294,1.986-4.294,4.464v3.273
		h8.589v1.091h-8.589H11.97c-2.496,0-4.682,1.5-5.365,4.354c-0.789,3.271-0.824,5.312,0,8.729c0.61,2.542,2.068,4.354,4.564,4.354
		h2.952v-3.924c0-2.834,2.453-5.335,5.365-5.335h8.579c2.388,0,4.294-1.966,4.294-4.364v-8.178c0-2.327-1.964-4.076-4.294-4.464
		C26.59,6.105,25.059,5.994,23.591,6z M18.946,8.633c0.887,0,1.611,0.736,1.611,1.642c0,0.902-0.725,1.632-1.611,1.632
		c-0.891,0-1.611-0.729-1.611-1.632C17.335,9.37,18.056,8.633,18.946,8.633z"/>
	<path id="path1950" fill="#666666" d="M33.431,15.18v3.814c0,2.957-2.507,5.445-5.365,5.445h-8.579
		c-2.35,0-4.294,2.011-4.294,4.364v8.178c0,2.328,2.024,3.697,4.294,4.365c2.719,0.799,5.326,0.943,8.579,0
		c2.162-0.626,4.294-1.887,4.294-4.365v-3.273h-8.578v-1.091h8.578h4.294c2.496,0,3.427-1.741,4.295-4.354
		c0.896-2.69,0.858-5.277,0-8.729c-0.617-2.485-1.796-4.354-4.295-4.354H33.431z M28.605,35.89c0.891,0,1.612,0.729,1.612,1.631
		c0,0.905-0.722,1.642-1.612,1.642c-0.887,0-1.611-0.736-1.611-1.642C26.994,36.62,27.719,35.89,28.605,35.89z"/>
</g>
</svg>
