<?xml version="1.0" encoding="utf-8"?>
<!-- Generator: Adobe Illustrator 15.1.0, SVG Export Plug-In . SVG Version: 6.00 Build 0)  -->
<!DOCTYPE svg PUBLIC "-//W3C//DTD SVG 1.1//EN" "http://www.w3.org/Graphics/SVG/1.1/DTD/svg11.dtd">
<svg version="1.1" id="Layer_1" xmlns="http://www.w3.org/2000/svg" xmlns:xlink="http://www.w3.org/1999/xlink" x="0px" y="0px"
	 width="48px" height="48px" viewBox="0 0 48 48" enable-background="new 0 0 48 48" xml:space="preserve">
<g>
	<path fill="#333333" d="M6,6v36h36V6H6z M40,14v8v1v8v1v8H30h-1H19h-1H8v-8v-1v-8v-1v-8l0,0h10l0,0h1l0,0h10l0,0h1l0,0H40L40,14z"
		/>
	<polygon fill="#666666" points="30,14 29,14 29,22 19,22 19,14 18,14 18,22 8,22 8,23 18,23 18,23 19,23 19,23 29,23 29,23 30,23 
		30,23 40,23 40,22 30,22 	"/>
	<polygon fill="#666666" points="29,31 19,31 18,31 8,31 8,32 18,32 18,40 19,40 19,32 29,32 29,40 30,40 30,32 40,32 40,31 30,31 	
		"/>
	<rect x="8" y="32" fill="#FFFFFF" width="10" height="8"/>
	<rect x="8" y="23" fill="#B2B2B2" width="10" height="8"/>
	<polygon fill="#FFFFFF" points="8,14 18,14 18,14 	"/>
	<rect x="8" y="14" fill="#FFFFFF" width="10" height="8"/>
	<rect x="19" y="32" fill="#FFFFFF" width="10" height="8"/>
	<rect x="19" y="23" fill="#B2B2B2" width="10" height="8"/>
	<polygon fill="#FFFFFF" points="19,14 29,14 29,14 	"/>
	<rect x="19" y="14" fill="#FFFFFF" width="10" height="8"/>
	<rect x="30" y="32" fill="#FFFFFF" width="10" height="8"/>
	<rect x="30" y="23" fill="#B2B2B2" width="10" height="8"/>
	<polygon fill="#FFFFFF" points="30,14 40,14 40,14 	"/>
	<rect x="30" y="14" fill="#FFFFFF" width="10" height="8"/>
	<polygon fill="#989898" points="19,31 19,23 19,23 18,23 18,23 18,31 	"/>
	<polygon fill="#989898" points="30,31 30,23 30,23 29,23 29,23 29,31 	"/>
</g>
<g>
	<rect x="33.813" y="25.099" fill="#1D1D1B" width="13.361" height="2.002"/>
	<path fill="#FFFFFF" d="M46.924,25.35v1.5H34.064v-1.5H46.924 M47.425,24.849h-0.501H34.064h-0.501v0.501v1.5v0.501h0.501h12.859
		h0.501V26.85v-1.5V24.849L47.425,24.849z"/>
</g>
<g>
	<rect x="33.813" y="28.332" fill="#1D1D1B" width="13.361" height="2.002"/>
	<path fill="#FFFFFF" d="M46.924,28.583v1.5H34.064v-1.5H46.924 M47.425,28.082h-0.501H34.064h-0.501v0.501v1.5v0.501h0.501h12.859
		h0.501v-0.501v-1.5V28.082L47.425,28.082z"/>
</g>
<g>
	<rect x="33.813" y="31.565" fill="#1D1D1B" width="13.361" height="2.002"/>
	<path fill="#FFFFFF" d="M46.924,31.816v1.5H34.064v-1.5H46.924 M47.425,31.315h-0.501H34.064h-0.501v0.501v1.5v0.501h0.501h12.859
		h0.501v-0.501v-1.5V31.315L47.425,31.315z"/>
</g>
<g>
	<rect x="33.813" y="34.799" fill="#1D1D1B" width="13.361" height="2.002"/>
	<path fill="#FFFFFF" d="M46.924,35.05v1.5H34.064v-1.5H46.924 M47.425,34.549h-0.501H34.064h-0.501v0.501v1.5v0.501h0.501h12.859
		h0.501V36.55v-1.5V34.549L47.425,34.549z"/>
</g>
<g>
	<path fill="#333333" d="M34.52,29.707c-0.851-1.15-1.752-2.261-2.664-3.359c-0.379-0.451-0.764-0.897-1.146-1.349
		c-0.266-0.312-0.506-0.661-0.855-0.867c-0.076-0.045-0.158-0.086-0.246-0.112c-0.457-0.153-0.979-0.133-1.418,0.066
		c-0.06,0.025-0.117,0.056-0.17,0.09c-0.172,0.114-0.297,0.271-0.367,0.479c-0.109,0.325,0.021,0.71-0.08,1.016
		c-0.031,0.091-0.082,0.157-0.146,0.197c-0.286,0.19-0.851-0.058-1.147-0.039c-0.275,0.013-0.539,0.104-0.764,0.253
		c-0.16,0.105-0.302,0.241-0.414,0.4c-0.152,0.22-0.258,0.521-0.263,0.812c-0.004,0.202,0.187,0.593-0.015,0.724
		c-0.018,0.013-0.037,0.02-0.061,0.028c-0.207,0.063-0.753-0.344-0.972-0.377c-0.323-0.047-0.714-0.083-0.981,0.095
		c-0.008,0.006-0.018,0.012-0.021,0.016c-0.531,0.351-0.755,1.078-0.607,1.722c0.104,0.462,0.432,0.771,0.772,1.06
		c0.004,0.006,0.028,0.041,0.034,0.047c-0.006-0.006,0.002,0.01-0.002,0.005c-0.617-0.524-1.438-1.155-2.1-1.623
		c-0.729-0.515-3.814-2.896-4.732-2.711c-0.166,0.032-0.319,0.103-0.459,0.194c-0.164,0.107-0.307,0.252-0.417,0.414
		c-0.203,0.291-0.297,0.645-0.27,0.998c0.095,1.146,1.575,2.019,2.383,2.59c1.859,1.318,2.391,1.711,4.155,3.153
		c0.595,0.487,2.634,2.269,3.076,2.865c-0.837,0.149-2.252,0.089-3.06,0.622c-0.146,0.098-0.275,0.216-0.375,0.359
		c-0.277,0.399-0.35,0.91-0.191,1.371c0.076,0.226,0.208,0.457,0.389,0.618c0.993,0.882,2.555,0.597,3.76,0.493
		c1.064-0.093,2.121-0.199,3.19-0.211c0.726-0.007,1.45,0.009,2.174-0.021c0.453-0.019,1.339,0.047,1.755-0.229
		c0.018-0.012,0.036-0.025,0.055-0.039c0.259-0.21,0.449-0.712,0.646-0.991c0.27-0.386,0.536-0.771,0.807-1.157
		c0.68-0.977,1.353-1.957,2.037-2.93c0.34-0.479,1.008-1.043,0.836-1.699c-0.181-0.679-0.912-1.236-1.269-1.832
		C35.132,30.438,34.8,30.083,34.52,29.707z"/>
	<path fill="#FFFFFF" d="M36.654,30.868c-0.17-0.196-0.328-0.382-0.422-0.537c-0.192-0.321-0.422-0.606-0.625-0.858
		c-0.098-0.119-0.193-0.24-0.285-0.363c-0.906-1.227-1.873-2.407-2.698-3.4c-0.282-0.339-0.569-0.673-0.854-1.007l-0.301-0.351
		l-0.142-0.174c-0.237-0.29-0.533-0.654-0.97-0.909c-0.127-0.077-0.276-0.147-0.435-0.2c-0.703-0.234-1.483-0.196-2.147,0.104
		c-0.106,0.048-0.211,0.104-0.308,0.168c-0.362,0.24-0.628,0.584-0.765,0.995c-0.062,0.181-0.088,0.356-0.098,0.517
		c-0.121-0.018-0.248-0.028-0.383-0.021c-0.447,0.021-0.885,0.166-1.262,0.415c-0.268,0.177-0.497,0.4-0.682,0.664
		c-0.185,0.263-0.315,0.57-0.387,0.89c-0.492-0.044-0.992,0.091-1.457,0.392l0,0c-0.408,0.271-0.721,0.621-0.927,1.017
		c-0.014-0.011-0.026-0.021-0.042-0.028c-0.091-0.065-0.22-0.16-0.378-0.274c-2.916-2.134-4.211-2.79-5.131-2.605
		c-0.288,0.06-0.563,0.173-0.817,0.341c-0.268,0.178-0.5,0.405-0.688,0.678c-0.332,0.478-0.49,1.064-0.444,1.648
		c0.123,1.484,1.558,2.469,2.507,3.118c0.104,0.073,0.202,0.142,0.291,0.205c1.848,1.312,2.361,1.692,4.103,3.11
		c0.372,0.307,0.977,0.83,1.542,1.344c-0.51,0.096-1.016,0.253-1.441,0.535c-0.26,0.172-0.479,0.382-0.645,0.623
		c-0.461,0.658-0.579,1.507-0.316,2.269c0.102,0.295,0.301,0.714,0.669,1.041c1.206,1.071,2.873,0.902,4.091,0.782
		c0.145-0.016,0.283-0.028,0.42-0.041l0.479-0.041c0.906-0.082,1.766-0.157,2.637-0.167c0.225-0.002,0.45-0.002,0.676-0.003
		c0.51,0.001,1.02,0.001,1.528-0.02c0.076-0.004,0.17-0.004,0.272-0.005c0.595-0.001,1.408-0.004,1.99-0.389
		c0.049-0.032,0.096-0.065,0.137-0.103c0.318-0.256,0.521-0.629,0.681-0.928c0.054-0.097,0.101-0.189,0.151-0.26l0.808-1.162
		l0.746-1.074c0.431-0.617,0.856-1.234,1.29-1.851c0.061-0.083,0.136-0.172,0.21-0.265c0.392-0.472,1.038-1.258,0.772-2.266
		C37.439,31.781,37.021,31.295,36.654,30.868z M36.643,32.678c0.174,0.656-0.492,1.221-0.834,1.7
		c-0.684,0.974-1.356,1.952-2.037,2.929c-0.27,0.387-0.535,0.771-0.807,1.157c-0.195,0.28-0.387,0.78-0.646,0.992
		c-0.017,0.013-0.033,0.026-0.053,0.037c-0.416,0.274-1.303,0.21-1.756,0.228c-0.725,0.031-1.447,0.018-2.175,0.023
		c-1.067,0.011-2.126,0.119-3.188,0.211c-1.205,0.104-2.768,0.389-3.763-0.493c-0.179-0.161-0.31-0.394-0.387-0.618
		c-0.158-0.461-0.085-0.972,0.19-1.371c0.103-0.144,0.229-0.262,0.379-0.36c0.805-0.532,2.221-0.472,3.057-0.622
		c-0.441-0.596-2.48-2.377-3.077-2.864c-1.765-1.442-2.298-1.835-4.155-3.153c-0.806-0.572-2.287-1.444-2.382-2.589
		c-0.026-0.354,0.066-0.708,0.269-1c0.113-0.161,0.256-0.303,0.417-0.409c0.14-0.093,0.295-0.16,0.461-0.193
		c0.92-0.184,4.008,2.199,4.738,2.716c0.66,0.467,1.485,1.106,2.104,1.632c-0.342-0.29-0.712-0.663-0.816-1.127
		c-0.146-0.645,0.077-1.371,0.608-1.722c0.007-0.007,0.015-0.011,0.021-0.015c0.268-0.179,0.657-0.143,0.981-0.095
		c0.22,0.032,0.722,0.376,0.929,0.31c0.022-0.006,0.065,0.019,0.082,0.007c0.198-0.13,0.021-0.505,0.025-0.706
		c0.005-0.291,0.115-0.585,0.27-0.805c0.111-0.158,0.254-0.291,0.414-0.397c0.227-0.147,0.49-0.237,0.766-0.249
		c0.297-0.018,0.863,0.229,1.149,0.039c0.063-0.04,0.113-0.105,0.144-0.197c0.103-0.304-0.028-0.689,0.082-1.015
		c0.067-0.208,0.197-0.364,0.367-0.479c0.053-0.033,0.11-0.064,0.17-0.091c0.438-0.199,0.961-0.219,1.418-0.066
		c0.086,0.028,0.17,0.068,0.246,0.114c0.351,0.206,0.59,0.556,0.854,0.866c0.383,0.45,0.769,0.897,1.146,1.351
		c0.914,1.101,1.818,2.209,2.666,3.358c0.279,0.376,0.611,0.731,0.855,1.138C35.732,31.439,36.464,31.999,36.643,32.678z"/>
</g>
</svg>
