<?xml version="1.0" encoding="utf-8"?>
<!-- Generator: Adobe Illustrator 16.0.0, SVG Export Plug-In . SVG Version: 6.00 Build 0)  -->
<!DOCTYPE svg PUBLIC "-//W3C//DTD SVG 1.1//EN" "http://www.w3.org/Graphics/SVG/1.1/DTD/svg11.dtd">
<svg version="1.1" id="Layer_1" xmlns="http://www.w3.org/2000/svg" xmlns:xlink="http://www.w3.org/1999/xlink" x="0px" y="0px"
	 width="48px" height="48px" viewBox="0 0 48 48" enable-background="new 0 0 48 48" xml:space="preserve">
<g>
	<g>
		<polygon fill="#666666" points="5.115,14.493 10.451,16.29 10.451,24.189 13.873,25.331 13.873,17.442 19.576,19.364 
			19.461,37.006 5,32.135 		"/>
		<polygon fill="#666666" points="37.238,15.244 37.123,32.902 21.461,37.075 21.576,19.417 		"/>
		<polygon fill="#666666" points="29.287,11.467 35.551,13.624 20.615,17.604 15.773,15.972 		"/>
		<polygon fill="#666666" points="6.887,12.979 22.123,9 26.176,10.396 12.627,14.913 		"/>
		<polygon fill="#FFFFFF" points="10.451,24.189 10.451,16.29 11.123,16.517 13.123,17.19 13.873,17.442 13.873,25.331 		"/>
		<polygon fill="#FFFFFF" points="12.627,14.913 26.176,10.396 29.287,11.467 15.773,15.972 		"/>
	</g>
	<g>
		<g>
			<polygon fill="#333333" points="29.271,28.403 33.369,28.403 33.369,21.635 41.293,21.635 41.293,28.403 45.119,28.403 
				37.195,38.968 			"/>
			<path fill="#FFFFFF" d="M40.793,22.135v6.768h3.326l-6.924,9.232l-6.924-9.232h3.598v-6.768H40.793 M41.793,21.135h-1h-6.924h-1
				v1v5.768h-2.598h-2l1.2,1.6l6.924,9.232l0.8,1.066l0.8-1.066l6.924-9.232l1.2-1.6h-2h-2.326v-5.768V21.135L41.793,21.135z"/>
		</g>
	</g>
</g>
</svg>
