<?xml version="1.0" encoding="utf-8"?>
<!-- Generator: Adobe Illustrator 16.0.0, SVG Export Plug-In . SVG Version: 6.00 Build 0)  -->
<!DOCTYPE svg PUBLIC "-//W3C//DTD SVG 1.1//EN" "http://www.w3.org/Graphics/SVG/1.1/DTD/svg11.dtd">
<svg version="1.1" id="Layer_1" xmlns="http://www.w3.org/2000/svg" xmlns:xlink="http://www.w3.org/1999/xlink" x="0px" y="0px"
	 width="48px" height="48px" viewBox="0 0 48 48" enable-background="new 0 0 48 48" xml:space="preserve">
<g>
	<rect x="6" y="5" fill="#333333" width="36" height="36"/>
	<rect x="8" y="13" fill="#666666" width="32" height="26"/>
	<rect x="8" y="31" fill="#FFFFFF" width="10" height="8"/>
	<rect x="8" y="22" fill="#B2B2B2" width="10" height="8"/>
	<rect x="8" y="13" fill="#FFFFFF" width="10" height="8"/>
	<rect x="19" y="31" fill="#FFFFFF" width="10" height="8"/>
	<rect x="19" y="22" fill="#B2B2B2" width="10" height="8"/>
	<rect x="19" y="13" fill="#FFFFFF" width="10" height="8"/>
	<rect x="30" y="31" fill="#FFFFFF" width="10" height="8"/>
	<rect x="30" y="22" fill="#B2B2B2" width="10" height="8"/>
	<rect x="30" y="13" fill="#FFFFFF" width="10" height="8"/>
	<rect x="18" y="22" fill="#989898" width="0.999" height="8"/>
	<rect x="29" y="22" fill="#989898" width="0.999" height="8"/>
	<g>
		<path fill="#333333" d="M34.505,44.5c-0.55,0-1.132-0.383-1.6-0.69c-0.092-0.061-0.177-0.117-0.249-0.161
			c-0.429-0.258-0.848-0.535-1.267-0.812l-0.572-0.376c-0.746-0.481-1.545-0.913-2.318-1.331l-0.804-0.432
			c-1.058-0.556-2.373-1.248-2.733-2.594c-0.099-0.373-0.046-0.74,0.016-0.982c0.162-0.627,0.616-1.142,1.216-1.38
			c0.214-0.085,0.448-0.129,0.697-0.129c0.761,0,1.535,0.392,2.231,0.766c-0.222-1-0.611-2.42-0.803-3.037
			c-0.673-2.156-0.894-2.761-1.718-4.889l-0.135-0.335c-0.422-1.038-0.999-2.46-0.396-3.558c0.228-0.414,0.593-0.736,1.028-0.909
			c0.247-0.099,0.504-0.149,0.761-0.149c0.238,0,0.467,0.044,0.679,0.13c0.799,0.325,1.574,2.045,2.565,4.714l0.167,0.444
			c0.081,0.208,0.166,0.434,0.25,0.668c0.374-0.404,0.919-0.638,1.538-0.638c0.511,0.003,0.915,0.149,1.23,0.434
			c0.095,0.085,0.177,0.198,0.261,0.318c0.021-0.042,0.043-0.084,0.07-0.124c0.214-0.313,0.54-0.574,0.896-0.716
			c0.24-0.095,0.493-0.143,0.751-0.143c0.363,0,0.72,0.097,1.03,0.279c0.146,0.085,0.273,0.211,0.398,0.334
			c0.066,0.065,0.178,0.174,0.256,0.232c0.043-0.053,0.089-0.129,0.135-0.204c0.104-0.171,0.233-0.385,0.443-0.548
			c0.256-0.199,0.552-0.3,0.879-0.3c0.089,0,0.181,0.007,0.273,0.022c0.591,0.093,1.15,0.425,1.531,0.91
			c0.078,0.1,0.146,0.209,0.2,0.325c0.182,0.368,0.222,0.767,0.256,1.119l0.074,0.631c0.057,0.455,0.113,0.909,0.163,1.363
			c0.141,1.267,0.295,2.769,0.375,4.3c0.009,0.157,0.024,0.316,0.039,0.476c0.03,0.321,0.062,0.653,0.048,0.994
			c-0.01,0.223,0.023,0.487,0.06,0.767c0.064,0.506,0.138,1.079-0.038,1.598c-0.253,0.745-1.012,0.977-1.565,1.146
			c-0.128,0.039-0.252,0.077-0.361,0.119c-0.7,0.274-1.4,0.554-2.1,0.834l-2.522,1.006c-0.099,0.039-0.209,0.099-0.323,0.16
			c-0.274,0.146-0.585,0.312-0.897,0.343L34.505,44.5z"/>
		<path fill="#FFFFFF" d="M27.859,24c0.168,0,0.334,0.029,0.49,0.093c0.868,0.354,2.13,4.045,2.455,4.877
			c0.293,0.749,0.626,1.727,0.853,2.503c0.003,0.011,0.007,0.022,0.01,0.034c-0.003-0.011-0.007-0.022-0.01-0.034
			c-0.123-0.421-0.222-0.776-0.055-1.213c0.233-0.616,0.82-0.942,1.456-0.942c0.009,0,0.017,0,0.025,0
			c0.321,0.002,0.628,0.086,0.87,0.305c0.166,0.149,0.396,0.63,0.604,0.69c0.023,0.007,0.045,0.01,0.065,0.01
			c0.239,0,0.297-0.429,0.41-0.596c0.164-0.241,0.42-0.434,0.667-0.532c0.182-0.072,0.374-0.107,0.565-0.107
			c0.271,0,0.54,0.071,0.777,0.21c0.259,0.152,0.592,0.666,0.937,0.666c0.076,0,0.153-0.025,0.23-0.086
			c0.253-0.198,0.355-0.591,0.626-0.802c0.173-0.135,0.365-0.195,0.571-0.195c0.062,0,0.127,0.005,0.192,0.016
			c0.476,0.075,0.922,0.347,1.219,0.725c0.057,0.072,0.104,0.151,0.143,0.231c0.18,0.365,0.187,0.789,0.235,1.195
			c0.072,0.587,0.147,1.173,0.212,1.758c0.157,1.419,0.298,2.844,0.373,4.271c0.025,0.469,0.106,0.949,0.086,1.422
			c-0.03,0.693,0.272,1.562,0.048,2.227c-0.218,0.643-1.085,0.746-1.634,0.959c-1.107,0.434-2.21,0.881-3.315,1.32
			c-0.437,0.174-0.873,0.348-1.311,0.521c-0.317,0.125-0.753,0.438-1.086,0.471C34.549,43.999,34.527,44,34.505,44
			c-0.499,0-1.201-0.543-1.59-0.779c-0.62-0.373-1.217-0.785-1.825-1.18c-0.899-0.58-1.841-1.072-2.778-1.582
			c-1.063-0.578-2.523-1.201-2.866-2.484c-0.062-0.234-0.042-0.5,0.017-0.73c0.122-0.471,0.465-0.859,0.916-1.039
			c0.163-0.065,0.335-0.093,0.513-0.093c0.967,0,2.113,0.83,2.895,1.167c-0.041-0.742-0.76-3.352-0.988-4.087
			c-0.679-2.175-0.905-2.795-1.729-4.921c-0.357-0.921-1.11-2.466-0.559-3.472c0.171-0.311,0.444-0.554,0.774-0.685
			C27.468,24.041,27.664,24,27.859,24 M27.859,23L27.859,23c-0.321,0-0.641,0.062-0.949,0.186c-0.539,0.214-0.994,0.616-1.277,1.131
			c-0.718,1.307-0.062,2.919,0.371,3.987c0.047,0.117,0.092,0.227,0.131,0.329c0.82,2.115,1.039,2.716,1.707,4.857
			c0.144,0.46,0.357,1.231,0.546,1.97c-0.478-0.2-0.985-0.348-1.497-0.349c-0.312,0-0.609,0.055-0.883,0.164
			c-0.746,0.297-1.312,0.939-1.514,1.717c-0.078,0.305-0.143,0.763-0.015,1.239c0.416,1.558,1.899,2.338,2.983,2.908
			c0.127,0.067,0.252,0.132,0.371,0.197l0.428,0.232c0.8,0.432,1.555,0.841,2.286,1.312c0.188,0.122,0.377,0.247,0.566,0.373
			c0.425,0.281,0.85,0.562,1.285,0.824c0.065,0.04,0.145,0.092,0.231,0.149C33.127,44.553,33.806,45,34.505,45
			c0.058,0,0.114-0.003,0.17-0.009c0.406-0.041,0.778-0.239,1.078-0.399c0.096-0.052,0.188-0.104,0.27-0.136l1.301-0.518
			l1.226-0.489c0.699-0.28,1.397-0.56,2.098-0.834c0.097-0.037,0.208-0.07,0.324-0.105c0.582-0.178,1.558-0.476,1.893-1.464
			c0.213-0.629,0.132-1.263,0.061-1.822c-0.033-0.258-0.064-0.501-0.057-0.682c0.017-0.376-0.019-0.741-0.049-1.062
			c-0.015-0.153-0.029-0.306-0.037-0.457c-0.082-1.542-0.237-3.053-0.378-4.327c-0.051-0.456-0.107-0.912-0.164-1.369l-0.05-0.401
			l-0.022-0.218c-0.037-0.375-0.084-0.841-0.308-1.297c-0.065-0.137-0.152-0.277-0.253-0.406c-0.458-0.584-1.133-0.983-1.851-1.096
			c-0.114-0.019-0.232-0.028-0.348-0.028c-0.435,0-0.845,0.14-1.186,0.406c-0.152,0.119-0.271,0.251-0.365,0.379
			c-0.091-0.082-0.192-0.163-0.307-0.229c-0.388-0.228-0.832-0.348-1.284-0.348c-0.321,0-0.636,0.06-0.933,0.177
			c-0.299,0.119-0.579,0.304-0.812,0.529c-0.388-0.307-0.88-0.472-1.432-0.475l0,0c-0.491,0-0.947,0.12-1.335,0.336
			c-0.007-0.016-0.013-0.032-0.019-0.048c-0.041-0.104-0.097-0.253-0.164-0.436c-1.258-3.387-1.976-4.649-2.846-5.003
			C28.455,23.056,28.163,23,27.859,23L27.859,23L27.859,23z"/>
	</g>
</g>
</svg>
