<?xml version="1.0" encoding="utf-8"?>
<!-- Generator: Adobe Illustrator 16.0.0, SVG Export Plug-In . SVG Version: 6.00 Build 0)  -->
<!DOCTYPE svg PUBLIC "-//W3C//DTD SVG 1.1//EN" "http://www.w3.org/Graphics/SVG/1.1/DTD/svg11.dtd">
<svg version="1.1" id="Layer_1" xmlns="http://www.w3.org/2000/svg" xmlns:xlink="http://www.w3.org/1999/xlink" x="0px" y="0px"
	 width="48px" height="48px" viewBox="0 0 48 48" enable-background="new 0 0 48 48" xml:space="preserve">
<g>
	<rect x="6" y="5" fill="#333333" width="36" height="36"/>
	<rect x="8" y="13" fill="#666666" width="32" height="26"/>
	<rect x="8" y="31" fill="#FFFFFF" width="10" height="8"/>
	<rect x="8" y="22" fill="#FFFFFF" width="10" height="8"/>
	<rect x="8" y="13" fill="#FFFFFF" width="10" height="8"/>
	<rect x="19" y="31" fill="#B2B2B2" width="10" height="8"/>
	<rect x="19" y="22" fill="#B2B2B2" width="10" height="8"/>
	<rect x="19" y="13" fill="#B2B2B2" width="10" height="8"/>
	<rect x="30" y="31" fill="#FFFFFF" width="10" height="8"/>
	<rect x="30" y="22" fill="#FFFFFF" width="10" height="8"/>
	<rect x="30" y="13" fill="#FFFFFF" width="10" height="8"/>
	<rect x="19" y="21" fill="#989898" width="10" height="1"/>
	<rect x="19" y="30" fill="#989898" width="10" height="1"/>
	<g>
		<path fill="#333333" d="M34.504,44.5c-0.549,0-1.132-0.383-1.6-0.691c-0.092-0.061-0.176-0.116-0.248-0.16
			c-0.429-0.258-0.849-0.536-1.268-0.813l-0.57-0.375c-0.748-0.482-1.549-0.916-2.324-1.334l-0.799-0.429
			c-1.057-0.556-2.373-1.248-2.732-2.594c-0.1-0.373-0.047-0.74,0.015-0.982c0.162-0.626,0.616-1.142,1.215-1.38
			c0.214-0.085,0.449-0.129,0.698-0.129c0.76,0,1.535,0.391,2.231,0.766c-0.222-0.999-0.611-2.419-0.803-3.037
			c-0.672-2.156-0.893-2.76-1.718-4.889l-0.135-0.336c-0.421-1.038-0.999-2.46-0.396-3.557c0.228-0.414,0.593-0.736,1.029-0.909
			c0.247-0.099,0.503-0.149,0.76-0.149c0.238,0,0.466,0.044,0.679,0.13c0.799,0.325,1.574,2.045,2.565,4.714
			c0,0,0.333,0.878,0.417,1.111c0.374-0.404,0.919-0.638,1.538-0.638c0.51,0.003,0.915,0.149,1.23,0.433
			c0.095,0.086,0.177,0.199,0.26,0.319c0.021-0.043,0.044-0.085,0.072-0.125c0.213-0.312,0.54-0.573,0.895-0.715
			c0.24-0.095,0.492-0.143,0.75-0.143c0.364,0,0.72,0.097,1.03,0.279c0.145,0.085,0.273,0.211,0.397,0.333
			c0.067,0.066,0.178,0.175,0.257,0.232c0.042-0.053,0.088-0.129,0.133-0.203c0.105-0.172,0.235-0.386,0.445-0.549
			c0.255-0.199,0.551-0.3,0.878-0.3c0.089,0,0.18,0.007,0.273,0.022c0.591,0.093,1.151,0.425,1.532,0.91
			c0.079,0.101,0.146,0.211,0.201,0.327c0.18,0.365,0.22,0.763,0.255,1.114l0.082,0.696c0.054,0.434,0.107,0.867,0.156,1.3
			c0.141,1.276,0.295,2.785,0.375,4.3c0.008,0.158,0.023,0.317,0.039,0.478c0.03,0.32,0.062,0.651,0.047,0.991
			c-0.01,0.223,0.024,0.488,0.06,0.768c0.065,0.506,0.138,1.079-0.038,1.598c-0.253,0.745-1.012,0.977-1.566,1.146
			c-0.128,0.039-0.252,0.076-0.361,0.119c-0.699,0.274-1.398,0.554-2.097,0.833l-2.525,1.007c-0.098,0.039-0.208,0.099-0.323,0.16
			c-0.274,0.146-0.585,0.312-0.898,0.343L34.504,44.5z"/>
		<path fill="#FFFFFF" d="M27.86,24c0.167,0,0.333,0.029,0.49,0.093c0.868,0.354,2.13,4.045,2.455,4.877
			c0.294,0.754,0.631,1.743,0.857,2.521c0.001,0.005,0.003,0.01,0.004,0.015c-0.001-0.005-0.003-0.01-0.004-0.015
			c-0.125-0.43-0.229-0.789-0.06-1.231c0.233-0.616,0.82-0.942,1.457-0.942c0.008,0,0.017,0,0.025,0
			c0.321,0.002,0.627,0.086,0.87,0.305c0.166,0.149,0.396,0.63,0.604,0.69c0.023,0.007,0.045,0.01,0.065,0.01
			c0.239,0,0.296-0.429,0.41-0.596c0.164-0.241,0.419-0.434,0.667-0.532c0.182-0.072,0.374-0.107,0.565-0.107
			c0.271,0,0.54,0.071,0.777,0.21c0.259,0.152,0.592,0.666,0.937,0.666c0.077,0,0.154-0.025,0.231-0.086
			c0.252-0.198,0.355-0.591,0.626-0.802c0.173-0.135,0.365-0.195,0.571-0.195c0.062,0,0.126,0.005,0.192,0.016
			c0.476,0.075,0.922,0.347,1.219,0.725c0.057,0.072,0.104,0.151,0.142,0.231c0.18,0.365,0.187,0.789,0.236,1.195
			c0.072,0.587,0.147,1.173,0.212,1.758c0.157,1.419,0.298,2.844,0.373,4.271c0.025,0.469,0.106,0.949,0.086,1.422
			c-0.03,0.693,0.272,1.562,0.048,2.227c-0.218,0.643-1.085,0.746-1.634,0.959c-1.107,0.434-2.21,0.881-3.315,1.32
			c-0.437,0.174-0.873,0.348-1.311,0.521c-0.317,0.125-0.753,0.438-1.086,0.471C34.549,43.999,34.527,44,34.504,44
			c-0.498,0-1.201-0.543-1.589-0.779c-0.621-0.373-1.217-0.785-1.826-1.18c-0.899-0.58-1.84-1.072-2.778-1.582
			c-1.063-0.578-2.523-1.201-2.866-2.484c-0.062-0.234-0.042-0.5,0.017-0.73c0.122-0.471,0.465-0.859,0.916-1.039
			c0.163-0.065,0.335-0.093,0.513-0.093c0.966,0,2.113,0.83,2.894,1.167c-0.041-0.742-0.76-3.352-0.988-4.087
			c-0.678-2.175-0.905-2.795-1.729-4.921c-0.357-0.921-1.111-2.466-0.559-3.472c0.171-0.311,0.444-0.554,0.774-0.685
			C27.468,24.041,27.665,24,27.86,24 M27.86,23L27.86,23c-0.321,0-0.641,0.062-0.949,0.186c-0.539,0.214-0.995,0.616-1.278,1.131
			c-0.718,1.306-0.063,2.919,0.371,3.986c0.047,0.117,0.092,0.227,0.132,0.329c0.82,2.115,1.039,2.716,1.707,4.857
			c0.143,0.46,0.357,1.231,0.545,1.97c-0.477-0.2-0.985-0.348-1.496-0.349c-0.313,0-0.61,0.055-0.883,0.164
			c-0.747,0.298-1.312,0.94-1.514,1.718c-0.077,0.304-0.142,0.762-0.015,1.238c0.416,1.558,1.899,2.338,2.982,2.908
			c0.128,0.067,0.252,0.132,0.372,0.197l0.422,0.229c0.802,0.434,1.56,0.843,2.292,1.315c0.188,0.122,0.376,0.246,0.564,0.371
			c0.425,0.281,0.851,0.562,1.288,0.825c0.064,0.039,0.143,0.091,0.229,0.148C33.126,44.552,33.806,45,34.504,45
			c0.058,0,0.115-0.003,0.171-0.009c0.406-0.041,0.779-0.24,1.078-0.399c0.097-0.051,0.188-0.104,0.27-0.136l1.313-0.522
			l1.215-0.485c0.698-0.28,1.396-0.559,2.095-0.833c0.096-0.037,0.208-0.07,0.323-0.105c0.583-0.178,1.558-0.476,1.893-1.463
			c0.213-0.63,0.132-1.264,0.061-1.823c-0.033-0.258-0.064-0.501-0.056-0.682c0.016-0.376-0.019-0.74-0.049-1.061
			c-0.015-0.154-0.029-0.307-0.038-0.458c-0.08-1.527-0.235-3.044-0.377-4.327c-0.048-0.436-0.103-0.871-0.156-1.307l-0.057-0.462
			l-0.023-0.222c-0.038-0.374-0.084-0.839-0.308-1.294c-0.062-0.133-0.15-0.276-0.252-0.406c-0.458-0.584-1.133-0.983-1.851-1.096
			c-0.114-0.019-0.231-0.028-0.347-0.028c-0.436,0-0.846,0.141-1.187,0.407c-0.152,0.118-0.269,0.25-0.364,0.378
			c-0.092-0.082-0.193-0.163-0.307-0.229c-0.387-0.228-0.831-0.348-1.284-0.348c-0.321,0-0.635,0.06-0.933,0.177
			c-0.298,0.119-0.579,0.303-0.812,0.529c-0.389-0.308-0.881-0.472-1.432-0.476h0c-0.491,0-0.947,0.12-1.335,0.336
			c-0.006-0.016-0.012-0.032-0.018-0.047c-0.041-0.104-0.096-0.253-0.164-0.436c-1.258-3.387-1.976-4.649-2.845-5.004
			C28.455,23.056,28.163,23,27.86,23L27.86,23L27.86,23z"/>
	</g>
</g>
</svg>
