<?xml version="1.0" encoding="utf-8"?>
<!-- Generator: Adobe Illustrator 16.1.0, SVG Export Plug-In . SVG Version: 6.00 Build 0)  -->
<!DOCTYPE svg PUBLIC "-//W3C//DTD SVG 1.1//EN" "http://www.w3.org/Graphics/SVG/1.1/DTD/svg11.dtd">
<svg version="1.1" id="Layer_1" xmlns="http://www.w3.org/2000/svg" xmlns:xlink="http://www.w3.org/1999/xlink" x="0px" y="0px"
	 width="48px" height="48px" viewBox="0 0 48 48" enable-background="new 0 0 48 48" xml:space="preserve">
<g>
	<path fill="#666666" d="M42,21.111l-17-2v-2.252C24.679,16.942,24.348,17,24,17s-0.679-0.058-1-0.142v2.252l-17,2V25h2v-2.111
		l15-1.765V28h2v-6.875l15,1.765V25h2V21.111z"/>
	<polygon fill="#333333" points="8,25 6,25 3,25 3,33 11,33 11,25 	"/>
	<polygon fill="#333333" points="42,25 40,25 37,25 37,33 45,33 45,25 	"/>
	<path fill="#333333" d="M24,9c-2.209,0-4,1.79-4,4c0,1.862,1.278,3.413,3,3.858C23.321,16.942,23.652,17,24,17s0.679-0.058,1-0.142
		c1.722-0.446,3-1.996,3-3.858C28,10.79,26.208,9,24,9z"/>
	<polygon fill="#333333" points="13,28 13,39 35,39 35,28 25,28 23,28 	"/>
	<g>
		<path fill="#FFFFFF" d="M15.657,30.871c0.529-0.541,1.203-0.812,2.021-0.812c1.094,0,1.894,0.363,2.4,1.088
			c0.279,0.408,0.428,0.816,0.449,1.227h-1.373c-0.088-0.314-0.199-0.553-0.337-0.713c-0.245-0.285-0.607-0.428-1.087-0.428
			c-0.49,0-0.876,0.201-1.158,0.604c-0.283,0.402-0.424,0.975-0.424,1.711s0.148,1.289,0.447,1.656
			c0.298,0.367,0.676,0.551,1.136,0.551c0.472,0,0.831-0.156,1.077-0.473c0.138-0.17,0.25-0.424,0.341-0.762h1.364
			c-0.117,0.717-0.418,1.299-0.902,1.748c-0.482,0.449-1.104,0.674-1.859,0.674c-0.936,0-1.671-0.305-2.206-0.91
			c-0.536-0.609-0.803-1.445-0.803-2.508C14.744,32.377,15.047,31.492,15.657,30.871z"/>
	</g>
	<g>
		<path fill="#FFFFFF" d="M25.706,35.367h-0.731v1.391H23.73v-1.391h-2.56v-1.111l2.377-3.924h1.427v4.041h0.731V35.367z
			 M23.73,34.373v-2.787l-1.614,2.787H23.73z"/>
	</g>
	<g>
		<path fill="#FFFFFF" d="M26.581,35.424h1.352v1.334h-1.352V35.424z"/>
	</g>
	<g>
		<path fill="#FFFFFF" d="M30.054,35.027c0.05,0.277,0.146,0.488,0.289,0.641c0.142,0.15,0.35,0.225,0.622,0.225
			c0.315,0,0.555-0.111,0.719-0.332c0.165-0.223,0.247-0.5,0.247-0.836c0-0.33-0.076-0.609-0.231-0.836
			c-0.154-0.229-0.394-0.342-0.721-0.342c-0.154,0-0.287,0.018-0.4,0.059c-0.198,0.07-0.348,0.203-0.449,0.396l-1.139-0.055
			l0.453-3.572h3.559v1.08h-2.642l-0.231,1.414c0.196-0.129,0.35-0.213,0.459-0.254c0.184-0.068,0.408-0.104,0.672-0.104
			c0.535,0,1.001,0.18,1.398,0.539c0.398,0.361,0.598,0.885,0.598,1.57c0,0.598-0.192,1.131-0.574,1.602
			c-0.385,0.469-0.957,0.705-1.721,0.705c-0.615,0-1.119-0.166-1.515-0.496s-0.614-0.797-0.659-1.404H30.054z"/>
	</g>
</g>
</svg>
