<?xml version="1.0" encoding="utf-8"?>
<!-- Generator: Adobe Illustrator 16.0.0, SVG Export Plug-In . SVG Version: 6.00 Build 0)  -->
<!DOCTYPE svg PUBLIC "-//W3C//DTD SVG 1.1//EN" "http://www.w3.org/Graphics/SVG/1.1/DTD/svg11.dtd">
<svg version="1.1" id="Layer_1" xmlns="http://www.w3.org/2000/svg" xmlns:xlink="http://www.w3.org/1999/xlink" x="0px" y="0px"
	 width="48px" height="48px" viewBox="0 0 48 48" enable-background="new 0 0 48 48" xml:space="preserve">
<g>
	<g>
		<line fill="none" stroke="#666666" stroke-width="2" stroke-miterlimit="10" x1="24" y1="28" x2="24" y2="16"/>
		<polyline fill="none" stroke="#666666" stroke-width="2" stroke-miterlimit="10" points="7,27 7,22 24,20 41,22 41,27 		"/>
		<rect x="3" y="25" fill="#333333" width="8" height="8"/>
		<rect x="37" y="25" fill="#333333" width="8" height="8"/>
		<circle fill="#333333" cx="24" cy="13" r="4"/>
	</g>
	<g>
		<rect x="13" y="28" fill="#333333" width="22" height="11"/>
		<path fill="#FFFFFF" d="M15.656,30.871c0.529-0.541,1.203-0.812,2.021-0.812c1.094,0,1.895,0.363,2.4,1.088
			c0.279,0.408,0.428,0.816,0.449,1.227h-1.373c-0.088-0.314-0.199-0.553-0.336-0.713c-0.246-0.285-0.607-0.428-1.088-0.428
			c-0.49,0-0.875,0.201-1.158,0.604s-0.424,0.975-0.424,1.711s0.148,1.289,0.447,1.656s0.676,0.551,1.137,0.551
			c0.471,0,0.83-0.156,1.076-0.473c0.139-0.17,0.25-0.424,0.342-0.762h1.363c-0.117,0.717-0.418,1.299-0.902,1.748
			c-0.482,0.449-1.104,0.674-1.859,0.674c-0.936,0-1.67-0.305-2.205-0.91c-0.537-0.609-0.803-1.445-0.803-2.508
			C14.744,32.377,15.047,31.492,15.656,30.871z"/>
		<path fill="#FFFFFF" d="M25.705,35.367h-0.73v1.391H23.73v-1.391H21.17v-1.111l2.377-3.924h1.428v4.041h0.73V35.367z
			 M23.73,34.373v-2.787l-1.615,2.787H23.73z"/>
		<path fill="#FFFFFF" d="M26.58,35.424h1.352v1.334H26.58V35.424z"/>
		<path fill="#FFFFFF" d="M30.055,35.027c0.049,0.277,0.145,0.488,0.289,0.641c0.141,0.15,0.35,0.225,0.621,0.225
			c0.316,0,0.555-0.111,0.719-0.332c0.166-0.223,0.248-0.5,0.248-0.836c0-0.33-0.076-0.609-0.232-0.836
			c-0.154-0.229-0.393-0.342-0.721-0.342c-0.154,0-0.287,0.018-0.4,0.059c-0.197,0.07-0.348,0.203-0.449,0.396l-1.139-0.055
			l0.453-3.572h3.559v1.08h-2.641l-0.232,1.414c0.197-0.129,0.35-0.213,0.459-0.254c0.184-0.068,0.408-0.104,0.672-0.104
			c0.535,0,1.002,0.18,1.398,0.539c0.398,0.361,0.598,0.885,0.598,1.57c0,0.598-0.191,1.131-0.574,1.602
			c-0.385,0.469-0.957,0.705-1.721,0.705c-0.615,0-1.119-0.166-1.514-0.496c-0.396-0.33-0.615-0.797-0.66-1.404H30.055z"/>
	</g>
</g>
</svg>
