<?xml version="1.0" encoding="utf-8"?>
<!-- Generator: Adobe Illustrator 16.0.0, SVG Export Plug-In . SVG Version: 6.00 Build 0)  -->
<!DOCTYPE svg PUBLIC "-//W3C//DTD SVG 1.1//EN" "http://www.w3.org/Graphics/SVG/1.1/DTD/svg11.dtd">
<svg version="1.1" id="Layer_1" xmlns="http://www.w3.org/2000/svg" xmlns:xlink="http://www.w3.org/1999/xlink" x="0px" y="0px"
	 width="48px" height="48px" viewBox="0 0 48 48" enable-background="new 0 0 48 48" xml:space="preserve">
<g>
	<g>
		<polygon fill="#666666" points="38,16 36,16 36,11.858 24,10.012 12,11.858 12,16 10,16 10,10.142 24,7.988 38,10.142 		"/>
	</g>
	<g>
		<polygon fill="#666666" points="36,27.166 36,34 38,34 38,27.166 37,27.012 		"/>
		<polygon fill="#666666" points="36,21 36,25.143 37,24.988 38,25.143 38,21 		"/>
		<polygon fill="#666666" points="23,27.142 23,33 25,33 25,28.858 36,27.166 36,25.143 		"/>
		<polygon fill="#666666" points="38,25.143 38,27.166 42,27.781 42,25.758 		"/>
		<polygon fill="#666666" points="36,25.143 36,27.166 37,27.012 38,27.166 38,25.143 37,24.988 		"/>
		<rect x="23" y="6" fill="#666666" width="2" height="11"/>
		<rect x="23" y="35" fill="#666666" width="2" height="7"/>
	</g>
	<rect x="7" y="14" fill="#333333" width="8" height="8"/>
	<rect x="20" y="16" fill="#333333" width="8" height="8"/>
	<rect x="33" y="33" fill="#333333" width="8" height="8"/>
	<circle fill="#333333" cx="24" cy="35" r="4"/>
	<circle fill="#333333" cx="37" cy="18" r="4"/>
</g>
</svg>
