<?xml version="1.0" encoding="utf-8"?>
<!-- Generator: Adobe Illustrator 16.0.0, SVG Export Plug-In . SVG Version: 6.00 Build 0)  -->
<!DOCTYPE svg PUBLIC "-//W3C//DTD SVG 1.1//EN" "http://www.w3.org/Graphics/SVG/1.1/DTD/svg11.dtd">
<svg version="1.1" id="Layer_1" xmlns="http://www.w3.org/2000/svg" xmlns:xlink="http://www.w3.org/1999/xlink" x="0px" y="0px"
	 width="48px" height="48px" viewBox="0 0 48 48" enable-background="new 0 0 48 48" xml:space="preserve">
<g>
	<rect x="34" y="20" fill="#333333" width="7" height="7"/>
	<path fill="#333333" d="M9.692,20.097c-1.883,0.446-3.045,2.336-2.596,4.216s2.336,3.042,4.216,2.591
		c1.877-0.444,3.04-2.331,2.592-4.211C13.459,20.81,11.57,19.647,9.692,20.097z"/>
	<path fill="#333333" d="M17.692,20.097c-1.883,0.447-3.045,2.336-2.596,4.216s2.336,3.041,4.216,2.591
		c1.877-0.445,3.04-2.332,2.592-4.211C21.459,20.811,19.57,19.648,17.692,20.097z"/>
	<g>
		<line fill="none" stroke="#666666" stroke-width="2" stroke-miterlimit="10" x1="23" y1="23.5" x2="30.748" y2="23.5"/>
		<polygon fill="#666666" points="28,20 33,23.5 28,27 		"/>
	</g>
</g>
</svg>
