<?xml version="1.0" encoding="utf-8"?>
<!-- Generator: Adobe Illustrator 16.1.0, SVG Export Plug-In . SVG Version: 6.00 Build 0)  -->
<!DOCTYPE svg PUBLIC "-//W3C//DTD SVG 1.1//EN" "http://www.w3.org/Graphics/SVG/1.1/DTD/svg11.dtd">
<svg version="1.1" id="Layer_1" xmlns="http://www.w3.org/2000/svg" xmlns:xlink="http://www.w3.org/1999/xlink" x="0px" y="0px"
	 width="48px" height="48px" viewBox="0 0 48 48" enable-background="new 0 0 48 48" xml:space="preserve">
<path fill="#666666" d="M39.504,21.594l0.176-0.361l-0.971-0.409c0.018-0.4,0.293-0.601,0.498-0.666
	c0.377-0.123,0.316-0.309,0.143-0.412c-0.371-0.223-0.168-0.652-0.168-0.652l-0.494-0.197c-0.053,0.109-0.146,0.199-0.221,0.296
	c-0.172,0.22-0.49-0.037-0.576,0.022c-0.342,0.239,0.297,0.461,0.039,0.945c-0.205,0.382-0.205,0.312-0.641,0.023
	c-0.113-0.074-0.227-0.174-0.355-0.206c-0.139-0.039-0.295-0.007-0.371,0.126c-0.314,0.541,0.725,0.559,0.979,0.726
	c0.01,0.005-0.133,0.286-0.143,0.309c-0.041-0.015-0.08-0.02-0.119-0.037c-0.262-0.11-0.516-0.28-0.785-0.362
	c-0.031,0.041-0.129,0.293-0.158,0.336c0.068,0.03,0.84,0.406,0.842,0.405c-0.01,0.017-2.426,4.879-2.426,4.879
	c0.021-0.034-0.662-0.138-0.723-0.141c-0.232-0.009-0.463,0.016-0.691,0.057c-0.451,0.085-0.9,0.242-1.271,0.522
	c-0.473,0.355-0.719,0.928-0.859,1.486c-0.064,0.251-0.107,0.51-0.129,0.769c-0.008,0.085,0.014,0.213-0.012,0.295
	c-0.084,0.278-0.357,0.347-0.508,0.505c-0.146,0.158,0.102,0.335,0.475,0.447c0.322,0.097-0.043,1.014-0.111,1.201
	c-0.172,0.451-0.422,0.947-0.865,1.188c-0.725,0.391-1.227,0.033-1.227,0.033c-0.149-0.107-0.185,0.189-0.204,0.437
	c0.081,0.177,0.169,0.352,0.284,0.509c0.203,0.275,0.664,0.781,1.02,0.851c0,0,0.598,0.057,0.91-0.284
	c0.279-0.307,0.287,0.389,0.281,0.523c-0.016,0.361-0.209,0.909-0.086,1.264c0.207,0.615,0.27,0.998,0.387,1.635
	c0.146,0.801,0.26,1.664,0.225,2.502c0.592,0.023,1.183-0.042,1.709-0.242c1.033-0.388,1.412-1.508,1.66-2.488
	c0.086-0.35,0.141-0.557,0.176-0.918c0.023-0.205,0.244-0.44,0.336-0.621c0.035-0.064,0.191-0.42-0.02-0.328
	c-0.238,0.102-0.527-0.066-0.527-0.066c-0.166-0.115-0.285-0.479-0.322-0.665c-0.053-0.247-0.033-0.507,0.006-0.758
	c0.086-0.544,0.299-1.093,0.697-1.489c0.135-0.133,0.307-0.247,0.5-0.194c0.121,0.034,0.195,0.172,0.305,0.203
	c0.156,0.046,0.164-0.583,0.207-0.681c0.188-0.434,0.617-0.76,0.854-1.177c0.232-0.416,0.426-0.889,0.451-1.373
	c0.035-0.69-0.4-1.448-0.871-1.935c-0.043-0.045-0.857-0.643-0.875-0.604c0.002-0.006,2.203-4.775,2.203-4.775
	c0.131-0.283,0.348-0.077,0.521,0.056c0.234,0.185,0.359,0.253,0.594,0.261c0.203,0.003,0.312-0.238,0.199-0.436
	c-0.121-0.207-0.428-0.258-0.633-0.26c-0.047-0.001-0.484-0.025-0.443-0.115c0-0.005,0.156-0.373,0.156-0.373L39.504,21.594z"/>
<path fill="#989898" d="M17.115,38.029c0.094-0.383,0.213-0.76,0.354-1.127c0.131-0.337,0.432-0.639,0.475-1.006
	c0.021-0.176-0.645-1.451-0.143-1.354c0,0,0.792,0.146,1.583-0.544c-0.02-0.251-0.038-0.675-0.212-0.551
	c0,0-0.504,0.354-1.229-0.034c-0.443-0.237-0.693-0.734-0.863-1.186c-0.072-0.189-0.434-1.107-0.111-1.205
	c0.369-0.111,0.621-0.287,0.473-0.445c-0.148-0.156-0.426-0.227-0.506-0.504c-0.025-0.083-0.008-0.211-0.012-0.295
	c-0.023-0.261-0.066-0.518-0.129-0.77c-0.139-0.559-0.389-1.129-0.863-1.486c-0.367-0.279-0.818-0.438-1.27-0.521
	c-0.229-0.042-0.461-0.067-0.691-0.061c-0.059,0.003-0.742,0.108-0.725,0.146c0,0-2.414-4.866-2.424-4.884
	c0.004,0.003,0.771-0.372,0.844-0.403c-0.031-0.043-0.127-0.294-0.158-0.336c-0.271,0.081-0.525,0.252-0.787,0.362
	c-0.037,0.017-0.078,0.024-0.117,0.037c-0.012-0.022-0.154-0.304-0.143-0.31c0.252-0.166,1.291-0.184,0.977-0.725
	c-0.076-0.132-0.23-0.165-0.371-0.129c-0.129,0.037-0.242,0.133-0.355,0.209c-0.434,0.291-0.436,0.359-0.643-0.023
	c-0.256-0.482,0.381-0.703,0.041-0.944c-0.084-0.061-0.406,0.196-0.576-0.024c-0.072-0.096-0.168-0.188-0.221-0.295L8.818,19.82
	c0,0,0.203,0.428-0.166,0.652c-0.176,0.104-0.234,0.289,0.141,0.412C9,20.951,9.271,21.15,9.291,21.55L8.32,21.962l0.176,0.357
	l0.975-0.416c0,0,0.154,0.369,0.156,0.375c0.041,0.086-0.395,0.111-0.441,0.111c-0.205,0.003-0.512,0.058-0.633,0.264
	c-0.113,0.193-0.008,0.438,0.199,0.433c0.232-0.007,0.357-0.077,0.592-0.259c0.172-0.135,0.395-0.34,0.521-0.058
	c0,0,2.201,4.773,2.203,4.777c-0.016-0.035-0.832,0.561-0.875,0.605c-0.469,0.486-0.906,1.24-0.873,1.933
	c0.025,0.481,0.221,0.956,0.455,1.374c0.232,0.417,0.664,0.742,0.852,1.176c0.043,0.1,0.051,0.73,0.211,0.682
	c0.105-0.033,0.18-0.168,0.299-0.203c0.197-0.054,0.367,0.062,0.502,0.196c0.402,0.394,0.607,0.941,0.699,1.489
	c0.041,0.25,0.057,0.507,0.004,0.756c-0.039,0.188-0.156,0.547-0.318,0.666c0,0-0.291,0.166-0.527,0.064
	c-0.215-0.091-0.057,0.262-0.021,0.33c0.088,0.179,0.314,0.414,0.332,0.619c0.037,0.359,0.092,0.568,0.18,0.92
	c0.244,0.98,0.625,2.097,1.656,2.487c0.709,0.269,1.536,0.29,2.322,0.179C16.83,39.914,16.891,38.957,17.115,38.029z"/>
<g>
	<path fill="#333333" d="M31.422,37.654c-0.117-0.637-0.18-1.02-0.387-1.635c-0.123-0.354,0.07-0.902,0.086-1.264
		c0.006-0.135-0.002-0.83-0.281-0.523c-0.312,0.341-0.91,0.284-0.91,0.284c-0.355-0.069-0.816-0.575-1.02-0.851
		c-0.115-0.157-0.203-0.332-0.284-0.509c-0.109-0.239-0.2-0.485-0.269-0.736c-0.26-0.955-0.326-2.015,0.037-2.954
		c0.121-0.32,0.312-0.637,0.674-0.695c0.225-0.031,0.443,0.135,0.643,0.107c0.299-0.038-0.158-1.076-0.16-1.27
		c-0.02-0.849,0.447-1.698,0.521-2.561c0.072-0.855,0.037-1.774-0.281-2.581c-0.455-1.161-1.934-2.076-3.062-2.521
		C26.652,19.917,26,19.719,25,19.635v-7.668l1.59-0.118c0.229,0.299,0.674,0.505,1.08,0.505c0.689,0,1.301-0.56,1.301-1.249
		c0-0.69-0.535-1.25-1.225-1.25c-0.457,0-0.827,0.257-1.044,0.623L25.4,10.563l0.013-1.772l1.347-0.114
		c0.225,0.334,0.587,0.567,1.021,0.567c0.689,0,1.251-0.56,1.251-1.249c0-0.69-0.561-1.25-1.25-1.25
		c-0.426,0-0.785,0.228-1.01,0.554l-1.355,0.088c0.006,0-0.01-0.611-0.006-0.688c0.02-0.411,0.174-0.696,0.404-1.027
		c0.229-0.331,0.357-0.725,0.357-1.128c0-1.106-0.896-2.001-2-2.001c-1.105,0-2,0.895-2,2.001c0,0.543,0.254,0.902,0.508,1.351
		c0.322,0.566,0.236,1.189,0.236,1.815l-1.23,0.081c-0.221-0.351-0.594-0.596-1.037-0.596c-0.691,0-1.25,0.559-1.25,1.25
		c0,0.69,0.559,1.249,1.25,1.249c0.412,0,0.76-0.213,0.99-0.497l1.277-0.108l-0.01,1.578l-1.33,0.087
		c-0.229-0.269-0.557-0.448-0.938-0.448c-0.691,0-1.25,0.56-1.25,1.25c0,0.689,0.559,1.249,1.25,1.249
		c0.473,0,0.916-0.273,1.129-0.66L23,12.042v7.614c-1,0.087-1.393,0.344-1.469,0.373c-0.385,0.161-0.77,0.371-1.109,0.61
		c-0.678,0.473-1.311,1.064-1.709,1.796c-0.506,0.935-0.496,2.056-0.311,3.078c0.082,0.457,0.2,0.91,0.356,1.351
		c0.053,0.147,0.183,0.339,0.2,0.494c0.07,0.517-0.329,0.833-0.456,1.201s0.415,0.474,1.104,0.381c0.6-0.081,0.686,1.69,0.711,2.052
		c0.059,0.865,0.018,1.863-0.533,2.582c-0.131,0.172-0.267,0.308-0.401,0.425c-0.791,0.689-1.583,0.544-1.583,0.544
		c-0.502-0.098,0.164,1.178,0.143,1.354c-0.043,0.367-0.344,0.669-0.475,1.006c-0.141,0.367-0.26,0.744-0.354,1.127
		c-0.225,0.928-0.285,1.885-0.15,2.791c0.199,1.342,0.841,2.569,2.113,3.398c0.607,0.396,1.348,0.701,2.037,0.904
		c1.277,0.377,2.672,0.405,3.984,0.239c1.916-0.239,4.074-1.009,5.457-2.402c0.773-0.775,1.047-1.77,1.09-2.804
		C31.682,39.318,31.568,38.455,31.422,37.654z M23.084,31.836c-0.188,0.189-0.496,0.188-0.684,0
		c-0.131-0.131-0.145-0.296-0.135-0.469c-0.084,0-0.25-0.007-0.324,0.045c-0.336,0.227-0.178,0.924-0.145,1.25
		c0.092,0.879,0.289,1.766,0.201,2.65c-0.062,0.614-0.414,1.341-1.064,1.507c-0.416,0.106-1.09-0.06-1.217-0.508
		c-0.023-0.075-0.031-0.16-0.018-0.248c-0.002-0.002-0.002-0.007,0-0.009c0.016-0.1,0.059-0.193,0.135-0.27
		c0.186-0.188,0.492-0.189,0.682-0.001c0.141,0.14,0.174,0.352,0.104,0.527c0.047-0.005,0.1-0.013,0.158-0.022
		c0.59-0.08,0.512-1.242,0.502-1.639c-0.016-0.793-0.137-1.578-0.191-2.367c-0.051-0.672,0.352-1.451,1.08-1.53
		C22.66,30.702,23.639,31.278,23.084,31.836z M28.895,36.31c-0.131,0.452-0.805,0.618-1.221,0.511c-0.648-0.17-1-0.894-1.062-1.508
		c-0.086-0.885,0.109-1.773,0.199-2.648c0.033-0.328,0.188-1.025-0.146-1.252c-0.074-0.051-0.238-0.045-0.324-0.046
		c0.014,0.175-0.004,0.339-0.133,0.468c-0.189,0.189-0.494,0.189-0.684,0c-0.555-0.555,0.422-1.134,0.918-1.08
		c0.727,0.076,1.127,0.857,1.078,1.529c-0.059,0.791-0.176,1.57-0.191,2.367c-0.006,0.396-0.088,1.561,0.504,1.641
		c0.059,0.008,0.109,0.015,0.158,0.02c-0.074-0.175-0.041-0.387,0.104-0.527c0.188-0.188,0.494-0.188,0.682,0
		c0.076,0.076,0.119,0.172,0.135,0.271c0,0.002,0.002,0.006,0.002,0.008C28.924,36.153,28.916,36.236,28.895,36.31z"/>
	<path fill="#FFFFFF" d="M28.775,35.783c-0.188-0.188-0.494-0.188-0.682,0c-0.145,0.141-0.178,0.353-0.104,0.527
		c-0.049-0.005-0.1-0.012-0.158-0.02c-0.592-0.08-0.51-1.245-0.504-1.641c0.016-0.797,0.133-1.576,0.191-2.367
		c0.049-0.672-0.352-1.453-1.078-1.529c-0.496-0.054-1.473,0.525-0.918,1.08c0.189,0.189,0.494,0.189,0.684,0
		c0.129-0.129,0.146-0.293,0.133-0.468c0.086,0.001,0.25-0.005,0.324,0.046c0.334,0.227,0.18,0.924,0.146,1.252
		c-0.09,0.875-0.285,1.764-0.199,2.648c0.062,0.614,0.414,1.338,1.062,1.508c0.416,0.107,1.09-0.059,1.221-0.511
		c0.021-0.073,0.029-0.156,0.018-0.247c0-0.002-0.002-0.006-0.002-0.008C28.895,35.955,28.852,35.859,28.775,35.783z"/>
	<path fill="#FFFFFF" d="M22.168,30.753c-0.729,0.079-1.131,0.858-1.08,1.53c0.055,0.789,0.176,1.574,0.191,2.367
		c0.01,0.396,0.088,1.559-0.502,1.639c-0.059,0.01-0.111,0.018-0.158,0.022c0.07-0.176,0.037-0.388-0.104-0.527
		c-0.189-0.188-0.496-0.187-0.682,0.001c-0.076,0.076-0.119,0.17-0.135,0.27c-0.002,0.002-0.002,0.007,0,0.009
		c-0.014,0.088-0.006,0.173,0.018,0.248c0.127,0.448,0.801,0.614,1.217,0.508c0.65-0.166,1.002-0.893,1.064-1.507
		c0.088-0.885-0.109-1.771-0.201-2.65c-0.033-0.326-0.191-1.023,0.145-1.25c0.074-0.052,0.24-0.045,0.324-0.045
		c-0.01,0.173,0.004,0.338,0.135,0.469c0.188,0.188,0.496,0.189,0.684,0C23.639,31.278,22.66,30.702,22.168,30.753z"/>
</g>
</svg>
