<?xml version="1.0" encoding="utf-8"?>
<!-- Generator: Adobe Illustrator 16.0.0, SVG Export Plug-In . SVG Version: 6.00 Build 0)  -->
<!DOCTYPE svg PUBLIC "-//W3C//DTD SVG 1.1//EN" "http://www.w3.org/Graphics/SVG/1.1/DTD/svg11.dtd">
<svg version="1.1" id="Layer_1" xmlns="http://www.w3.org/2000/svg" xmlns:xlink="http://www.w3.org/1999/xlink" x="0px" y="0px"
	 width="48px" height="48px" viewBox="0 0 48 48" enable-background="new 0 0 48 48" xml:space="preserve">
<g>
	<path fill="#666666" d="M38.368,18.354l0.494,0.197c0,0-0.203,0.43,0.168,0.652c0.174,0.104,0.234,0.289-0.144,0.412
		c-0.204,0.065-0.479,0.266-0.497,0.666l0.971,0.409l-0.176,0.361l-0.975-0.417c0,0-0.156,0.368-0.156,0.373
		c-0.041,0.09,0.396,0.114,0.442,0.115c0.205,0.002,0.513,0.053,0.633,0.26c0.113,0.197,0.005,0.438-0.198,0.436
		c-0.234-0.008-0.36-0.076-0.594-0.261c-0.174-0.133-0.392-0.339-0.521-0.056c0,0-2.201,4.769-2.203,4.774
		c0.017-0.038,0.831,0.56,0.875,0.604c0.471,0.486,0.906,1.244,0.871,1.935c-0.025,0.484-0.219,0.957-0.451,1.373
		c-0.236,0.417-0.667,0.743-0.854,1.177c-0.043,0.098-0.052,0.727-0.207,0.681c-0.109-0.031-0.185-0.169-0.305-0.203
		c-0.193-0.053-0.365,0.062-0.5,0.194c-0.399,0.396-0.611,0.945-0.697,1.489c-0.039,0.251-0.059,0.511-0.006,0.758
		c0.037,0.187,0.156,0.55,0.321,0.665c0,0,0.289,0.168,0.527,0.066c0.212-0.092,0.055,0.264,0.02,0.328
		c-0.091,0.181-0.312,0.416-0.335,0.621c-0.035,0.361-0.09,0.568-0.176,0.918c-0.248,0.98-0.627,2.101-1.66,2.488
		c-1.02,0.389-2.287,0.283-3.314-0.035c-0.703-0.219-1.404-0.557-1.961-1.037c-0.307-0.263-0.608-0.586-0.824-0.924
		c-0.766-1.197-0.387-2.551,0.425-3.59c0.136-0.173,0.282-0.336,0.438-0.488c0.144-0.141,0.365-0.224,0.473-0.398
		c0.049-0.087,0.007-0.887,0.238-0.721c0,0,0.502,0.357,1.227-0.033c0.443-0.24,0.693-0.736,0.865-1.188
		c0.068-0.188,0.434-1.104,0.11-1.201c-0.372-0.112-0.621-0.289-0.474-0.447c0.15-0.158,0.424-0.227,0.508-0.505
		c0.025-0.082,0.003-0.21,0.012-0.295c0.021-0.259,0.064-0.518,0.129-0.769c0.141-0.559,0.387-1.131,0.859-1.486
		c0.371-0.28,0.82-0.438,1.271-0.522c0.229-0.041,0.459-0.065,0.691-0.057c0.06,0.003,0.743,0.106,0.723,0.141
		c0,0,2.415-4.862,2.426-4.879c-0.002,0.001-0.773-0.375-0.842-0.405c0.029-0.043,0.127-0.295,0.157-0.336
		c0.27,0.082,0.524,0.252,0.786,0.362c0.039,0.018,0.078,0.022,0.119,0.037c0.01-0.022,0.152-0.304,0.143-0.309
		c-0.254-0.167-1.293-0.185-0.979-0.726c0.075-0.133,0.232-0.165,0.371-0.126c0.129,0.032,0.242,0.132,0.355,0.206
		c0.436,0.288,0.436,0.358,0.641-0.023c0.258-0.484-0.381-0.706-0.039-0.945c0.086-0.06,0.404,0.197,0.576-0.022
		C38.221,18.554,38.315,18.464,38.368,18.354z"/>
	<path fill="#989898" d="M8.993,19.081l-0.494,0.197c0,0,0.202,0.428-0.166,0.652c-0.176,0.104-0.234,0.289,0.141,0.412
		c0.206,0.066,0.479,0.266,0.498,0.666L8,21.421l0.177,0.357l0.975-0.416c0,0,0.154,0.369,0.156,0.375
		c0.04,0.086-0.396,0.111-0.442,0.111c-0.204,0.003-0.511,0.058-0.632,0.264c-0.113,0.193-0.009,0.438,0.199,0.433
		c0.232-0.007,0.357-0.077,0.591-0.259c0.173-0.135,0.396-0.34,0.522-0.058c0,0,2.201,4.772,2.202,4.776
		c-0.015-0.035-0.831,0.561-0.875,0.605c-0.469,0.486-0.906,1.24-0.872,1.933c0.025,0.481,0.22,0.956,0.455,1.374
		c0.232,0.417,0.664,0.742,0.852,1.176c0.043,0.1,0.051,0.73,0.211,0.682c0.105-0.033,0.18-0.168,0.299-0.203
		c0.197-0.054,0.367,0.062,0.502,0.196c0.401,0.394,0.607,0.941,0.699,1.489c0.04,0.25,0.057,0.507,0.004,0.756
		c-0.039,0.188-0.156,0.547-0.318,0.666c0,0-0.292,0.166-0.528,0.064c-0.214-0.091-0.056,0.262-0.021,0.33
		c0.088,0.179,0.314,0.414,0.332,0.619c0.036,0.359,0.092,0.568,0.18,0.92c0.244,0.98,0.625,2.097,1.656,2.487
		c1.02,0.386,2.291,0.283,3.318-0.034c0.703-0.219,1.402-0.558,1.963-1.039c0.303-0.262,0.606-0.586,0.822-0.925
		c0.762-1.194,0.384-2.554-0.426-3.589c-0.136-0.174-0.283-0.334-0.439-0.488c-0.143-0.142-0.363-0.223-0.473-0.4
		c-0.049-0.083-0.006-0.883-0.236-0.718c0,0-0.504,0.354-1.229-0.034c-0.443-0.237-0.694-0.734-0.863-1.186
		c-0.072-0.189-0.435-1.107-0.111-1.205c0.369-0.111,0.621-0.287,0.472-0.445c-0.147-0.156-0.425-0.227-0.505-0.504
		c-0.025-0.083-0.008-0.211-0.012-0.295c-0.023-0.261-0.066-0.518-0.13-0.77c-0.139-0.559-0.389-1.129-0.862-1.486
		c-0.367-0.279-0.818-0.438-1.27-0.521c-0.229-0.042-0.461-0.067-0.691-0.061c-0.06,0.003-0.743,0.108-0.725,0.146
		c0,0-2.414-4.865-2.424-4.884c0.003,0.003,0.771-0.372,0.844-0.403c-0.031-0.043-0.127-0.294-0.158-0.336
		c-0.271,0.081-0.525,0.252-0.787,0.362c-0.037,0.017-0.078,0.024-0.117,0.037c-0.012-0.022-0.154-0.304-0.143-0.31
		c0.251-0.166,1.29-0.184,0.977-0.725c-0.076-0.132-0.23-0.165-0.371-0.129c-0.129,0.037-0.242,0.133-0.355,0.209
		c-0.435,0.291-0.437,0.359-0.643-0.023C9.493,19.862,10.13,19.642,9.79,19.4c-0.084-0.061-0.406,0.196-0.576-0.024
		C9.142,19.28,9.046,19.188,8.993,19.081z"/>
	<path fill="#333333" d="M31.103,37.112c-0.118-0.637-0.181-1.02-0.388-1.635c-0.122-0.354,0.07-0.902,0.086-1.264
		c0.007-0.135-0.001-0.83-0.28-0.523c-0.312,0.341-0.91,0.284-0.91,0.284c-0.355-0.069-0.817-0.575-1.02-0.851
		c-0.272-0.369-0.435-0.809-0.553-1.245c-0.26-0.955-0.327-2.015,0.037-2.954c0.121-0.32,0.312-0.637,0.674-0.695
		c0.224-0.031,0.443,0.135,0.643,0.107c0.299-0.038-0.158-1.076-0.161-1.27c-0.019-0.849,0.448-1.698,0.522-2.561
		c0.072-0.854,0.037-1.773-0.281-2.58c-0.455-1.161-1.73-2.076-2.859-2.521c-0.077-0.03-1.002-0.228-1.526-0.312v-7.668l1.388-0.118
		c0.228,0.299,0.572,0.505,0.978,0.505c0.69,0,1.25-0.56,1.25-1.249c0-0.69-0.56-1.25-1.25-1.25c-0.457,0-0.839,0.257-1.058,0.623
		l-1.309,0.085l0.01-1.772l1.346-0.114c0.225,0.334,0.587,0.567,1.021,0.567c0.69,0,1.25-0.56,1.25-1.249
		c0-0.69-0.56-1.25-1.25-1.25c-0.427,0-0.785,0.228-1.011,0.554l-1.355,0.088c0.006,0-0.009-0.611-0.005-0.688
		c0.02-0.411,0.174-0.696,0.404-1.027c0.229-0.331,0.357-0.725,0.357-1.128c0-1.106-0.896-2.001-2-2.001s-2,0.895-2,2.001
		c0,0.543,0.254,0.902,0.509,1.351c0.322,0.566,0.235,1.189,0.235,1.815l-1.229,0.081c-0.222-0.351-0.594-0.596-1.038-0.596
		c-0.691,0-1.251,0.559-1.251,1.25c0,0.69,0.56,1.249,1.251,1.249c0.412,0,0.76-0.213,0.989-0.497l1.277-0.108l-0.01,1.578
		l-1.329,0.087c-0.229-0.269-0.558-0.448-0.938-0.448c-0.691,0-1.25,0.56-1.25,1.25c0,0.689,0.56,1.249,1.25,1.249
		c0.473,0,0.87-0.273,1.082-0.66l1.185-0.101v7.614c-0.43,0.087-1.346,0.344-1.421,0.373c-0.385,0.161-0.746,0.371-1.087,0.61
		c-0.678,0.473-1.298,1.064-1.696,1.796c-0.506,0.935-0.491,2.056-0.305,3.077c0.082,0.457,0.203,0.91,0.359,1.351
		c0.053,0.147,0.183,0.339,0.201,0.494c0.069,0.517-0.328,0.833-0.455,1.201s0.416,0.474,1.105,0.381
		c0.6-0.081,0.686,1.69,0.711,2.052c0.059,0.865,0.018,1.863-0.533,2.582c-0.898,1.178-1.984,0.969-1.984,0.969
		c-0.502-0.098,0.164,1.178,0.143,1.354c-0.044,0.367-0.344,0.669-0.475,1.006c-0.141,0.367-0.261,0.744-0.354,1.127
		c-0.558,2.303-0.168,4.801,1.964,6.189c0.607,0.396,1.348,0.701,2.037,0.904c1.277,0.377,2.672,0.405,3.984,0.239
		c1.916-0.239,4.074-1.009,5.457-2.402C31.636,41.015,31.431,38.903,31.103,37.112z"/>
	<path fill="#FFFFFF" d="M28.575,35.768c0.021-0.073,0.029-0.156,0.018-0.247c-0.001-0.002-0.002-0.006-0.002-0.008
		c-0.016-0.1-0.059-0.195-0.136-0.271c-0.187-0.188-0.493-0.188-0.681,0c-0.145,0.141-0.178,0.353-0.104,0.527
		c-0.049-0.005-0.1-0.012-0.159-0.02c-0.591-0.08-0.509-1.245-0.503-1.641c0.016-0.797,0.133-1.576,0.191-2.367
		c0.049-0.672-0.353-1.453-1.079-1.529c-0.495-0.054-1.472,0.525-0.917,1.08c0.189,0.189,0.494,0.189,0.683,0
		c0.129-0.129,0.146-0.293,0.134-0.468c0.086,0.001,0.249-0.005,0.324,0.046c0.334,0.227,0.18,0.924,0.146,1.252
		c-0.09,0.875-0.286,1.764-0.199,2.648c0.062,0.614,0.414,1.338,1.062,1.508C27.771,36.386,28.444,36.22,28.575,35.768z"/>
	<path fill="#FFFFFF" d="M19.397,35.77c-0.024-0.075-0.031-0.16-0.018-0.248c-0.002-0.002-0.002-0.007,0-0.009
		c0.015-0.1,0.058-0.193,0.134-0.27c0.187-0.188,0.493-0.189,0.683-0.001c0.14,0.14,0.174,0.352,0.104,0.527
		c0.046-0.005,0.1-0.013,0.157-0.022c0.591-0.08,0.513-1.242,0.503-1.639c-0.016-0.793-0.137-1.578-0.191-2.367
		c-0.052-0.672,0.352-1.451,1.08-1.53c0.492-0.051,1.471,0.525,0.916,1.083c-0.188,0.189-0.496,0.188-0.684,0
		c-0.131-0.131-0.145-0.296-0.136-0.469c-0.083,0-0.249-0.007-0.323,0.045c-0.336,0.227-0.179,0.924-0.146,1.25
		c0.092,0.879,0.289,1.766,0.201,2.65c-0.062,0.614-0.413,1.341-1.063,1.507C20.198,36.384,19.523,36.218,19.397,35.77z"/>
</g>
</svg>
