<?xml version="1.0" encoding="utf-8"?>
<!-- Generator: Adobe Illustrator 16.0.0, SVG Export Plug-In . SVG Version: 6.00 Build 0)  -->
<!DOCTYPE svg PUBLIC "-//W3C//DTD SVG 1.1//EN" "http://www.w3.org/Graphics/SVG/1.1/DTD/svg11.dtd">
<svg version="1.1" id="Layer_1" xmlns="http://www.w3.org/2000/svg" xmlns:xlink="http://www.w3.org/1999/xlink" x="0px" y="0px"
	 width="48px" height="48px" viewBox="0 0 48 48" enable-background="new 0 0 48 48" xml:space="preserve">
<g>
	<g>
		<line fill="none" stroke="#666666" stroke-width="2" stroke-miterlimit="10" x1="24" y1="24" x2="24" y2="12"/>
		<polyline fill="none" stroke="#666666" stroke-width="2" stroke-miterlimit="10" points="9,23 9,18 24,16 39,18 39,23 		"/>
		<rect x="5" y="22" fill="#333333" width="8" height="8"/>
		<rect x="20" y="24" fill="#333333" width="8" height="8"/>
		<rect x="35" y="22" fill="#333333" width="8" height="8"/>
		<circle fill="#333333" cx="24" cy="9" r="4"/>
	</g>
	<g>
		<path fill="#333333" d="M33.097,42.5c-0.549,0-1.131-0.383-1.599-0.69c-0.092-0.061-0.177-0.117-0.249-0.161
			c-0.426-0.255-0.841-0.53-1.256-0.805l-0.583-0.383c-0.746-0.482-1.547-0.915-2.32-1.333l-0.802-0.431
			c-1.058-0.556-2.373-1.248-2.733-2.594c-0.099-0.373-0.046-0.74,0.016-0.982c0.161-0.626,0.615-1.142,1.216-1.38
			c0.214-0.085,0.448-0.129,0.697-0.129c0.761,0,1.535,0.391,2.231,0.766c-0.223-0.999-0.611-2.419-0.804-3.037
			c-0.673-2.158-0.893-2.763-1.717-4.889l-0.136-0.339c-0.421-1.037-0.998-2.458-0.396-3.555c0.228-0.413,0.593-0.736,1.028-0.909
			c0.246-0.099,0.502-0.149,0.76-0.149c0.239,0,0.468,0.044,0.681,0.131c0.798,0.325,1.573,2.045,2.564,4.714l0.167,0.444
			c0.081,0.209,0.166,0.434,0.25,0.667c0.373-0.404,0.917-0.638,1.535-0.638c0.514,0.003,0.918,0.149,1.233,0.434
			c0.095,0.085,0.177,0.197,0.261,0.318c0.021-0.042,0.043-0.083,0.07-0.124c0.215-0.314,0.54-0.575,0.896-0.716
			c0.241-0.095,0.493-0.143,0.752-0.143c0.363,0,0.72,0.097,1.03,0.279c0.145,0.085,0.273,0.211,0.397,0.334
			c0.067,0.065,0.178,0.174,0.257,0.232c0.041-0.053,0.087-0.128,0.132-0.202c0.104-0.172,0.235-0.386,0.446-0.55
			c0.254-0.199,0.55-0.3,0.878-0.3c0.089,0,0.181,0.007,0.273,0.022c0.592,0.094,1.151,0.426,1.531,0.911
			c0.078,0.1,0.146,0.209,0.2,0.324c0.181,0.366,0.22,0.762,0.255,1.112l0.091,0.768c0.051,0.411,0.103,0.822,0.147,1.233
			c0.142,1.283,0.296,2.798,0.375,4.3c0.009,0.158,0.024,0.317,0.039,0.477c0.03,0.32,0.062,0.651,0.048,0.992
			c-0.01,0.224,0.023,0.488,0.06,0.768c0.064,0.506,0.138,1.079-0.038,1.598c-0.253,0.745-1.012,0.977-1.565,1.146
			c-0.128,0.039-0.252,0.077-0.361,0.119c-0.705,0.276-1.41,0.558-2.115,0.84l-2.508,1c-0.098,0.039-0.207,0.098-0.321,0.159
			c-0.274,0.147-0.586,0.313-0.899,0.344L33.097,42.5z"/>
		<path fill="#FFFFFF" d="M26.451,22.001c0.168,0,0.335,0.03,0.491,0.094c0.868,0.354,2.13,4.045,2.455,4.877
			c0.292,0.748,0.626,1.727,0.853,2.503c0.003,0.011,0.007,0.022,0.01,0.033c-0.003-0.011-0.007-0.022-0.01-0.033
			c-0.123-0.422-0.223-0.776-0.055-1.214c0.232-0.615,0.818-0.941,1.453-0.941c0.01,0,0.019,0,0.028,0
			c0.321,0.002,0.628,0.086,0.87,0.305c0.166,0.148,0.396,0.63,0.604,0.689c0.023,0.007,0.045,0.01,0.065,0.01
			c0.239,0,0.297-0.429,0.41-0.596c0.164-0.24,0.42-0.434,0.667-0.532c0.182-0.072,0.374-0.107,0.566-0.107
			c0.27,0,0.539,0.071,0.776,0.21c0.259,0.152,0.592,0.666,0.937,0.666c0.076,0,0.153-0.025,0.23-0.086
			c0.253-0.198,0.354-0.592,0.626-0.803c0.172-0.135,0.364-0.195,0.571-0.195c0.062,0,0.127,0.005,0.192,0.016
			c0.476,0.075,0.922,0.347,1.219,0.726c0.057,0.072,0.104,0.15,0.143,0.23c0.18,0.365,0.186,0.789,0.235,1.195
			c0.071,0.587,0.147,1.172,0.212,1.758c0.156,1.42,0.298,2.844,0.373,4.271c0.025,0.469,0.105,0.949,0.086,1.422
			c-0.03,0.693,0.272,1.562,0.048,2.227c-0.218,0.643-1.085,0.746-1.634,0.959c-1.107,0.434-2.211,0.881-3.316,1.32
			c-0.436,0.174-0.873,0.348-1.311,0.521c-0.316,0.125-0.752,0.438-1.086,0.471C33.141,42,33.119,42,33.097,42
			c-0.498,0-1.2-0.543-1.589-0.779c-0.621-0.373-1.217-0.785-1.826-1.18c-0.898-0.58-1.84-1.072-2.777-1.582
			c-1.063-0.578-2.523-1.201-2.866-2.484c-0.062-0.234-0.042-0.5,0.017-0.73c0.121-0.471,0.465-0.859,0.916-1.039
			c0.162-0.065,0.335-0.093,0.513-0.093c0.967,0,2.112,0.83,2.894,1.167c-0.04-0.742-0.76-3.352-0.988-4.087
			c-0.678-2.175-0.904-2.796-1.729-4.921c-0.357-0.922-1.111-2.467-0.559-3.473c0.171-0.311,0.444-0.554,0.774-0.685
			C26.06,22.041,26.256,22.001,26.451,22.001 M26.451,21.001L26.451,21.001c-0.321,0-0.641,0.062-0.949,0.187
			c-0.538,0.213-0.993,0.616-1.276,1.13c-0.718,1.306-0.063,2.918,0.369,3.984c0.048,0.118,0.093,0.229,0.133,0.332
			c0.819,2.113,1.038,2.713,1.706,4.857c0.144,0.461,0.357,1.231,0.546,1.97c-0.478-0.2-0.984-0.348-1.496-0.348
			c-0.312,0-0.609,0.055-0.883,0.164c-0.748,0.298-1.314,0.941-1.515,1.719c-0.077,0.303-0.141,0.761-0.014,1.237
			c0.416,1.558,1.899,2.338,2.983,2.908c0.127,0.067,0.252,0.132,0.371,0.197l0.426,0.231c0.8,0.433,1.557,0.841,2.287,1.313
			c0.192,0.125,0.385,0.252,0.577,0.379c0.422,0.279,0.843,0.557,1.276,0.817c0.064,0.039,0.144,0.092,0.23,0.148
			C31.72,42.554,32.398,43,33.097,43c0.058,0,0.114-0.003,0.171-0.009c0.406-0.041,0.779-0.24,1.079-0.4
			c0.097-0.051,0.188-0.103,0.269-0.135l1.314-0.523l1.196-0.478c0.704-0.282,1.408-0.563,2.113-0.84
			c0.097-0.037,0.208-0.07,0.324-0.105c0.582-0.178,1.558-0.476,1.893-1.464c0.213-0.629,0.132-1.263,0.061-1.822
			c-0.033-0.258-0.064-0.501-0.057-0.682c0.016-0.376-0.018-0.725-0.049-1.062c-0.015-0.153-0.029-0.306-0.038-0.458
			c-0.079-1.513-0.235-3.037-0.377-4.327c-0.046-0.414-0.097-0.827-0.148-1.24l-0.064-0.529c-0.01-0.076-0.018-0.152-0.024-0.228
			c-0.037-0.372-0.084-0.835-0.307-1.289c-0.065-0.137-0.152-0.277-0.253-0.406c-0.457-0.583-1.131-0.983-1.85-1.097
			c-0.115-0.019-0.233-0.028-0.349-0.028c-0.437,0-0.847,0.141-1.188,0.407c-0.151,0.118-0.269,0.25-0.363,0.377
			c-0.092-0.083-0.192-0.163-0.308-0.23c-0.386-0.227-0.83-0.347-1.282-0.347c-0.322,0-0.636,0.06-0.934,0.177
			c-0.299,0.119-0.579,0.304-0.812,0.529c-0.387-0.307-0.88-0.472-1.432-0.475c0,0,0,0-0.001,0c-0.49,0-0.946,0.12-1.334,0.335
			c-0.007-0.016-0.013-0.031-0.019-0.046c-0.041-0.104-0.097-0.254-0.164-0.437c-1.258-3.387-1.976-4.649-2.846-5.003
			C27.048,21.058,26.756,21.001,26.451,21.001L26.451,21.001L26.451,21.001z"/>
	</g>
</g>
</svg>
