<?xml version="1.0" encoding="utf-8"?>
<!-- Generator: Adobe Illustrator 16.0.0, SVG Export Plug-In . SVG Version: 6.00 Build 0)  -->
<!DOCTYPE svg PUBLIC "-//W3C//DTD SVG 1.1//EN" "http://www.w3.org/Graphics/SVG/1.1/DTD/svg11.dtd">
<svg version="1.1" id="Layer_1" xmlns="http://www.w3.org/2000/svg" xmlns:xlink="http://www.w3.org/1999/xlink" x="0px" y="0px"
	 width="48px" height="48px" viewBox="0 0 48 48" enable-background="new 0 0 48 48" xml:space="preserve">
<g>
	<line fill="none" stroke="#989898" stroke-width="2" stroke-miterlimit="10" x1="28.981" y1="27.221" x2="19.299" y2="29.24"/>
	<line fill="none" stroke="#989898" stroke-width="2" stroke-miterlimit="10" x1="28.981" y1="27.221" x2="34.155" y2="33.373"/>
	<line fill="none" stroke="#666666" stroke-width="2" stroke-miterlimit="10" x1="28.981" y1="27.221" x2="28.607" y2="20.534"/>
	<circle fill="#989898" cx="24" cy="40.001" r="2.999"/>
	<path fill="#989898" d="M12.918,21.307c-0.383-1.612-2.001-2.608-3.613-2.225c-1.611,0.385-2.605,2.002-2.222,3.615
		c0.384,1.608,2.001,2.604,3.611,2.221C12.307,24.536,13.303,22.917,12.918,21.307z"/>
	<circle fill="#666666" cx="40.001" cy="22.002" r="2.999"/>
	<circle fill="#666666" cx="28" cy="18.002" r="2.999"/>
	<circle fill="#989898" cx="7" cy="33.002" r="2.999"/>
	<circle fill="#666666" cx="36" cy="10.002" r="2.999"/>
	<circle fill="#666666" cx="12.001" cy="9" r="2.999"/>
	<circle fill="#666666" cx="24" cy="8" r="2.999"/>
	<circle fill="#989898" cx="35" cy="34.002" r="2.999"/>
	<circle fill="#989898" cx="18" cy="29.002" r="2.999"/>
	<circle fill="#333333" cx="29" cy="27.001" r="2.999"/>
</g>
</svg>
