<?xml version="1.0" encoding="utf-8"?>
<!-- Generator: Adobe Illustrator 16.0.0, SVG Export Plug-In . SVG Version: 6.00 Build 0)  -->
<!DOCTYPE svg PUBLIC "-//W3C//DTD SVG 1.1//EN" "http://www.w3.org/Graphics/SVG/1.1/DTD/svg11.dtd">
<svg version="1.1" id="Layer_1" xmlns="http://www.w3.org/2000/svg" xmlns:xlink="http://www.w3.org/1999/xlink" x="0px" y="0px"
	 width="48px" height="48px" viewBox="0 0 48 48" enable-background="new 0 0 48 48" xml:space="preserve">
<g>
	<line fill="none" stroke="#333333" stroke-width="2" stroke-miterlimit="10" x1="24" y1="13" x2="24" y2="26.748"/>
	<line fill="none" stroke="#333333" stroke-width="2" stroke-miterlimit="10" x1="24" y1="13" x2="34.476" y2="25.894"/>
	<line fill="none" stroke="#333333" stroke-width="2" stroke-miterlimit="10" x1="24" y1="13" x2="13.263" y2="26.215"/>
	<path fill="#333333" d="M28.863,12.847c-0.639-2.689-3.336-4.35-6.022-3.709c-2.686,0.643-4.344,3.338-3.702,6.023
		c0.638,2.682,3.333,4.342,6.017,3.701C27.843,18.228,29.503,15.528,28.863,12.847z"/>
	<path fill="#989898" d="M14.862,32.847c-0.639-2.689-3.336-4.35-6.022-3.709c-2.686,0.643-4.344,3.338-3.702,6.023
		c0.638,2.682,3.333,4.342,6.017,3.701C13.843,38.228,15.503,35.528,14.862,32.847z"/>
	<path fill="#989898" d="M28.863,32.847c-0.639-2.689-3.336-4.35-6.022-3.709c-2.686,0.643-4.344,3.338-3.702,6.023
		c0.638,2.682,3.333,4.342,6.017,3.701C27.843,38.228,29.503,35.528,28.863,32.847z"/>
	<path fill="#989898" d="M42.863,32.847c-0.639-2.689-3.336-4.35-6.022-3.709c-2.686,0.643-4.344,3.338-3.702,6.023
		c0.638,2.682,3.333,4.342,6.017,3.701C41.843,38.228,43.503,35.528,42.863,32.847z"/>
	<polygon fill="#333333" points="11.643,23 11,29 16.732,27.123 	"/>
	<polygon fill="#333333" points="36.356,23 37,29 31.268,27.123 	"/>
	<polygon fill="#333333" points="27.275,23.916 24.023,29 20.726,23.95 	"/>
</g>
</svg>
