<?xml version="1.0" encoding="utf-8"?>
<!-- Generator: Adobe Illustrator 16.0.0, SVG Export Plug-In . SVG Version: 6.00 Build 0)  -->
<!DOCTYPE svg PUBLIC "-//W3C//DTD SVG 1.1//EN" "http://www.w3.org/Graphics/SVG/1.1/DTD/svg11.dtd">
<svg version="1.1" id="Layer_1" xmlns="http://www.w3.org/2000/svg" xmlns:xlink="http://www.w3.org/1999/xlink" x="0px" y="0px"
	 width="48px" height="48px" viewBox="0 0 48 48" enable-background="new 0 0 48 48" xml:space="preserve">
<g>
	<line fill="none" stroke="#333333" stroke-miterlimit="10" x1="27.167" y1="35.25" x2="36.235" y2="28.334"/>
	<polygon fill="#333333" points="36.674,30.879 38.166,26.977 33.997,27.217 	"/>
	<line fill="none" stroke="#333333" stroke-miterlimit="10" x1="25.52" y1="24.2" x2="34.334" y2="24.166"/>
	<line fill="none" stroke="#333333" stroke-miterlimit="10" x1="27.167" y1="12.416" x2="36" y2="19.667"/>
	<line fill="none" stroke="#333333" stroke-miterlimit="10" x1="8.709" y1="28.792" x2="19.084" y2="25.501"/>
	<line fill="none" stroke="#333333" stroke-miterlimit="10" x1="8.018" y1="31.893" x2="18.208" y2="35.876"/>
	<line fill="none" stroke="#333333" stroke-miterlimit="10" x1="8.25" y1="28.334" x2="19.375" y2="16.126"/>
	<polygon fill="#333333" points="17.542,14.884 21.696,14.438 20.396,18.407 	"/>
	<polygon fill="#333333" points="16.762,37.727 20.723,36.398 17.886,33.334 	"/>
	<polygon fill="#333333" points="18.107,28.208 20.918,25.117 16.947,23.825 	"/>
	<line fill="none" stroke="#333333" stroke-miterlimit="10" x1="8.539" y1="18" x2="19.334" y2="21.417"/>
	<line fill="none" stroke="#333333" stroke-miterlimit="10" x1="7.956" y1="15.833" x2="18.084" y2="12.042"/>
	<line fill="none" stroke="#333333" stroke-miterlimit="10" x1="7.667" y1="19.042" x2="20" y2="32.084"/>
	<polygon fill="#333333" points="17.805,32.805 21.958,33.25 20.659,29.281 	"/>
	<polygon fill="#333333" points="16.979,10.175 20.789,11.886 17.666,14.658 	"/>
	<polygon fill="#333333" points="18.536,18.896 21.347,21.986 17.376,23.278 	"/>
	<path fill="#333333" d="M7.278,21.934c2.174,0.399,4.26-1.04,4.656-3.214c0.396-2.173-1.043-4.256-3.215-4.653
		c-2.173-0.398-4.257,1.039-4.653,3.211C3.667,19.453,5.107,21.538,7.278,21.934z"/>
	<path fill="#333333" d="M7.278,33.934c2.174,0.399,4.26-1.04,4.656-3.214c0.396-2.173-1.043-4.256-3.215-4.653
		c-2.173-0.398-4.257,1.039-4.653,3.211C3.667,31.453,5.107,33.538,7.278,33.934z"/>
	<path fill="#666666" d="M24.278,15.934c2.174,0.399,4.26-1.04,4.656-3.214c0.396-2.173-1.043-4.256-3.215-4.653
		c-2.173-0.398-4.257,1.039-4.653,3.211C20.667,13.453,22.107,15.538,24.278,15.934z"/>
	<path fill="#666666" d="M24.278,27.934c2.174,0.399,4.26-1.04,4.656-3.214c0.396-2.173-1.043-4.256-3.215-4.653
		c-2.173-0.398-4.257,1.039-4.653,3.211C20.667,25.453,22.107,27.538,24.278,27.934z"/>
	<path fill="#989898" d="M40.278,27.934c2.174,0.399,4.26-1.04,4.656-3.214c0.396-2.173-1.043-4.256-3.215-4.653
		c-2.173-0.398-4.257,1.039-4.653,3.211C36.667,25.453,38.107,27.538,40.278,27.934z"/>
	<path fill="#666666" d="M24.278,39.934c2.174,0.399,4.26-1.04,4.656-3.214c0.396-2.173-1.043-4.256-3.215-4.653
		c-2.173-0.398-4.257,1.039-4.653,3.211C20.667,37.453,22.107,39.538,24.278,39.934z"/>
	<polygon fill="#333333" points="36.438,17.122 37.931,21.024 33.762,20.784 	"/>
	<polygon fill="#333333" points="33.077,21.909 36.689,24.01 33.293,26.44 	"/>
</g>
</svg>
