<?xml version="1.0" encoding="utf-8"?>
<!-- Generator: Adobe Illustrator 16.1.0, SVG Export Plug-In . SVG Version: 6.00 Build 0)  -->
<!DOCTYPE svg PUBLIC "-//W3C//DTD SVG 1.1//EN" "http://www.w3.org/Graphics/SVG/1.1/DTD/svg11.dtd">
<svg version="1.1" id="Layer_1" xmlns="http://www.w3.org/2000/svg" xmlns:xlink="http://www.w3.org/1999/xlink" x="0px" y="0px"
	 width="48px" height="48px" viewBox="0 0 48 48" enable-background="new 0 0 48 48" xml:space="preserve">
<path fill="#333333" d="M16.949,35.042l-6.387-2.496c0.426-0.512,0.743-1.124,0.871-1.826c0.149-0.821,0.036-1.628-0.278-2.338
	l3.196-1.014l3.963,4.19l-1.01,1.246l4.154,0.445l-1.301-3.969l-1.209,1.492l-3.538-3.741l1.739-0.552l0.457,1.728l2.811-3.091
	l-3.971-1.292l0.446,1.688l-2.246,0.712l-2.189-2.315l2.819-3.094l2.077,0.658l-0.478,1.805l3.971-1.292l-2.811-3.091l-0.426,1.61
	l-1.592-0.504l2.736-3.002l1.141,1.408l1.299-3.969l-4.152,0.445l1.076,1.329l-3.149,3.457l-3.522-1.115
	c0.173-1.242-0.242-2.434-1.048-3.29l6.487-2.428l0.279,1.821l3.123-2.772l-3.811-1.711l0.253,1.652l-7.254,2.715
	c-0.383-0.219-0.799-0.392-1.257-0.476c-2.174-0.398-4.258,1.039-4.654,3.211c-0.398,2.176,1.041,4.261,3.213,4.656
	c0.774,0.143,1.533,0.042,2.213-0.232l2.102,2.222l-2.146,2.354c-0.232-0.091-0.474-0.164-0.728-0.211
	c-2.174-0.398-4.258,1.039-4.654,3.211c-0.398,2.176,1.041,4.261,3.213,4.656c1.078,0.198,2.134-0.059,2.973-0.631l6.947,2.716
	l-0.438,1.708l3.961-1.328l-2.836-3.064L16.949,35.042z M9.889,21.193c0.567-0.424,1.028-0.991,1.307-1.67l3.032,0.96l-2.458,2.698
	L9.889,21.193z M11.782,24.651l1.807,1.909l-2.984,0.947c-0.22-0.274-0.473-0.521-0.76-0.73L11.782,24.651z"/>
<g>
	<path fill="#989898" d="M39.779,27.934c2.172,0.399,4.258-1.04,4.654-3.214c0.396-2.173-1.043-4.256-3.213-4.653
		c-2.174-0.398-4.258,1.039-4.654,3.211C36.168,25.453,37.607,27.538,39.779,27.934z"/>
</g>
<path fill="#333333" d="M33.498,27.217l1.03,1.41l-6.724,5.127c0.191,0.281,0.333,0.592,0.447,0.915l6.866-5.235l1.056,1.445
	l1.492-3.902L33.498,27.217z"/>
<path fill="#333333" d="M34.316,19.342l-1.055,1.442l4.17,0.24l-1.492-3.902l-1.032,1.411l-6.59-5.409
	c-0.101,0.341-0.233,0.664-0.413,0.956L34.316,19.342z"/>
<path fill="#333333" d="M28.437,24.687l4.272-0.017l0.084,1.77l3.396-2.431l-3.611-2.101l0.084,1.761l-4.191,0.016
	C28.497,24.015,28.495,24.348,28.437,24.687z"/>
<path fill="#666666" d="M25.221,8.066c-2.174-0.398-4.258,1.039-4.654,3.211c-0.398,2.176,1.041,4.261,3.213,4.656
	c1.674,0.308,3.288-0.482,4.125-1.854c0.18-0.292,0.312-0.615,0.413-0.956c0.039-0.135,0.091-0.263,0.116-0.404
	C28.83,10.547,27.391,8.464,25.221,8.066z"/>
<path fill="#666666" d="M28.471,23.687c-0.14-1.764-1.43-3.287-3.25-3.62c-2.174-0.398-4.258,1.039-4.654,3.211
	c-0.398,2.176,1.041,4.261,3.213,4.656c2.172,0.399,4.258-1.04,4.654-3.214c0.002-0.011,0.001-0.022,0.003-0.033
	C28.495,24.348,28.497,24.015,28.471,23.687z"/>
<path fill="#666666" d="M28.252,34.669c-0.114-0.323-0.256-0.634-0.447-0.915c-0.581-0.854-1.488-1.486-2.584-1.688
	c-2.174-0.398-4.258,1.039-4.654,3.211c-0.398,2.176,1.041,4.261,3.213,4.656c2.172,0.399,4.258-1.04,4.654-3.214
	C28.564,36.005,28.479,35.307,28.252,34.669z"/>
</svg>
