<?xml version="1.0" encoding="utf-8"?>
<!-- Generator: Adobe Illustrator 16.0.0, SVG Export Plug-In . SVG Version: 6.00 Build 0)  -->
<!DOCTYPE svg PUBLIC "-//W3C//DTD SVG 1.1//EN" "http://www.w3.org/Graphics/SVG/1.1/DTD/svg11.dtd">
<svg version="1.1" id="Layer_1" xmlns="http://www.w3.org/2000/svg" xmlns:xlink="http://www.w3.org/1999/xlink" x="0px" y="0px"
	 width="48px" height="48px" viewBox="0 0 48 48" enable-background="new 0 0 48 48" xml:space="preserve">
<g>
	<rect x="22" y="13" fill="#333333" width="1" height="22"/>
	<rect x="7" y="18" fill="#666666" width="28" height="1"/>
	<rect x="7" y="19" fill="#666666" width="1" height="1"/>
	<rect x="7" y="16" fill="#666666" width="1" height="5"/>
	<rect x="13" y="19" fill="#666666" width="1" height="1"/>
	<rect x="10" y="19" fill="#666666" width="1" height="1"/>
	<rect x="19" y="19" fill="#666666" width="1" height="1"/>
	<rect x="28" y="19" fill="#666666" width="1" height="1"/>
	<rect x="16" y="19" fill="#666666" width="1" height="1"/>
	<rect x="16" y="16" fill="#666666" width="1" height="5"/>
	<rect x="22" y="19" fill="#666666" width="1" height="1"/>
	<rect x="25" y="19" fill="#666666" width="1" height="1"/>
	<rect x="25" y="16" fill="#666666" width="1" height="5"/>
	<rect x="31" y="19" fill="#666666" width="1" height="1"/>
	<rect x="34" y="19" fill="#666666" width="1" height="1"/>
	<rect x="34" y="16" fill="#666666" width="1" height="5"/>
	<rect x="16" y="28" fill="#666666" width="25" height="1"/>
	<rect x="19" y="29" fill="#666666" width="1" height="1"/>
	<rect x="22" y="29" fill="#666666" width="1" height="1"/>
	<rect x="25" y="29" fill="#666666" width="1" height="1"/>
	<rect x="34" y="29" fill="#666666" width="1" height="1"/>
	<rect x="28" y="26" fill="#666666" width="1" height="5"/>
	<rect x="16" y="26" fill="#666666" width="1" height="5"/>
	<rect x="28" y="29" fill="#666666" width="1" height="1"/>
	<rect x="31" y="29" fill="#666666" width="1" height="1"/>
	<rect x="40" y="26" fill="#666666" width="1" height="5"/>
	<rect x="37" y="29" fill="#666666" width="1" height="1"/>
	<rect x="40" y="29" fill="#666666" width="1" height="1"/>
</g>
</svg>
