<?xml version="1.0" encoding="utf-8"?>
<!-- Generator: Adobe Illustrator 16.0.0, SVG Export Plug-In . SVG Version: 6.00 Build 0)  -->
<!DOCTYPE svg PUBLIC "-//W3C//DTD SVG 1.1//EN" "http://www.w3.org/Graphics/SVG/1.1/DTD/svg11.dtd">
<svg version="1.1" id="Layer_1" xmlns="http://www.w3.org/2000/svg" xmlns:xlink="http://www.w3.org/1999/xlink" x="0px" y="0px"
	 width="48px" height="48px" viewBox="0 0 48 48" enable-background="new 0 0 48 48" xml:space="preserve">
<g>
	<g>
		<line fill="none" stroke="#666666" stroke-miterlimit="10" x1="24" y1="41" x2="24" y2="31"/>
		<polyline fill="none" stroke="#666666" stroke-miterlimit="10" points="17,39 17,35 24,34 31,35 31,39 		"/>
		<rect x="15" y="37" fill="#333333" width="4" height="4"/>
		<rect x="22" y="38" fill="#333333" width="4" height="4"/>
		<rect x="29" y="37" fill="#333333" width="4" height="4"/>
		<circle fill="#333333" cx="24" cy="30" r="2"/>
	</g>
	<g>
		<line fill="none" stroke="#666666" stroke-miterlimit="10" x1="36" y1="21" x2="36" y2="18"/>
		<polyline fill="none" stroke="#666666" stroke-miterlimit="10" points="32,26 32,22 36,21 40,22 40,26 		"/>
		<rect x="30" y="24" fill="#333333" width="4" height="4"/>
		<rect x="38" y="24" fill="#333333" width="4" height="4"/>
		<circle fill="#333333" cx="36" cy="17" r="2"/>
	</g>
	<g>
		<line fill="none" stroke="#666666" stroke-miterlimit="10" x1="19" y1="19" x2="19" y2="9"/>
		<polyline fill="none" stroke="#666666" stroke-miterlimit="10" points="12,17 12,13 19,12 26,13 26,17 		"/>
		<rect x="24" y="15" fill="#333333" width="4" height="4"/>
		<rect x="17" y="16" fill="#333333" width="4" height="4"/>
		<circle fill="#333333" cx="19" cy="8" r="2"/>
		<g>
			<line fill="none" stroke="#666666" stroke-miterlimit="10" x1="12" y1="21" x2="12" y2="18"/>
			<polyline fill="none" stroke="#666666" stroke-miterlimit="10" points="8,26 8,22 12,21 16,22 16,26 			"/>
			<rect x="6" y="24" fill="#333333" width="4" height="4"/>
			<rect x="14" y="24" fill="#333333" width="4" height="4"/>
			<circle fill="#333333" cx="12" cy="17" r="2"/>
		</g>
	</g>
</g>
</svg>
