<?xml version="1.0" encoding="utf-8"?>
<!-- Generator: Adobe Illustrator 16.0.0, SVG Export Plug-In . SVG Version: 6.00 Build 0)  -->
<!DOCTYPE svg PUBLIC "-//W3C//DTD SVG 1.1//EN" "http://www.w3.org/Graphics/SVG/1.1/DTD/svg11.dtd">
<svg version="1.1" id="Layer_1" xmlns="http://www.w3.org/2000/svg" xmlns:xlink="http://www.w3.org/1999/xlink" x="0px" y="0px"
	 width="48px" height="48px" viewBox="0 0 48 48" enable-background="new 0 0 48 48" xml:space="preserve">
<g>
	<polygon fill="#333333" points="32,10 31,14 17,14 16,10 10,10 10,14.375 10,15.25 10,19 38,19 38,15.25 38,14.375 38,10 	"/>
	<polygon fill="#666666" points="32,20 31,24 17,24 16,20 10,20 10,24.375 10,25.25 10,29 38,29 38,25.25 38,24.375 38,20 	"/>
	<polygon fill="#989898" points="32,30 31,34 17,34 16,30 10,30 10,34.375 10,35.25 10,39 38,39 38,35.25 38,34.375 38,30 	"/>
</g>
</svg>
