<?xml version="1.0" encoding="utf-8"?>
<!-- Generator: Adobe Illustrator 16.1.0, SVG Export Plug-In . SVG Version: 6.00 Build 0)  -->
<!DOCTYPE svg PUBLIC "-//W3C//DTD SVG 1.1//EN" "http://www.w3.org/Graphics/SVG/1.1/DTD/svg11.dtd">
<svg version="1.1" id="Layer_1" xmlns="http://www.w3.org/2000/svg" xmlns:xlink="http://www.w3.org/1999/xlink" x="0px" y="0px"
	 width="48px" height="48px" viewBox="0 0 48 48" enable-background="new 0 0 48 48" xml:space="preserve">
<polygon fill="#333333" points="32,9.5 31,13.5 17,13.5 16,9.5 10,9.5 10,13.875 10,14.75 10,18.5 38,18.5 38,14.75 38,13.875 
	38,9.5 "/>
<polygon fill="#666666" points="32,19.5 31,23.5 17,23.5 16,19.5 10,19.5 10,23.875 10,24.75 10,28.5 38,28.5 38,24.75 38,23.875 
	38,19.5 "/>
<polygon fill="#989898" points="32,29.5 31,33.5 17,33.5 16,29.5 10,29.5 10,33.875 10,34.75 10,38.5 38,38.5 38,34.75 38,33.875 
	38,29.5 "/>
</svg>
