<?xml version="1.0" encoding="utf-8"?>
<!-- Generator: Adobe Illustrator 16.0.0, SVG Export Plug-In . SVG Version: 6.00 Build 0)  -->
<!DOCTYPE svg PUBLIC "-//W3C//DTD SVG 1.1//EN" "http://www.w3.org/Graphics/SVG/1.1/DTD/svg11.dtd">
<svg version="1.1" id="Layer_1" xmlns="http://www.w3.org/2000/svg" xmlns:xlink="http://www.w3.org/1999/xlink" x="0px" y="0px"
	 width="48px" height="48px" viewBox="0 0 48 48" enable-background="new 0 0 48 48" xml:space="preserve">
<g>
	<line fill="none" stroke="#333333" stroke-width="2" stroke-miterlimit="10" x1="2.326" y1="30.348" x2="46.218" y2="19.895"/>
	
		<line fill="none" stroke="#333333" stroke-miterlimit="10" stroke-dasharray="2,4" x1="2.201" y1="23.822" x2="46.319" y2="13.317"/>
	<line fill="none" stroke="#333333" stroke-miterlimit="10" stroke-dasharray="2,4" x1="2" y1="36.978" x2="46.117" y2="26.472"/>
	<path fill="#989898" d="M22.917,40.306c-0.383-1.612-2.001-2.608-3.613-2.225c-1.611,0.385-2.606,2.002-2.222,3.615
		c0.383,1.608,2,2.604,3.611,2.221C22.306,43.534,23.302,41.915,22.917,40.306z"/>
	<circle fill="#666666" cx="9" cy="8.001" r="2.999"/>
	<circle fill="#666666" cx="9" cy="17.001" r="2.999"/>
	<circle fill="#333333" cx="16" cy="34.001" r="2.999"/>
	<circle fill="#333333" cx="21" cy="19.001" r="2.999"/>
	<circle fill="#666666" cx="39" cy="7" r="2.999"/>
	<circle fill="#666666" cx="32" cy="11.001" r="2.999"/>
	<circle fill="#333333" cx="33" cy="30" r="2.999"/>
	<circle fill="#989898" cx="40" cy="36.002" r="2.999"/>
	<circle fill="#989898" cx="32" cy="41.002" r="2.999"/>
</g>
</svg>
