<?xml version="1.0" encoding="utf-8"?>
<!-- Generator: Adobe Illustrator 16.0.0, SVG Export Plug-In . SVG Version: 6.00 Build 0)  -->
<!DOCTYPE svg PUBLIC "-//W3C//DTD SVG 1.1//EN" "http://www.w3.org/Graphics/SVG/1.1/DTD/svg11.dtd">
<svg version="1.1" id="Layer_1" xmlns="http://www.w3.org/2000/svg" xmlns:xlink="http://www.w3.org/1999/xlink" x="0px" y="0px"
	 width="48px" height="48px" viewBox="0 0 48 48" enable-background="new 0 0 48 48" xml:space="preserve">
<g>
	<g>
		<g>
			<rect x="34.111" y="6.55" transform="matrix(0.707 0.7072 -0.7072 0.707 17.2601 -21.8516)" width="1.778" height="6.707"/>
		</g>
		<g>
			<rect x="31.647" y="9.014" transform="matrix(0.7071 0.7071 -0.7071 0.7071 17.2523 -21.8472)" width="6.707" height="1.778"/>
		</g>
	</g>
	<g>
		<polygon points="23.139,12.903 20.423,10.188 21.561,9.049 23.139,10.626 26.862,6.903 28,8.041 		"/>
	</g>
	<rect x="4" y="13.903" fill="#B2B2B2" width="40" height="2"/>
	<g>
		<g>
			<rect x="9.11" y="29.55" transform="matrix(0.7068 0.7074 -0.7074 0.7068 26.2067 2.5727)" width="1.778" height="6.706"/>
		</g>
		<g>
			<rect x="6.646" y="32.014" transform="matrix(0.7071 0.7071 -0.7071 0.7071 26.195 2.5664)" width="6.706" height="1.778"/>
		</g>
	</g>
	<g>
		<polygon points="9.139,24.903 6.424,22.188 7.562,21.048 9.139,22.626 12.862,18.903 14,20.041 		"/>
	</g>
	<rect x="16" y="6" fill="#B2B2B2" width="2" height="36"/>
	<rect x="32" y="18.903" fill="#666666" width="6" height="6"/>
	<path fill="#666666" d="M23.308,18.985c-1.614,0.383-2.61,2.003-2.225,3.614c0.385,1.611,2.002,2.607,3.614,2.221
		c1.608-0.381,2.605-1.998,2.221-3.609C26.536,19.596,24.917,18.602,23.308,18.985z"/>
	<rect x="21" y="29.903" fill="#666666" width="6" height="6"/>
	<path fill="#666666" d="M35.692,35.821c1.614-0.383,2.61-2.003,2.225-3.614c-0.385-1.611-2.002-2.607-3.614-2.221
		c-1.608,0.381-2.605,1.998-2.221,3.609C32.464,35.211,34.083,36.205,35.692,35.821z"/>
</g>
</svg>
