/* XPM */
static char *icon[] = {
/* columns rows colors chars-per-pixel */
"32 32 228 2",
"   c #3FCF2CA70FBA",
".  c #24D521241C38",
"X  c #2CE625D01BA9",
"o  c #34AB26D61313",
"O  c #250725442596",
"+  c #2B5E28EC2513",
"@  c #26AC276D28A3",
"#  c #2C4E2CA82D23",
"$  c #3C28340E24A8",
"%  c #373F31A22958",
"&  c #3D6938062DFF",
"*  c #2E902FC43167",
"=  c #2F8430D63295",
"-  c #329D32E23344",
";  c #3C17375230BC",
":  c #3D85398632BC",
">  c #36B437843910",
",  c #382D385938A6",
"<  c #3A103A1E3C15",
"1  c #4E9E33880C95",
"2  c #5B20371D079C",
"3  c #56B039E80DF1",
"4  c #43202FEB14F4",
"5  c #467331301315",
"6  c #422632F81C4F",
"7  c #585D3FD91B9C",
"8  c #637D3ABF058A",
"9  c #47A83EA73025",
"0  c #4A623DDD2C5B",
"q  c #453D3EC533A3",
"w  c #5E2545332008",
"e  c #6A1D46331575",
"r  c #7D38561514A8",
"t  c #500241742BE9",
"y  c #5AB1462027EE",
"u  c #53C344282C35",
"i  c #4C9C42BE3196",
"p  c #44A1409A3A33",
"a  c #51CB486D357E",
"s  c #5F6A535D3931",
"d  c #639847572502",
"f  c #63D7507D2F63",
"g  c #791857FF24D5",
"h  c #69035596355E",
"j  c #72945B15328D",
"k  c #7DD1668B380F",
"l  c #3DB13E9742A7",
"z  c #3EF4407145C6",
"x  c #4429445144B1",
"c  c #4939463340C9",
"v  c #454046964D2E",
"b  c #49E14B044CE3",
"n  c #508F4FCD4E9E",
"m  c #482448C452A4",
"M  c #4BBE4C4C5501",
"N  c #4E3C4E7C59E3",
"B  c #4FE850CB5DAD",
"V  c #5160515A5135",
"C  c #514C51945E44",
"Z  c #718962B0418D",
"A  c #786669AC4611",
"S  c #557756936482",
"D  c #57DB5B78642B",
"F  c #5B015B926C85",
"G  c #5F035F6C71E5",
"H  c #648B650579CB",
"J  c #68CD69547FE0",
"K  c #6D9772CE7E21",
"L  c #8FAF555E031C",
"P  c #862A5ECA1A79",
"I  c #958F5FDF112A",
"U  c #A63B5E1A0040",
"Y  c #BFC657080000",
"T  c #9345610B0F80",
"R  c #85D362221F03",
"E  c #954865881CE3",
"W  c #AC4566DA0410",
"Q  c #BC416B050091",
"!  c #B8136DD60E3D",
"~  c #BBAF71E90241",
"^  c #BD91772F0DBE",
"/  c #A30B6B8417ED",
"(  c #B95E633E1FFF",
")  c #AE0D728617B0",
"_  c #B742730710BA",
"`  c #90C3661322AC",
"'  c #9EBC701E24CA",
"]  c #9D4B75622EB6",
"[  c #85CC6E613C6F",
"{  c #B89C66E22680",
"}  c #BBBD661120CD",
"|  c #BB856D3F2B44",
" . c #A58D737D2286",
".. c #A343792A2E51",
"X. c #BDC774AE3293",
"o. c #C0137CFF3B1D",
"O. c #C17557E20000",
"+. c #C51F5B310000",
"@. c #C9EF5F570000",
"#. c #C14B5DBB0DB1",
"$. c #C65D60E407F1",
"%. c #CDB463FE0000",
"&. c #C8B46FA3066B",
"*. c #CE0B6D570176",
"=. c #C54263230DA8",
"-. c #C9D9657A093C",
";. c #D5766CD50075",
":. c #C812753A0166",
">. c #CB1175270000",
",. c #C8DE7B6D04D3",
"<. c #C4C67D4F0BFA",
"1. c #DCD574E60108",
"2. c #D6CF79260000",
"3. c #DE717F3E0000",
"4. c #C56D7E70123B",
"5. c #E17B786D0000",
"6. c #E4C07CFE0034",
"7. c #E9487FE70000",
"8. c #E1457E4508F3",
"9. c #B4DE81B924B9",
"0. c #B3F483F02C89",
"q. c #DFA0867F04C0",
"w. c #DE4089D60A52",
"e. c #D89B82F01D73",
"r. c #E358869F0000",
"t. c #EBA283F50076",
"y. c #E75B8BF503D3",
"u. c #EFD18BEA0121",
"i. c #F46A8CF60000",
"p. c #F7AB92EC0000",
"a. c #FC7095AC0000",
"s. c #FFFF9ADC01F4",
"d. c #F63699CA0A04",
"f. c #FFA69F2C09BF",
"g. c #E7E38B7811AF",
"h. c #F0009A72131A",
"j. c #E66C98641A10",
"k. c #E9749D951F3E",
"l. c #FFFFA2200DD9",
"z. c #FFB6A57A1425",
"x. c #F39BA38C1DFC",
"c. c #FE8DA8A11AA5",
"v. c #FFC9AAA01CBC",
"b. c #CE498D8E21DD",
"n. c #DE078B32211C",
"m. c #CEE996422FC2",
"M. c #DC859A5027C7",
"N. c #E09A95FF2CD9",
"B. c #DDE5987034DF",
"V. c #D36B9D1E3664",
"C. c #E7D69F662F51",
"Z. c #E1189E693895",
"A. c #E0DBA2D93F7C",
"S. c #E192A2752D21",
"D. c #F683A95A24AF",
"F. c #FF0CAE95243D",
"G. c #FFFFB17326D9",
"H. c #FF72B3D82C70",
"J. c #FFFFB9582D34",
"K. c #EE43ADA53A0F",
"L. c #FFCFB784324E",
"P. c #FFFFB9CB3591",
"I. c #FFFFBDBA3C38",
"U. c #B2A696FA50D0",
"Y. c #C68A8F694BD5",
"T. c #C9CE974F5237",
"R. c #CA8299EB54E7",
"E. c #D5E4A33D50FE",
"W. c #D24FA9095ED7",
"Q. c #EA5CB2844156",
"!. c #EAF4B7704DBD",
"~. c #FEDDBFB3411F",
"^. c #F56FBFCC4BA5",
"/. c #EFA9BF16515D",
"(. c #D6E0B56A6999",
"). c #FFFFC1D142F4",
"_. c #FFFFC65D4B16",
"`. c #F37BC60A563C",
"'. c #FED9CBB1553B",
"]. c #FFFFD0805B00",
"[. c #DCD9C2E873E3",
"{. c #EE13CF6A6BBF",
"}. c #F0C1D4BB6F2C",
"|. c #FFFFD53F6144",
" X c #6B346BBE8352",
".X c #6EA0720885E0",
"XX c #713471CB8BE2",
"oX c #74AF763290DA",
"OX c #792D7A199737",
"+X c #89FF8FC99977",
"@X c #83528434A5AF",
"#X c #859E8AA2A33A",
"$X c #87C688C1ABE2",
"%X c #89678A4CAE6B",
"&X c #94D69BD4A78B",
"*X c #90279123B803",
"=X c #954A9674BF22",
"-X c #981A9B42C002",
";X c #9F91A63DAED1",
":X c #EC64DF0D84B4",
">X c #ECBFE3F88B1C",
",X c #F316ECE78E6B",
"<X c #F61CF12F9001",
"1X c #F6B0F5F895DD",
"2X c #F86AF9A09883",
"3X c #F6F2F89D9933",
"4X c #F84EFADD9A6C",
"5X c #F9AFFED49DF4",
"6X c #9B2A9D3FC5E2",
"7X c #9ED4A2B9C7AC",
"8X c #9F0DA215C997",
"9X c #A218A8FBC7D3",
"0X c #A114A5C9C943",
"qX c #A638AD14CCD5",
"wX c #B0A3B89CC222",
"eX c #AD88B664CE93",
"rX c #AD05B6A1D12A",
"tX c #AFE2BAC6D31C",
"yX c #B262BDC8D52B",
"uX c #B5FFC242D7B5",
"iX c #BA0CC97FDA04",
"pX c #C45DD124DFE1",
"aX c #C6C6D380E18B",
"sX c #C9BDDA91E39C",
"dX c #D174D988E51A",
"fX c #DA7BE2F3ECBB",
"gX c #E6A1EFB1F4A1",
"hX c None",
/* pixels */
"hXhXhXhXhXhXhXhXhXhXhXhXhXhXhXhXhXhXhXhXhXhXhXhXhXhXhXhXhXhXhXhX",
"hXhXhXhXhXhXhXhXhXhXhXhXhXhXv.c.z.z.hXhXhXhXhXhXhXhXhXhXhXhXhXhX",
"hXhXhXhXhXhXhXhXhXhXH.H.H.G.F.v.c.z.z.f.f.s.hXhXhXhXhXhXhXhXhXhX",
"hXhXhXhXhXhXhXhXH.L.P.P.P.L.H.F.v.c.z.l.f.f.s.a.hXhXhXhXhXhXhXhX",
"hXhXhXhXhXhXhXH.P.I.I.I.I.I.L.H.F.v.z.z.l.f.s.s.a.hXhXhXhXhXhXhX",
"hXhXhXhXhXhXH.L.I.)._._._.).I.L.G.F.c.z.l.f.s.s.s.a.hXhXhXhXhXhX",
"hXhXhXhXhXF.H.P.~._.'.'.'._.I.P.H.F.v.z.l.f.s.s.s.s.a.hXhXhXhXhX",
"hXhXhXhXv.G.J.I.)._.].|.'.^.~.P.H.F.v.z.l.f.s.s.s.s.y._ hXhXhXhX",
"hXhXhXz.x.M.m.V.Q._.`.U.A s k V.H.D.b. .` E ) w.y.E t ; - - hXhX",
"hXhXhX' h q : : a [ Z V x = * i ..j : - = = - 0 u - - - = - - hX",
"hXhXp n b - # - * = > < + $ & - x M , # - > - - - - + 4 e 0 - - ",
"hX, V x > D .X.XF < - + R S.0.c V , l K #X#XoXM - * 1 3.i.! ; - ",
"hXx x l ;XdXyXqX6XJ - # 9.J.] x < v wXfXuXqX8X$Xl = 5 r.i.6.d = ",
"- > - +XgXsXyXqX6X@X< # P D.f - - &XgXsXuXqX7X=XN - X >.i.7.&.hX",
"- - z eXaXiXtX9X6X@X< # r k.i = v eXpXiXyXqX6X=XM - X :.t.6.1.hX",
"- - M 9XeXeXqX7X6X X- @ T j.9 * S qXeXrXqX7X6X@X< = o 2.t.5.1.hX",
"- - m -X0X7X7X6X%Xv - X <.h.u = B 6X0X0X7X6X=XF - # 2 t.7.1.;.hX",
"hX- < OX6X6X=X@XN - # 3 d.f.g = l @X6X6X6X*XH > - . U t.5.1.;.hX",
"hX- - l S G C < - # o ,.f.f.4.; - v J XXH m - - O 8 6.6.1.;.hXhX",
"hXhXy - * = = * @   ~ s.s.s.s./ ; = - - - - * O 2 2.7.1.1.%.hXhX",
"hXhXq.I 7 6 6 3 L r.s.s.s.s.s.s.^ w % # # + 5 L 3.t.5.1.;.%.hXhX",
"hXhXp.a.u.r.y.p.s.s.s.s.s.s.s.s.s.u.,.W W Q *.t.t.5.1.;.%.+.hXhX",
"hXhXhXi.p.a.1.6.a.s.a.a.a.a.a.a.a.a.a.a.7.#.=.6.5.1.;.%.+.hXhXhX",
"hXhXhXu.i.i.8.} -.t.a.a.a.a.a.p.p.i.t.%.{ E.g.5.1.;.%.+.Y hXhXhX",
"hXhXhXhXt.u.i.K.W.| =.;.6.7.7.5.;.$.( R.:XK.1.1.;.%.+.O.hXhXhXhX",
"hXhXhXhXhXt.t.u.`.,X[.T.o.X.X.o.Y.(.>X2X/.1.;.;.%.+.O.hXhXhXhXhX",
"hXhXhXhXhXhX6.6.y./.1X5X3X1X1X3X4X5X1X!.1.;.%.@.+.O.hXhXhXhXhXhX",
"hXhXhXhXhXhXhX1.1.6.C.}.<X2X4X3X,X{.N.;.%.%.+.O.Y hXhXhXhXhXhXhX",
"hXhXhXhXhXhXhXhX;.;.;.1.n.Z.A.B.e.;.%.@.+.+.O.Y hXhXhXhXhXhXhXhX",
"hXhXhXhXhXhXhXhXhXhX%.%.%.%.%.@.@.+.+.O.O.Y hXhXhXhXhXhXhXhXhXhX",
"hXhXhXhXhXhXhXhXhXhXhXhXhXhXO.O.O.Y hXhXhXhXhXhXhXhXhXhXhXhXhXhX",
"hXhXhXhXhXhXhXhXhXhXhXhXhXhXhXhXhXhXhXhXhXhXhXhXhXhXhXhXhXhXhXhX"
};
