/* XPM */
static char *icon[] = {
/* columns rows colors chars-per-pixel */
"48 48 256 2",
"   c #1A5114A20D09",
".  c #167C169216B3",
"X  c #1899176D159D",
"o  c #1CAA1A591654",
"O  c #1ABF1B791C7D",
"+  c #178318B91A4D",
"@  c #2C4D1DF10903",
"#  c #225E1F571A8B",
"$  c #25A21DEE1260",
"%  c #2DA720E20E68",
"&  c #3B81258106AB",
"*  c #21EB20591E0C",
"=  c #37ED2A121687",
"-  c #1D4A1EE12128",
";  c #2019219A2408",
":  c #22D424502660",
">  c #268027D429D6",
",  c #27AF28D12AB3",
"<  c #2C942D012DC4",
"1  c #29532865269C",
"2  c #31562E692A0F",
"3  c #3CBE363E2D6D",
"4  c #2EC92FB03108",
"5  c #2FCC30E832DC",
"6  c #32E132FA3324",
"7  c #3A6636E73199",
"8  c #3D5D39D133C3",
"9  c #36D836F73925",
"0  c #3739387A3A95",
"q  c #3B593B713CBC",
"w  c #4AAD2CB80311",
"e  c #42222C7A09EA",
"r  c #49C7329D0C70",
"t  c #5C3036360270",
"y  c #52033262029E",
"u  c #47E033DD140A",
"i  c #559D3F291964",
"p  c #6BB43E3A0092",
"a  c #41C83AF02FA9",
"s  c #44373D3E3187",
"d  c #42D83F6439E7",
"f  c #766B45B60162",
"g  c #679847601392",
"h  c #7D2B571F1F3F",
"j  c #681444250A06",
"k  c #4E1942C02FFE",
"l  c #507F42B72D51",
"z  c #5BD2479C2950",
"x  c #59EE437E21E2",
"c  c #455B408D384B",
"v  c #516449803860",
"b  c #67254B99255E",
"n  c #6295472325A7",
"m  c #6C9052C829DB",
"M  c #6740524C2EB3",
"N  c #738B5A4F2E7D",
"B  c #7C0D5ED52A59",
"V  c #6C6F5D0E3B22",
"C  c #68C656CC3491",
"Z  c #761B5FE83552",
"A  c #3CA03CB540A9",
"S  c #3FFF41964830",
"D  c #433D433D433E",
"F  c #440D44D14C11",
"G  c #4AA84B054BB7",
"H  c #4E774BCD4538",
"J  c #4B924C8254F4",
"K  c #4F2F4F785B6F",
"L  c #4EA65144568F",
"P  c #53BA53BC53BE",
"I  c #540154525D33",
"U  c #5A7D5A9D5AD9",
"Y  c #7F1E6D174226",
"T  c #54B7550E6360",
"R  c #59C35A226A59",
"E  c #5F5265176F38",
"W  c #625D62D276A9",
"Q  c #675867DB7DCA",
"!  c #68246D717C8D",
"~  c #6C5C737F7D83",
"^  c #80DE49890000",
"/  c #8E7754BD01D4",
"(  c #836151CC04DC",
")  c #93D955AF0000",
"_  c #9E705F261360",
"`  c #A778426A0C79",
"'  c #AD0347030A3F",
"]  c #B5814D7D0644",
"[  c #A4435CD00000",
"{  c #BF3756B700BC",
"}  c #B87450F406CB",
"|  c #A78D4C4C1AA5",
" . c #A6CE474D1483",
".. c #9FC3637A06F8",
"X. c #9B7869751A62",
"o. c #A4B862C80000",
"O. c #AC10647C0000",
"+. c #A99769410A65",
"@. c #C0A46D620000",
"#. c #C0BA71080BD9",
"$. c #A6EE6D221679",
"%. c #A1E66D481C1D",
"&. c #ADF276831DD9",
"*. c #BFAF7B51134B",
"=. c #B5E6788A193B",
"-. c #ACC65ACA27A1",
";. c #8CA969622888",
":. c #956C6F382CEC",
">. c #9C1C717E294C",
",. c #89186EE739D2",
"<. c #99B577A03659",
"1. c #A5D8774A21D1",
"2. c #B4806BDD346C",
"3. c #C1E257F60000",
"4. c #C4C85AFE0058",
"5. c #C97D5F770000",
"6. c #CD4663AE0000",
"7. c #D09168B70335",
"8. c #D16A67CB0000",
"9. c #D4E16BDE0026",
"0. c #D90F70150000",
"q. c #C60374FD03F0",
"w. c #CFAE7D7C0154",
"e. c #C61B7B600CF6",
"r. c #CC5C73750000",
"t. c #DCF0746E002F",
"y. c #D5447B530000",
"u. c #DFC77B61018C",
"i. c #D8B878310813",
"p. c #E4BE7CDF0079",
"a. c #E18C78120000",
"s. c #91FF7BDE45E3",
"d. c #BB607BEB40F6",
"f. c #BBE4852F27CF",
"g. c #DDB781950000",
"h. c #D91C87520995",
"j. c #CCD489021BD7",
"k. c #DC26827B17A1",
"l. c #E09295401AF5",
"z. c #E7FE81C00000",
"x. c #ECF485270000",
"c. c #ED878B6B014B",
"v. c #E6FC8CB10C9A",
"b. c #F4478D20000F",
"n. c #F0A391E303D2",
"m. c #F7099209005F",
"M. c #FCB295EC0000",
"N. c #FFFF9ADB01F4",
"B. c #FF159F380A66",
"V. c #F5A3975E0DE7",
"C. c #E93098A21AA7",
"Z. c #F2EC9FB41E80",
"A. c #FFFFA2430DA3",
"S. c #FFFFA5CF145F",
"D. c #FCE8A65B185E",
"F. c #FFA6AA331C2C",
"G. c #F4B1A24D1A3A",
"H. c #CC488BC720EC",
"J. c #E0088E48231E",
"K. c #DBAB8BDC2680",
"L. c #D2B696CB2C62",
"P. c #CD6F9B1E398C",
"I. c #EE68A25029A8",
"U. c #FF05AE112353",
"Y. c #F833AB6E2601",
"T. c #FFFFB15A274D",
"R. c #FF34B3862C2E",
"E. c #E594A68C3DF4",
"W. c #E816A4043633",
"Q. c #FF6BB7353242",
"!. c #FFFFB9FD35B5",
"~. c #FFFFBD8E3C48",
"^. c #F8F1B45C33DA",
"/. c #BF0083944672",
"(. c #C4588EBB4E4C",
"). c #CA739DFD41AE",
"_. c #C6E894625286",
"`. c #DC3BB0634D10",
"'. c #CD89A5DD5A82",
"]. c #E211A7A9453E",
"[. c #EBB3B6384B47",
"{. c #FFFFC04540D8",
"}. c #E641B6F554F7",
"|. c #EA8BBD2B5738",
" X c #D158A9F36194",
".X c #D6B2B525697D",
"XX c #FFFFC290447E",
"oX c #FFBAC6214B1A",
"OX c #FFFFC96D4FED",
"+X c #F70BC0CE4BA1",
"@X c #EFB6C22D563D",
"#X c #FFFFCC0C5451",
"$X c #FE5ACF315B9C",
"%X c #FB4BC7D152A5",
"&X c #FFFFD13F5C78",
"*X c #EFA4CC9E653B",
"=X c #F16ECF436687",
"-X c #F09AD4B26FA3",
";X c #FFFFD5406263",
":X c #E133CAB7786F",
">X c #E4E8D2387D8C",
",X c #F1E4E0567E75",
"<X c #F55AE4A47F1B",
"1X c #6CE76DAA8687",
"2X c #6FE476A08326",
"3X c #7265732B8DDA",
"4X c #77C47E24905B",
"5X c #7C557D2B9C01",
"6X c #773A77FA94B6",
"7X c #801E81AAA10C",
"8X c #81BA89049AF5",
"9X c #87D48D11A712",
"0X c #87BF8945AB8F",
"qX c #85B68707A8C2",
"wX c #8D869310AE53",
"eX c #8BAE9581A1F8",
"rX c #91F49A49ACE5",
"tX c #8DB78E9DB4A7",
"yX c #904B914BB837",
"uX c #934B9484BC4E",
"iX c #91E6968DB598",
"pX c #E7CFD8A38256",
"aX c #EF51E87D8DA7",
"sX c #F767EA708453",
"dX c #F4F1EAF088E2",
"fX c #F7EFF1BE8DFC",
"gX c #F6D8F5C79565",
"hX c #F837FADE9A81",
"jX c #F94AFCFE9BE8",
"kX c #F806F93B987B",
"lX c #969C979CC159",
"zX c #9A839C67C544",
"xX c #97D598E3C30A",
"cX c #9E78A256C744",
"vX c #A093A533C8CB",
"bX c #A211A9A5C659",
"nX c #A1F8A700C9F8",
"mX c #A5A5AC40CC57",
"MX c #AA65B2F4CF81",
"NX c #AD86B75BD1AD",
"BX c #AF96B980D374",
"VX c #B31FBEDDD56B",
"CX c #B59DC2C3D6F3",
"ZX c #BD71CE02DC3D",
"AX c #BBDEC70DD6B5",
"SX c #C682CEBCDBD7",
"DX c #C173D404DF03",
"FX c #C833D0C4E285",
"GX c #CDF7DC41E576",
"HX c #D6DBDE49EA12",
"JX c #D1A4DA6FE72C",
"KX c #CEA0E11CE6B8",
"LX c #DEE6E5A8EE7C",
"PX c #E20FE986F163",
"IX c #EF78F567F7D9",
"UX c None",
/* pixels */
"UXUXUXUXUXUXUXUXUXUXUXUXUXUXUXUXUXUXUXUXUXUXUXUXUXUXUXUXUXUXUXUXUXUXUXUXUXUXUXUXUXUXUXUXUXUXUXUX",
"UXUXUXUXUXUXUXUXUXUXUXUXUXUXUXUXUXUXUXUXUXUXUXUXUXUXUXUXUXUXUXUXUXUXUXUXUXUXUXUXUXUXUXUXUXUXUXUX",
"UXUXUXUXUXUXUXUXUXUXUXUXUXUXUXUXUXUXUXY.U.F.F.F.D.S.S.B.B.UXUXUXUXUXUXUXUXUXUXUXUXUXUXUXUXUXUXUX",
"UXUXUXUXUXUXUXUXUXUXUXUXUXUXUXUXR.R.T.T.U.U.U.F.F.S.S.S.A.B.B.N.UXUXUXUXUXUXUXUXUXUXUXUXUXUXUXUX",
"UXUXUXUXUXUXUXUXUXUXUXUXUXUXR.R.Q.Q.R.R.R.T.U.U.F.F.S.S.A.A.B.B.N.N.UXUXUXUXUXUXUXUXUXUXUXUXUXUX",
"UXUXUXUXUXUXUXUXUXUXUXUXR.Q.Q.!.!.!.!.!.Q.R.R.U.U.F.F.S.S.A.B.B.N.N.N.M.UXUXUXUXUXUXUXUXUXUXUXUX",
"UXUXUXUXUXUXUXUXUXUXUXR.Q.!.~.~.~.~.~.~.!.Q.R.R.U.U.F.D.S.A.A.B.B.N.N.N.M.UXUXUXUXUXUXUXUXUXUXUX",
"UXUXUXUXUXUXUXUXUXY.R.Q.!.~.~.XXXXXXXX{.~.!.Q.R.T.U.F.F.S.S.A.B.B.N.N.N.N.N.m.UXUXUXUXUXUXUXUXUX",
"UXUXUXUXUXUXUXUXY.T.R.!.~.{.XXoXoXoXoXXXXX~.!.Q.R.U.U.F.S.S.A.B.B.N.N.N.N.N.M.m.UXUXUXUXUXUXUXUX",
"UXUXUXUXUXUXUXY.U.R.Q.!.~.XXoX#X#X#X#XoXXX~.~.Q.R.T.U.F.D.S.A.B.B.N.N.N.N.N.N.M.m.UXUXUXUXUXUXUX",
"UXUXUXUXUXUXUXU.T.R.Q.~.{.oXOX#X$X&X$X#XoXXX~.!.R.T.U.F.D.S.A.A.B.N.N.N.N.N.N.M.M.UXUXUXUXUXUXUX",
"UXUXUXUXUXUXF.U.T.R.!.~.XXoX#X$X;X;X&X%X+XXX~.!.R.T.U.F.F.S.A.A.A.N.N.N.N.N.N.c.e.X.UXUXUXUXUXUX",
"UXUXUXUXUXD.F.U.U.R.^.~.XXoXOX$X$X'.s.V V ,.P.!.R.T.U.F.C.j.=.=.*.h.V.N.N.n.$.z 7 6 6 6 6 UXUXUX",
"UXUXUXUXUXG.H.>.B C C Z <.).+X`.Y H J 0 5 5 s <.R.Y.f.N k 7 6 6 6 8 z X.*.b 6 6 6 6 6 6 6 6 UXUX",
"UXUXUXUX&.m c 0 5 5 5 5 6 8 C v G U G 9 6 6 6 7 ;.N 8 6 6 6 6 6 6 6 6 6 7 6 6 6 6 6 6 6 6 6 6 UX",
"UXUXUX3 d L U G 6 6 6 6 6 6 6 6 D q 6 , > < 6 6 9 G U q 6 6 6 6 6 6 6 6 6 6 6 6 : # = 3 6 6 6 6 ",
"UXUXUXq U P q 6 < 6 9 9 6 6 6 6 6 , o i ;.B a 9 P U D 6 < 6 S J J F 9 6 6 6 6 o w O.y.q.b 6 6 6 ",
"UXUX0 U G 6 < F 2X9XwXqX3XK 6 6 6 # X.^.!.R.N G U 0 < 6 E rXbXbXcXuX6XF 6 6 5 % y.M.b.b.#.3 6 6 ",
"UX6 G P 6 5 2XSXHXVXMXnXzXyXK 6 6 1 1.Q.R.L.c U D 6 0 eXHXLXVXMXnXcXzX7Xq 6 6 * O.m.b.x.p.n 6 6 ",
"UX6 D q < ~ LXIXGXCXMXnXzXzX6X6 6 , g T.T.:.6 q 6 4 8XPXIXGXCXNXmXcXzXuXK 6 6 : f b.b.x.z._ UXUX",
"6 6 6 6 F AXIXKXDXCXNXmXzXzXqX0 6 < u Y.Y.M 5 6 < K SXIXGXDXAXBXmXcXzXxXR 6 6 : t b.c.x.p.u.UXUX",
"6 6 6 < ! JXJXZXZXVXMXnXzXzX5X9 6 < e G.C.k 6 6 < 4XFXGXZXZXCXNXmXcXzXlXT 6 6 : t b.x.z.p.t.UXUX",
"6 6 6 6 8XBXVXCXVXNXmXvXzXzX1X6 6 , r D.l.s 6 6 9 wXBXVXCXVXNXmXnXzXxXyXF 6 6 - p b.x.p.p.t.UXUX",
"6 6 6 6 9XmXMXMXMXmXnXzXxXuXI 6 6 ; j S.l.s 6 6 q iXmXMXMXMXmXnXcXzXzX5X9 6 6 + / b.z.p.a.t.UXUX",
"6 6 6 6 7XnXnXnXnXcXzXzXzX6X9 6 6 X ..S.C.l 6 6 q tXnXnXnXnXvXcXzXxXuXI 6 6 4   @.x.z.p.t.0.UXUX",
"UX6 6 6 1XzXzXzXzXzXxXzXqXF 6 6 , @ h.A.B.m 5 6 6 5XzXzXzXzXzXzXxXlXQ 6 6 6 : w z.x.p.a.t.9.UXUX",
"UX6 6 6 F qXzXzXzXxXuX3XF 6 6 6 . ( B.B.B.%.6 6 6 T uXzXzXzXzXxXtXW 9 6 6 4   [ x.p.p.t.0.8.UXUX",
"UX6 6 6 6 F W 3X3XW J 9 6 6 6 - e v.B.B.B.v.l 6 6 6 T 5X0X0X5XQ F 6 6 6 6 + t z.z.p.u.t.9.6.UXUX",
"UXUX7 6 6 6 6 6 6 6 6 6 6 6 O & w.N.N.N.N.N.=.7 6 6 6 9 A A 9 6 6 6 6 6 O & y.x.p.a.t.0.8.UXUXUX",
"UXUXUXh 6 6 6 6 6 6 6 6 > X y g.N.N.N.N.N.N.M.$.a 6 6 6 6 6 6 6 6 6 < . w r.x.p.p.t.t.9.6.UXUXUX",
"UXUXUXb.+.i 2 , , : * $ w o.m.N.N.N.N.N.N.N.N.N.e.x 4 4 6 6 6 4 > O @ ^ u.x.p.p.t.t.9.7.6.UXUXUX",
"UXUXUXm.M.c.q.../ / o.w.m.N.N.N.N.N.N.N.N.N.N.N.N.c.+.g u = = & t ) y.c.x.z.p.u.t.0.8.6.4.UXUXUX",
"UXUXUXUXm.M.M.N.N.N.N.N.N.N.N.N.N.N.N.N.N.N.N.N.M.M.N.m.c.g.g.z.x.9.p.x.p.p.u.t.0.8.6.5.UXUXUXUX",
"UXUXUXUXb.m.m.M.M.x.p.M.M.M.M.M.M.N.M.M.M.M.M.M.M.M.M.m.m.m.b.p.} ` t.z.p.u.t.0.9.6.5.3.UXUXUXUX",
"UXUXUXUXUXb.b.m.m.0.` 5.b.M.M.M.M.M.M.M.M.M.M.M.M.m.m.b.b.c.7.` 2.J.p.p.u.t.0.9.6.5.4.UXUXUXUXUX",
"UXUXUXUXUXx.b.b.b.b.K.-.' 9.b.M.M.M.M.M.m.m.m.m.m.b.b.c.t.] | '.=Xv.a.t.t.0.9.6.5.4.{ UXUXUXUXUX",
"UXUXUXUXUXUXx.b.b.b.V.*X'.-.' 6.p.b.b.m.m.b.b.b.c.p.7.]  ./.pXfXI.a.t.t.9.8.6.5.4.3.UXUXUXUXUXUX",
"UXUXUXUXUXUXUXx.x.x.x.Z.sXaX X2.| ' ] { 4.4.{ ] '  .-.(.>XkXkX[.a.t.0.9.8.6.5.4.3.UXUXUXUXUXUXUX",
"UXUXUXUXUXUXUXUXz.x.x.x.I.sXjXgXpX.X_./.d.d./._. X:XaXhXjXkX@Xu.t.0.9.6.6.5.4.3.UXUXUXUXUXUXUXUX",
"UXUXUXUXUXUXUXUXu.p.p.z.z.I.<XjXjXjXjXhXkXkXhXjXjXjXhXhXgX|.i.0.9.8.6.5.4.3.3.{ UXUXUXUXUXUXUXUX",
"UXUXUXUXUXUXUXUXUXUXa.p.p.p.C.=XgXjXhXhXhXhXhXhXhXhXhXsXE.i.9.8.6.6.5.4.3.3.UXUXUXUXUXUXUXUXUXUX",
"UXUXUXUXUXUXUXUXUXUXUXt.t.t.t.p.W.-XfXhXjXjXjXhXgX,X[.k.9.8.6.6.5.4.3.3.{ UXUXUXUXUXUXUXUXUXUXUX",
"UXUXUXUXUXUXUXUXUXUXUXUX9.0.t.t.t.i.J.E.}.|.}.].K.i.8.6.6.6.5.4.3.3.3.{ UXUXUXUXUXUXUXUXUXUXUXUX",
"UXUXUXUXUXUXUXUXUXUXUXUXUXUX8.9.9.9.9.8.8.8.6.6.6.6.6.5.4.4.3.3.3.{ UXUXUXUXUXUXUXUXUXUXUXUXUXUX",
"UXUXUXUXUXUXUXUXUXUXUXUXUXUXUXUX6.6.6.6.6.6.6.5.5.4.4.3.3.3.{ { UXUXUXUXUXUXUXUXUXUXUXUXUXUXUXUX",
"UXUXUXUXUXUXUXUXUXUXUXUXUXUXUXUXUXUXUXUX4.4.3.3.3.{ { { UXUXUXUXUXUXUXUXUXUXUXUXUXUXUXUXUXUXUXUX",
"UXUXUXUXUXUXUXUXUXUXUXUXUXUXUXUXUXUXUXUXUXUXUXUXUXUXUXUXUXUXUXUXUXUXUXUXUXUXUXUXUXUXUXUXUXUXUXUX",
"UXUXUXUXUXUXUXUXUXUXUXUXUXUXUXUXUXUXUXUXUXUXUXUXUXUXUXUXUXUXUXUXUXUXUXUXUXUXUXUXUXUXUXUXUXUXUXUX"
};
