<?xml version="1.0" encoding="utf-8"?>
<!-- Generator: Adobe Illustrator 16.1.0, SVG Export Plug-In . SVG Version: 6.00 Build 0)  -->
<!DOCTYPE svg PUBLIC "-//W3C//DTD SVG 1.1//EN" "http://www.w3.org/Graphics/SVG/1.1/DTD/svg11.dtd">
<svg version="1.1" id="Layer_1" xmlns="http://www.w3.org/2000/svg" xmlns:xlink="http://www.w3.org/1999/xlink" x="0px" y="0px"
	 width="48px" height="48px" viewBox="0 0 48 48" enable-background="new 0 0 48 48" xml:space="preserve">
<g>
	<g>
		<path fill="#666666" d="M19.953,9.938h0.687l11.071,24H8.865L19.953,9.938z M12.279,31.872l13.613,0.02l-6.652-15.349
			L12.279,31.872z"/>
	</g>
	<g>
		<polygon fill="#333333" points="26.613,30.294 26.613,37.062 33.537,37.062 33.537,30.294 37.135,30.294 30.211,21.062 
			23.287,30.294 		"/>
		<path fill="#FFFFFF" d="M23.287,31.294h2.326v5.768v1h1h6.924h1v-1v-5.768h2.598h2l-1.2-1.6l-6.924-9.232l-0.8-1.067l-0.8,1.067
			l-6.924,9.232l-1.2,1.6H23.287z M33.537,37.062h-6.924v-6.768h-3.326l6.924-9.232l6.924,9.232h-3.598V37.062z"/>
	</g>
</g>
</svg>
