<?xml version="1.0" encoding="utf-8"?>
<!-- Generator: Adobe Illustrator 16.1.0, SVG Export Plug-In . SVG Version: 6.00 Build 0)  -->
<!DOCTYPE svg PUBLIC "-//W3C//DTD SVG 1.1//EN" "http://www.w3.org/Graphics/SVG/1.1/DTD/svg11.dtd">
<svg version="1.1" id="Layer_1" xmlns="http://www.w3.org/2000/svg" xmlns:xlink="http://www.w3.org/1999/xlink" x="0px" y="0px"
	 width="48px" height="48px" viewBox="0 0 48 48" enable-background="new 0 0 48 48" xml:space="preserve">
<g>
	<g>
		<path fill="#666666" d="M19.876,9.605h0.687l11.071,24H8.789L19.876,9.605z M12.203,31.539l13.613,0.02l-6.652-15.349
			L12.203,31.539z"/>
	</g>
	<g>
		<polygon fill="#333333" points="33.885,27.496 33.885,20.728 26.961,20.728 26.961,27.496 23.363,27.496 30.287,36.729 
			37.211,27.496 		"/>
		<path fill="#FFFFFF" d="M37.211,26.496h-2.326v-5.768v-1h-1h-6.924h-1v1v5.768h-2.598h-2l1.2,1.6l6.924,9.232l0.8,1.066l0.8-1.066
			l6.924-9.232l1.2-1.6H37.211z M26.961,20.728h6.924v6.768h3.326l-6.924,9.232l-6.924-9.232h3.598V20.728z"/>
	</g>
</g>
</svg>
