<?xml version="1.0" encoding="utf-8"?>
<!-- Generator: Adobe Illustrator 16.1.0, SVG Export Plug-In . SVG Version: 6.00 Build 0)  -->
<!DOCTYPE svg PUBLIC "-//W3C//DTD SVG 1.1//EN" "http://www.w3.org/Graphics/SVG/1.1/DTD/svg11.dtd">
<svg version="1.1" id="Layer_1" xmlns="http://www.w3.org/2000/svg" xmlns:xlink="http://www.w3.org/1999/xlink" x="0px" y="0px"
	 width="48px" height="48px" viewBox="0 0 48 48" enable-background="new 0 0 48 48" xml:space="preserve">
<g>
	<polygon fill="#666666" points="33.383,29 32.229,31 31.074,33 31.074,33 33.383,37 38.001,37 40.311,33 38.001,29 	"/>
	<polygon fill="#666666" points="25.587,32.499 25.587,32.499 30.208,32.499 31.362,30.5 32.517,28.5 31.362,26.5 30.208,24.499 
		25.588,24.499 24.433,26.5 23.278,28.5 24.433,30.5 	"/>
	<polygon fill="#666666" points="14.619,32.499 14.619,32.499 15.773,30.5 16.928,28.5 15.773,26.5 14.618,24.499 9.999,24.499 
		7.689,28.5 9.999,32.499 	"/>
	<polygon fill="#666666" points="30.208,33.499 30.208,33.499 30.208,33.5 25.588,33.5 25.588,33.499 25.588,33.499 25.587,33.5 
		23.278,37.5 25.588,41.5 30.208,41.5 32.517,37.5 30.208,33.5 	"/>
	<polygon fill="#666666" points="24.722,32.999 24.722,33 23.567,31 22.412,29 17.794,29 16.639,31 15.484,33 17.514,36.516 
		17.794,37 22.412,37 22.692,36.516 24.722,33 	"/>
	<polygon fill="#666666" points="14.618,33.499 14.618,33.499 14.618,33.5 9.999,33.5 7.689,37.5 9.999,41.5 14.618,41.5 
		16.928,37.5 14.619,33.5 	"/>
	<polygon fill="#666666" points="15.484,33 15.484,33 15.484,32.999 	"/>
	<polygon fill="#666666" points="33.383,19.999 32.229,21.999 31.074,23.999 32.229,26 33.383,28 38.001,28 40.311,23.999 
		38.001,19.999 	"/>
	<polygon fill="#666666" points="32.517,19.499 31.362,17.499 30.208,15.499 25.588,15.499 24.433,17.499 23.278,19.499 
		24.433,21.499 25.588,23.499 30.208,23.499 31.362,21.499 	"/>
	<polygon fill="#666666" points="23.567,21.999 22.412,19.999 17.794,19.999 16.639,21.999 15.484,23.999 16.639,26 17.794,28 
		22.412,28 23.567,26 24.722,23.999 	"/>
	<polygon fill="#666666" points="14.618,23.499 15.773,21.499 16.928,19.499 15.773,17.499 14.618,15.499 9.999,15.499 
		7.689,19.499 9.999,23.499 	"/>
	<polygon fill="#666666" points="31.074,14.999 32.229,16.999 33.383,18.999 38.001,18.999 40.311,14.999 38.001,10.999 
		33.383,10.999 32.229,12.999 	"/>
	<polygon fill="#666666" points="30.208,14.499 31.362,12.499 32.517,10.499 30.208,6.5 25.588,6.5 23.278,10.499 25.588,14.499 	
		"/>
	<polygon fill="#666666" points="16.639,16.999 17.794,18.999 22.412,18.999 23.567,16.999 24.722,14.999 22.412,10.999 
		22.412,10.999 17.794,10.999 17.794,10.999 15.484,14.999 	"/>
	<polygon fill="#666666" points="14.618,14.499 16.928,10.499 14.618,6.5 9.999,6.5 7.689,10.499 9.999,14.499 	"/>
</g>
</svg>
