<?xml version="1.0" encoding="utf-8"?>
<!-- Generator: Adobe Illustrator 16.1.0, SVG Export Plug-In . SVG Version: 6.00 Build 0)  -->
<!DOCTYPE svg PUBLIC "-//W3C//DTD SVG 1.1//EN" "http://www.w3.org/Graphics/SVG/1.1/DTD/svg11.dtd">
<svg version="1.1" id="Layer_1" xmlns="http://www.w3.org/2000/svg" xmlns:xlink="http://www.w3.org/1999/xlink" x="0px" y="0px"
	 width="48px" height="48px" viewBox="0 0 48 48" enable-background="new 0 0 48 48" xml:space="preserve">
<g>
	<polygon fill="#B2B2B2" points="15.941,20.646 17.701,17.599 15.941,14.551 14.183,11.505 14.183,11.505 14.182,11.503 
		7.457,11.503 7.457,11.505 7.457,23.693 14.182,23.693 	"/>
	<polygon fill="#333333" points="37.024,23.693 40.543,17.599 37.025,11.505 37.024,11.503 29.988,11.503 29.987,11.505 
		28.228,14.551 26.469,17.599 28.228,20.646 29.988,23.693 	"/>
	<polygon fill="#B2B2B2" points="14.182,10.505 14.183,10.503 16.206,7 16.205,7 7.457,7 7.457,10.503 7.457,10.505 14.181,10.505 	
		"/>
	<polygon fill="#666666" points="15.048,11.004 16.807,14.051 18.567,17.099 25.603,17.099 27.363,14.051 29.122,11.004 
		29.122,11.003 26.811,7.001 26.81,7.001 17.36,7 17.359,7 15.047,11.003 	"/>
	<polygon fill="#333333" points="29.987,10.503 29.988,10.505 29.989,10.505 37.024,10.505 37.025,10.503 39.048,7.001 
		27.965,7.001 29.988,10.503 	"/>
	<polygon fill="#666666" points="25.603,18.099 18.567,18.099 16.807,21.146 15.047,24.193 18.567,30.287 18.567,30.287 
		25.603,30.287 27.363,27.24 29.122,24.193 27.363,21.146 	"/>
	<polygon fill="#333333" points="29.988,24.693 28.228,27.74 26.469,30.787 28.228,33.834 29.988,36.881 37.024,36.881 
		40.543,30.787 37.024,24.693 	"/>
	<polygon fill="#666666" points="27.363,34.334 25.603,31.287 18.567,31.287 18.567,31.287 16.807,34.334 15.047,37.381 
		16.807,40.428 17.138,41 27.032,41 27.032,41 29.122,37.381 	"/>
	<polygon fill="#B2B2B2" points="14.182,36.881 15.941,33.834 17.701,30.787 14.182,24.693 7.457,24.693 7.457,36.881 
		14.181,36.881 	"/>
	<polygon fill="#B2B2B2" points="14.182,37.881 14.181,37.881 7.457,37.881 7.457,41 15.983,41 15.941,40.928 	"/>
	<polygon fill="#333333" points="29.988,37.881 28.228,40.928 28.187,41 38.826,41 37.024,37.881 	"/>
</g>
</svg>
